{"glyphs":{"0":{"ha":1810,"x_min":22,"x_max":1767,"o":"m 692 554 q 664 551 681 554 q 644 536 647 549 q 640 530 642 533 q 633 526 639 526 q 623 531 628 526 q 618 543 618 536 q 642 583 618 572 q 689 593 665 593 q 717 586 703 593 q 746 572 732 579 q 772 557 760 564 q 797 550 785 550 q 803 558 799 550 q 816 574 808 565 q 833 590 824 582 q 853 597 842 597 q 874 592 864 597 q 885 569 885 588 q 874 545 885 551 q 849 534 863 539 q 824 522 835 529 q 813 493 813 514 q 815 492 813 492 q 833 506 822 492 q 860 519 843 519 q 876 504 876 519 q 867 481 876 492 q 848 461 858 469 q 828 447 838 453 q 819 440 819 442 q 829 429 819 438 q 844 411 839 421 q 879 359 864 379 q 928 333 894 339 q 942 338 938 333 q 949 347 947 342 q 953 356 951 351 q 960 360 956 360 q 981 344 972 360 q 990 319 990 329 q 978 297 990 307 q 947 286 965 286 q 901 297 921 286 q 866 326 881 308 q 842 365 851 343 q 824 408 832 388 q 817 421 821 414 q 804 428 814 428 q 798 413 800 428 q 796 386 796 397 q 799 372 796 379 q 801 358 801 365 q 799 357 801 357 q 771 367 783 357 q 758 378 765 372 q 744 368 754 378 q 718 358 735 358 q 699 382 700 358 l 699 386 q 696 388 697 388 q 681 374 686 382 q 667 367 675 367 q 653 372 658 367 q 646 383 649 376 q 641 394 643 389 q 636 400 639 400 q 628 394 633 400 q 616 380 624 388 q 599 366 608 372 q 579 360 589 360 q 561 365 568 360 q 549 376 554 369 q 542 387 544 382 q 538 392 539 392 q 528 386 533 392 q 518 374 524 381 q 505 363 513 368 q 489 358 497 358 q 478 363 482 358 q 471 373 474 368 q 467 383 468 378 q 465 388 467 388 q 452 374 458 382 q 438 367 446 367 q 415 383 424 367 q 407 419 407 399 q 413 451 407 433 q 428 483 418 468 q 452 509 438 499 q 486 519 467 519 q 503 511 500 519 q 507 489 507 503 q 503 481 507 485 q 500 475 500 478 q 504 471 500 472 q 513 468 508 469 q 522 465 518 467 q 526 458 526 463 q 515 438 526 454 q 503 408 503 422 q 513 400 503 400 q 533 419 525 400 q 549 460 540 438 q 574 501 558 482 q 615 519 589 519 q 634 507 628 519 q 640 482 640 494 q 633 453 640 467 q 614 440 625 440 q 601 445 607 440 q 596 458 596 450 q 601 464 596 461 q 610 470 606 467 q 620 478 615 474 q 625 490 625 483 q 624 497 625 493 q 618 500 624 500 q 590 476 600 500 q 576 435 579 453 q 597 411 576 411 q 628 428 618 411 q 649 465 639 444 q 674 503 660 486 q 719 519 689 519 q 735 512 731 519 q 740 494 740 504 q 736 485 740 489 q 732 475 732 481 q 744 468 732 469 q 757 461 757 467 q 753 451 757 458 q 745 435 750 443 q 737 419 740 426 q 733 407 733 411 q 740 400 733 401 q 753 413 747 400 q 764 445 758 426 q 774 485 769 464 q 785 522 779 506 q 789 529 789 526 q 774 539 789 535 q 740 547 758 543 q 706 552 721 550 q 692 554 692 554 m 444 429 q 447 419 447 425 q 454 411 447 414 q 475 428 464 411 q 486 463 486 446 q 482 469 482 464 q 485 478 482 474 q 489 486 489 482 q 488 490 489 488 q 483 493 486 493 q 456 471 464 493 q 444 429 447 449 m 678 435 q 677 422 678 429 q 683 411 676 414 q 695 418 689 411 q 706 433 701 425 q 714 449 711 442 q 717 457 717 456 q 715 463 717 460 q 713 468 713 465 q 717 479 713 474 q 721 488 721 485 q 713 492 721 492 q 685 470 693 492 q 678 435 678 449 m 856 499 q 853 501 856 501 q 844 496 851 501 q 830 482 838 490 q 816 466 822 474 q 810 454 810 458 l 810 453 l 811 453 q 814 453 813 451 q 841 472 826 461 q 856 499 856 482 m 842 549 q 858 556 849 549 q 868 569 868 563 q 857 583 868 583 q 849 578 853 583 q 841 568 844 574 q 835 557 838 563 q 833 551 833 551 q 842 549 833 549 m 1268 390 q 1249 376 1253 383 q 1235 368 1246 368 q 1219 378 1228 368 q 1208 388 1211 388 q 1191 374 1204 388 q 1165 360 1178 360 q 1138 396 1138 360 q 1147 427 1138 413 q 1156 465 1156 442 q 1151 483 1156 472 q 1136 493 1146 493 q 1121 450 1128 471 q 1108 415 1114 432 q 1094 388 1101 397 q 1075 367 1088 375 q 1046 360 1063 358 q 1026 388 1026 360 q 1013 376 1019 388 q 994 365 1006 365 q 979 372 985 365 q 970 388 974 379 q 966 405 967 397 q 965 415 965 413 q 967 435 965 426 q 969 456 969 444 q 954 449 958 456 q 950 442 950 443 q 951 427 950 436 q 953 411 953 418 q 939 372 953 386 q 906 357 925 357 q 877 367 888 357 q 867 389 867 378 q 873 405 867 397 q 888 419 879 413 q 902 433 896 426 q 908 444 908 439 q 902 465 908 454 q 896 490 896 476 q 908 514 896 508 q 943 519 919 519 q 953 503 953 514 q 951 495 953 500 q 947 490 950 490 q 942 492 944 490 q 940 501 939 493 q 942 506 942 503 q 940 510 942 508 q 931 506 932 510 q 929 500 929 503 q 935 472 929 481 q 944 464 942 464 q 965 472 953 464 q 990 491 976 481 q 1017 510 1003 501 q 1043 519 1031 519 q 1067 497 1067 519 q 1063 483 1067 488 q 1060 475 1060 478 q 1073 469 1060 471 q 1086 458 1086 467 q 1082 449 1086 456 q 1074 433 1078 442 q 1065 417 1069 425 q 1061 408 1061 410 q 1063 402 1061 406 q 1071 399 1065 399 q 1083 409 1076 399 q 1097 434 1090 419 q 1108 466 1103 449 q 1113 499 1113 483 q 1108 506 1113 503 q 1099 513 1104 510 q 1089 519 1093 515 q 1085 531 1085 524 q 1094 551 1085 546 q 1115 557 1103 557 q 1136 540 1136 557 l 1136 533 q 1138 519 1136 522 q 1143 515 1139 515 q 1156 513 1147 514 q 1181 507 1165 513 q 1196 485 1196 500 q 1190 452 1196 467 q 1185 414 1185 438 q 1196 403 1185 403 q 1206 416 1203 403 q 1213 447 1208 429 q 1230 483 1218 465 q 1265 513 1242 501 q 1275 517 1269 515 q 1286 519 1281 519 q 1307 497 1307 519 q 1304 485 1307 492 q 1301 476 1301 479 q 1306 472 1301 474 q 1314 469 1310 471 q 1322 466 1318 468 q 1326 460 1326 464 q 1317 422 1326 442 q 1308 383 1308 403 q 1313 350 1308 360 q 1339 333 1317 340 q 1346 331 1346 333 q 1342 324 1346 326 q 1325 321 1338 321 q 1286 336 1301 321 q 1268 376 1271 351 l 1268 385 q 1265 390 1268 389 l 1268 390 m 1244 432 q 1246 421 1244 428 q 1253 411 1247 414 q 1265 418 1258 411 q 1276 434 1271 425 q 1283 451 1281 443 q 1286 458 1286 458 q 1284 463 1286 461 q 1282 468 1282 465 q 1286 477 1282 472 q 1290 486 1290 482 q 1279 492 1290 492 q 1265 485 1271 492 q 1254 469 1258 479 q 1248 450 1250 460 q 1244 432 1246 440 m 1003 429 q 1005 418 1006 425 q 1014 411 1004 411 q 1023 417 1018 411 q 1033 430 1028 422 q 1042 446 1039 438 q 1046 460 1046 454 q 1043 465 1046 463 q 1040 469 1040 467 q 1044 478 1040 474 q 1047 486 1047 482 q 1040 493 1047 493 q 1016 474 1025 493 q 1003 429 1007 456 m 915 406 q 911 419 915 419 q 892 406 906 419 q 879 386 879 393 q 894 376 879 376 q 915 406 915 376 m 1118 533 q 1113 540 1118 540 q 1104 533 1104 540 q 1113 525 1104 525 q 1116 528 1117 525 q 1118 533 1115 531 m 143 426 q 145 450 143 438 q 150 474 147 463 l 150 476 q 147 481 150 478 q 120 460 135 472 q 94 434 106 447 q 74 406 82 421 q 65 378 65 392 q 68 368 65 374 q 71 357 71 363 q 63 351 71 351 q 33 369 44 351 q 22 401 22 386 q 44 444 22 426 q 92 479 65 463 q 145 512 119 496 q 179 549 171 528 q 197 578 183 561 q 219 594 210 594 q 251 582 232 594 q 271 561 271 569 q 265 547 271 554 q 250 533 258 540 q 233 517 242 525 q 221 501 225 508 q 198 450 208 478 q 188 399 188 422 q 190 388 188 393 q 197 382 193 382 q 222 403 211 382 q 244 450 233 425 q 267 497 256 475 q 296 518 279 518 q 316 511 306 518 q 326 500 326 504 q 317 477 326 493 q 297 443 308 461 q 277 409 286 425 q 268 388 268 393 q 279 378 268 378 q 317 399 300 378 q 348 448 335 419 q 368 506 361 476 q 375 553 375 536 q 367 575 375 564 q 358 593 358 586 q 372 614 358 603 q 396 625 386 625 q 412 618 406 625 q 422 601 418 611 q 426 581 425 592 q 426 563 426 571 q 414 494 426 531 q 380 426 401 457 q 330 374 358 394 q 269 353 301 353 q 253 358 260 353 q 240 371 246 364 q 229 389 235 378 q 224 383 228 389 q 214 370 219 378 q 202 357 208 363 q 190 351 196 351 q 166 360 175 351 q 151 382 157 369 q 144 407 146 394 q 143 426 143 419 m 1419 439 q 1431 494 1421 465 q 1458 545 1440 522 q 1499 583 1475 568 q 1553 597 1524 597 q 1604 564 1604 597 q 1585 522 1604 540 q 1540 503 1565 503 q 1529 508 1535 503 q 1524 521 1524 514 q 1530 526 1524 522 q 1544 535 1536 529 q 1558 547 1551 540 q 1564 561 1564 553 q 1556 571 1564 571 q 1521 558 1536 571 q 1494 526 1506 544 q 1478 486 1483 507 q 1472 450 1472 465 q 1499 397 1472 397 q 1534 406 1515 397 q 1569 426 1553 414 q 1599 449 1586 438 q 1614 465 1611 460 q 1639 503 1621 486 q 1688 519 1657 519 q 1713 489 1713 514 q 1710 480 1713 485 q 1707 468 1707 475 q 1710 467 1708 467 q 1726 470 1717 467 q 1742 474 1735 474 q 1767 451 1767 474 q 1763 431 1767 443 q 1743 419 1758 419 q 1739 426 1739 419 q 1740 431 1739 429 q 1740 435 1740 432 q 1733 443 1740 443 q 1706 431 1717 443 q 1684 405 1694 419 q 1663 378 1674 390 q 1635 367 1651 367 q 1610 374 1622 367 q 1599 400 1599 381 l 1599 407 q 1594 411 1599 411 q 1580 402 1590 411 q 1555 381 1569 393 q 1524 360 1540 369 q 1493 351 1508 351 q 1435 378 1451 351 q 1419 439 1419 406 m 1635 429 q 1636 418 1635 426 q 1644 410 1638 410 q 1656 417 1651 410 q 1660 428 1660 424 q 1658 435 1660 431 q 1656 443 1656 440 q 1662 453 1656 449 q 1676 463 1668 458 q 1690 472 1683 467 q 1696 486 1696 478 q 1691 497 1696 494 q 1682 500 1686 500 q 1663 492 1671 500 q 1649 474 1656 485 q 1640 451 1643 464 q 1635 429 1636 439 m 1399 397 q 1389 368 1399 385 q 1364 351 1379 351 q 1350 359 1357 351 q 1343 381 1343 367 q 1355 411 1343 396 q 1382 426 1367 426 q 1399 403 1399 426 l 1399 397 z "},"1":{"ha":1810,"x_min":22,"x_max":1767,"o":"m 692 554 q 664 551 681 554 q 644 536 647 549 q 640 530 642 533 q 633 526 639 526 q 623 531 628 526 q 618 543 618 536 q 642 583 618 572 q 689 593 665 593 q 717 586 703 593 q 746 572 732 579 q 772 557 760 564 q 797 550 785 550 q 803 558 799 550 q 816 574 808 565 q 833 590 824 582 q 853 597 842 597 q 874 592 864 597 q 885 569 885 588 q 874 545 885 551 q 849 534 863 539 q 824 522 835 529 q 813 493 813 514 q 815 492 813 492 q 833 506 822 492 q 860 519 843 519 q 876 504 876 519 q 867 481 876 492 q 848 461 858 469 q 828 447 838 453 q 819 440 819 442 q 829 429 819 438 q 844 411 839 421 q 879 359 864 379 q 928 333 894 339 q 942 338 938 333 q 949 347 947 342 q 953 356 951 351 q 960 360 956 360 q 981 344 972 360 q 990 319 990 329 q 978 297 990 307 q 947 286 965 286 q 901 297 921 286 q 866 326 881 308 q 842 365 851 343 q 824 408 832 388 q 817 421 821 414 q 804 428 814 428 q 798 413 800 428 q 796 386 796 397 q 799 372 796 379 q 801 358 801 365 q 799 357 801 357 q 771 367 783 357 q 758 378 765 372 q 744 368 754 378 q 718 358 735 358 q 699 382 700 358 l 699 386 q 696 388 697 388 q 681 374 686 382 q 667 367 675 367 q 653 372 658 367 q 646 383 649 376 q 641 394 643 389 q 636 400 639 400 q 628 394 633 400 q 616 380 624 388 q 599 366 608 372 q 579 360 589 360 q 561 365 568 360 q 549 376 554 369 q 542 387 544 382 q 538 392 539 392 q 528 386 533 392 q 518 374 524 381 q 505 363 513 368 q 489 358 497 358 q 478 363 482 358 q 471 373 474 368 q 467 383 468 378 q 465 388 467 388 q 452 374 458 382 q 438 367 446 367 q 415 383 424 367 q 407 419 407 399 q 413 451 407 433 q 428 483 418 468 q 452 509 438 499 q 486 519 467 519 q 503 511 500 519 q 507 489 507 503 q 503 481 507 485 q 500 475 500 478 q 504 471 500 472 q 513 468 508 469 q 522 465 518 467 q 526 458 526 463 q 515 438 526 454 q 503 408 503 422 q 513 400 503 400 q 533 419 525 400 q 549 460 540 438 q 574 501 558 482 q 615 519 589 519 q 634 507 628 519 q 640 482 640 494 q 633 453 640 467 q 614 440 625 440 q 601 445 607 440 q 596 458 596 450 q 601 464 596 461 q 610 470 606 467 q 620 478 615 474 q 625 490 625 483 q 624 497 625 493 q 618 500 624 500 q 590 476 600 500 q 576 435 579 453 q 597 411 576 411 q 628 428 618 411 q 649 465 639 444 q 674 503 660 486 q 719 519 689 519 q 735 512 731 519 q 740 494 740 504 q 736 485 740 489 q 732 475 732 481 q 744 468 732 469 q 757 461 757 467 q 753 451 757 458 q 745 435 750 443 q 737 419 740 426 q 733 407 733 411 q 740 400 733 401 q 753 413 747 400 q 764 445 758 426 q 774 485 769 464 q 785 522 779 506 q 789 529 789 526 q 774 539 789 535 q 740 547 758 543 q 706 552 721 550 q 692 554 692 554 m 444 429 q 447 419 447 425 q 454 411 447 414 q 475 428 464 411 q 486 463 486 446 q 482 469 482 464 q 485 478 482 474 q 489 486 489 482 q 488 490 489 488 q 483 493 486 493 q 456 471 464 493 q 444 429 447 449 m 678 435 q 677 422 678 429 q 683 411 676 414 q 695 418 689 411 q 706 433 701 425 q 714 449 711 442 q 717 457 717 456 q 715 463 717 460 q 713 468 713 465 q 717 479 713 474 q 721 488 721 485 q 713 492 721 492 q 685 470 693 492 q 678 435 678 449 m 856 499 q 853 501 856 501 q 844 496 851 501 q 830 482 838 490 q 816 466 822 474 q 810 454 810 458 l 810 453 l 811 453 q 814 453 813 451 q 841 472 826 461 q 856 499 856 482 m 842 549 q 858 556 849 549 q 868 569 868 563 q 857 583 868 583 q 849 578 853 583 q 841 568 844 574 q 835 557 838 563 q 833 551 833 551 q 842 549 833 549 m 1268 390 q 1249 376 1253 383 q 1235 368 1246 368 q 1219 378 1228 368 q 1208 388 1211 388 q 1191 374 1204 388 q 1165 360 1178 360 q 1138 396 1138 360 q 1147 427 1138 413 q 1156 465 1156 442 q 1151 483 1156 472 q 1136 493 1146 493 q 1121 450 1128 471 q 1108 415 1114 432 q 1094 388 1101 397 q 1075 367 1088 375 q 1046 360 1063 358 q 1026 388 1026 360 q 1013 376 1019 388 q 994 365 1006 365 q 979 372 985 365 q 970 388 974 379 q 966 405 967 397 q 965 415 965 413 q 967 435 965 426 q 969 456 969 444 q 954 449 958 456 q 950 442 950 443 q 951 427 950 436 q 953 411 953 418 q 939 372 953 386 q 906 357 925 357 q 877 367 888 357 q 867 389 867 378 q 873 405 867 397 q 888 419 879 413 q 902 433 896 426 q 908 444 908 439 q 902 465 908 454 q 896 490 896 476 q 908 514 896 508 q 943 519 919 519 q 953 503 953 514 q 951 495 953 500 q 947 490 950 490 q 942 492 944 490 q 940 501 939 493 q 942 506 942 503 q 940 510 942 508 q 931 506 932 510 q 929 500 929 503 q 935 472 929 481 q 944 464 942 464 q 965 472 953 464 q 990 491 976 481 q 1017 510 1003 501 q 1043 519 1031 519 q 1067 497 1067 519 q 1063 483 1067 488 q 1060 475 1060 478 q 1073 469 1060 471 q 1086 458 1086 467 q 1082 449 1086 456 q 1074 433 1078 442 q 1065 417 1069 425 q 1061 408 1061 410 q 1063 402 1061 406 q 1071 399 1065 399 q 1083 409 1076 399 q 1097 434 1090 419 q 1108 466 1103 449 q 1113 499 1113 483 q 1108 506 1113 503 q 1099 513 1104 510 q 1089 519 1093 515 q 1085 531 1085 524 q 1094 551 1085 546 q 1115 557 1103 557 q 1136 540 1136 557 l 1136 533 q 1138 519 1136 522 q 1143 515 1139 515 q 1156 513 1147 514 q 1181 507 1165 513 q 1196 485 1196 500 q 1190 452 1196 467 q 1185 414 1185 438 q 1196 403 1185 403 q 1206 416 1203 403 q 1213 447 1208 429 q 1230 483 1218 465 q 1265 513 1242 501 q 1275 517 1269 515 q 1286 519 1281 519 q 1307 497 1307 519 q 1304 485 1307 492 q 1301 476 1301 479 q 1306 472 1301 474 q 1314 469 1310 471 q 1322 466 1318 468 q 1326 460 1326 464 q 1317 422 1326 442 q 1308 383 1308 403 q 1313 350 1308 360 q 1339 333 1317 340 q 1346 331 1346 333 q 1342 324 1346 326 q 1325 321 1338 321 q 1286 336 1301 321 q 1268 376 1271 351 l 1268 385 q 1265 390 1268 389 l 1268 390 m 1244 432 q 1246 421 1244 428 q 1253 411 1247 414 q 1265 418 1258 411 q 1276 434 1271 425 q 1283 451 1281 443 q 1286 458 1286 458 q 1284 463 1286 461 q 1282 468 1282 465 q 1286 477 1282 472 q 1290 486 1290 482 q 1279 492 1290 492 q 1265 485 1271 492 q 1254 469 1258 479 q 1248 450 1250 460 q 1244 432 1246 440 m 1003 429 q 1005 418 1006 425 q 1014 411 1004 411 q 1023 417 1018 411 q 1033 430 1028 422 q 1042 446 1039 438 q 1046 460 1046 454 q 1043 465 1046 463 q 1040 469 1040 467 q 1044 478 1040 474 q 1047 486 1047 482 q 1040 493 1047 493 q 1016 474 1025 493 q 1003 429 1007 456 m 915 406 q 911 419 915 419 q 892 406 906 419 q 879 386 879 393 q 894 376 879 376 q 915 406 915 376 m 1118 533 q 1113 540 1118 540 q 1104 533 1104 540 q 1113 525 1104 525 q 1116 528 1117 525 q 1118 533 1115 531 m 143 426 q 145 450 143 438 q 150 474 147 463 l 150 476 q 147 481 150 478 q 120 460 135 472 q 94 434 106 447 q 74 406 82 421 q 65 378 65 392 q 68 368 65 374 q 71 357 71 363 q 63 351 71 351 q 33 369 44 351 q 22 401 22 386 q 44 444 22 426 q 92 479 65 463 q 145 512 119 496 q 179 549 171 528 q 197 578 183 561 q 219 594 210 594 q 251 582 232 594 q 271 561 271 569 q 265 547 271 554 q 250 533 258 540 q 233 517 242 525 q 221 501 225 508 q 198 450 208 478 q 188 399 188 422 q 190 388 188 393 q 197 382 193 382 q 222 403 211 382 q 244 450 233 425 q 267 497 256 475 q 296 518 279 518 q 316 511 306 518 q 326 500 326 504 q 317 477 326 493 q 297 443 308 461 q 277 409 286 425 q 268 388 268 393 q 279 378 268 378 q 317 399 300 378 q 348 448 335 419 q 368 506 361 476 q 375 553 375 536 q 367 575 375 564 q 358 593 358 586 q 372 614 358 603 q 396 625 386 625 q 412 618 406 625 q 422 601 418 611 q 426 581 425 592 q 426 563 426 571 q 414 494 426 531 q 380 426 401 457 q 330 374 358 394 q 269 353 301 353 q 253 358 260 353 q 240 371 246 364 q 229 389 235 378 q 224 383 228 389 q 214 370 219 378 q 202 357 208 363 q 190 351 196 351 q 166 360 175 351 q 151 382 157 369 q 144 407 146 394 q 143 426 143 419 m 1419 439 q 1431 494 1421 465 q 1458 545 1440 522 q 1499 583 1475 568 q 1553 597 1524 597 q 1604 564 1604 597 q 1585 522 1604 540 q 1540 503 1565 503 q 1529 508 1535 503 q 1524 521 1524 514 q 1530 526 1524 522 q 1544 535 1536 529 q 1558 547 1551 540 q 1564 561 1564 553 q 1556 571 1564 571 q 1521 558 1536 571 q 1494 526 1506 544 q 1478 486 1483 507 q 1472 450 1472 465 q 1499 397 1472 397 q 1534 406 1515 397 q 1569 426 1553 414 q 1599 449 1586 438 q 1614 465 1611 460 q 1639 503 1621 486 q 1688 519 1657 519 q 1713 489 1713 514 q 1710 480 1713 485 q 1707 468 1707 475 q 1710 467 1708 467 q 1726 470 1717 467 q 1742 474 1735 474 q 1767 451 1767 474 q 1763 431 1767 443 q 1743 419 1758 419 q 1739 426 1739 419 q 1740 431 1739 429 q 1740 435 1740 432 q 1733 443 1740 443 q 1706 431 1717 443 q 1684 405 1694 419 q 1663 378 1674 390 q 1635 367 1651 367 q 1610 374 1622 367 q 1599 400 1599 381 l 1599 407 q 1594 411 1599 411 q 1580 402 1590 411 q 1555 381 1569 393 q 1524 360 1540 369 q 1493 351 1508 351 q 1435 378 1451 351 q 1419 439 1419 406 m 1635 429 q 1636 418 1635 426 q 1644 410 1638 410 q 1656 417 1651 410 q 1660 428 1660 424 q 1658 435 1660 431 q 1656 443 1656 440 q 1662 453 1656 449 q 1676 463 1668 458 q 1690 472 1683 467 q 1696 486 1696 478 q 1691 497 1696 494 q 1682 500 1686 500 q 1663 492 1671 500 q 1649 474 1656 485 q 1640 451 1643 464 q 1635 429 1636 439 m 1399 397 q 1389 368 1399 385 q 1364 351 1379 351 q 1350 359 1357 351 q 1343 381 1343 367 q 1355 411 1343 396 q 1382 426 1367 426 q 1399 403 1399 426 l 1399 397 z "},"2":{"ha":1810,"x_min":22,"x_max":1767,"o":"m 692 554 q 664 551 681 554 q 644 536 647 549 q 640 530 642 533 q 633 526 639 526 q 623 531 628 526 q 618 543 618 536 q 642 583 618 572 q 689 593 665 593 q 717 586 703 593 q 746 572 732 579 q 772 557 760 564 q 797 550 785 550 q 803 558 799 550 q 816 574 808 565 q 833 590 824 582 q 853 597 842 597 q 874 592 864 597 q 885 569 885 588 q 874 545 885 551 q 849 534 863 539 q 824 522 835 529 q 813 493 813 514 q 815 492 813 492 q 833 506 822 492 q 860 519 843 519 q 876 504 876 519 q 867 481 876 492 q 848 461 858 469 q 828 447 838 453 q 819 440 819 442 q 829 429 819 438 q 844 411 839 421 q 879 359 864 379 q 928 333 894 339 q 942 338 938 333 q 949 347 947 342 q 953 356 951 351 q 960 360 956 360 q 981 344 972 360 q 990 319 990 329 q 978 297 990 307 q 947 286 965 286 q 901 297 921 286 q 866 326 881 308 q 842 365 851 343 q 824 408 832 388 q 817 421 821 414 q 804 428 814 428 q 798 413 800 428 q 796 386 796 397 q 799 372 796 379 q 801 358 801 365 q 799 357 801 357 q 771 367 783 357 q 758 378 765 372 q 744 368 754 378 q 718 358 735 358 q 699 382 700 358 l 699 386 q 696 388 697 388 q 681 374 686 382 q 667 367 675 367 q 653 372 658 367 q 646 383 649 376 q 641 394 643 389 q 636 400 639 400 q 628 394 633 400 q 616 380 624 388 q 599 366 608 372 q 579 360 589 360 q 561 365 568 360 q 549 376 554 369 q 542 387 544 382 q 538 392 539 392 q 528 386 533 392 q 518 374 524 381 q 505 363 513 368 q 489 358 497 358 q 478 363 482 358 q 471 373 474 368 q 467 383 468 378 q 465 388 467 388 q 452 374 458 382 q 438 367 446 367 q 415 383 424 367 q 407 419 407 399 q 413 451 407 433 q 428 483 418 468 q 452 509 438 499 q 486 519 467 519 q 503 511 500 519 q 507 489 507 503 q 503 481 507 485 q 500 475 500 478 q 504 471 500 472 q 513 468 508 469 q 522 465 518 467 q 526 458 526 463 q 515 438 526 454 q 503 408 503 422 q 513 400 503 400 q 533 419 525 400 q 549 460 540 438 q 574 501 558 482 q 615 519 589 519 q 634 507 628 519 q 640 482 640 494 q 633 453 640 467 q 614 440 625 440 q 601 445 607 440 q 596 458 596 450 q 601 464 596 461 q 610 470 606 467 q 620 478 615 474 q 625 490 625 483 q 624 497 625 493 q 618 500 624 500 q 590 476 600 500 q 576 435 579 453 q 597 411 576 411 q 628 428 618 411 q 649 465 639 444 q 674 503 660 486 q 719 519 689 519 q 735 512 731 519 q 740 494 740 504 q 736 485 740 489 q 732 475 732 481 q 744 468 732 469 q 757 461 757 467 q 753 451 757 458 q 745 435 750 443 q 737 419 740 426 q 733 407 733 411 q 740 400 733 401 q 753 413 747 400 q 764 445 758 426 q 774 485 769 464 q 785 522 779 506 q 789 529 789 526 q 774 539 789 535 q 740 547 758 543 q 706 552 721 550 q 692 554 692 554 m 444 429 q 447 419 447 425 q 454 411 447 414 q 475 428 464 411 q 486 463 486 446 q 482 469 482 464 q 485 478 482 474 q 489 486 489 482 q 488 490 489 488 q 483 493 486 493 q 456 471 464 493 q 444 429 447 449 m 678 435 q 677 422 678 429 q 683 411 676 414 q 695 418 689 411 q 706 433 701 425 q 714 449 711 442 q 717 457 717 456 q 715 463 717 460 q 713 468 713 465 q 717 479 713 474 q 721 488 721 485 q 713 492 721 492 q 685 470 693 492 q 678 435 678 449 m 856 499 q 853 501 856 501 q 844 496 851 501 q 830 482 838 490 q 816 466 822 474 q 810 454 810 458 l 810 453 l 811 453 q 814 453 813 451 q 841 472 826 461 q 856 499 856 482 m 842 549 q 858 556 849 549 q 868 569 868 563 q 857 583 868 583 q 849 578 853 583 q 841 568 844 574 q 835 557 838 563 q 833 551 833 551 q 842 549 833 549 m 1268 390 q 1249 376 1253 383 q 1235 368 1246 368 q 1219 378 1228 368 q 1208 388 1211 388 q 1191 374 1204 388 q 1165 360 1178 360 q 1138 396 1138 360 q 1147 427 1138 413 q 1156 465 1156 442 q 1151 483 1156 472 q 1136 493 1146 493 q 1121 450 1128 471 q 1108 415 1114 432 q 1094 388 1101 397 q 1075 367 1088 375 q 1046 360 1063 358 q 1026 388 1026 360 q 1013 376 1019 388 q 994 365 1006 365 q 979 372 985 365 q 970 388 974 379 q 966 405 967 397 q 965 415 965 413 q 967 435 965 426 q 969 456 969 444 q 954 449 958 456 q 950 442 950 443 q 951 427 950 436 q 953 411 953 418 q 939 372 953 386 q 906 357 925 357 q 877 367 888 357 q 867 389 867 378 q 873 405 867 397 q 888 419 879 413 q 902 433 896 426 q 908 444 908 439 q 902 465 908 454 q 896 490 896 476 q 908 514 896 508 q 943 519 919 519 q 953 503 953 514 q 951 495 953 500 q 947 490 950 490 q 942 492 944 490 q 940 501 939 493 q 942 506 942 503 q 940 510 942 508 q 931 506 932 510 q 929 500 929 503 q 935 472 929 481 q 944 464 942 464 q 965 472 953 464 q 990 491 976 481 q 1017 510 1003 501 q 1043 519 1031 519 q 1067 497 1067 519 q 1063 483 1067 488 q 1060 475 1060 478 q 1073 469 1060 471 q 1086 458 1086 467 q 1082 449 1086 456 q 1074 433 1078 442 q 1065 417 1069 425 q 1061 408 1061 410 q 1063 402 1061 406 q 1071 399 1065 399 q 1083 409 1076 399 q 1097 434 1090 419 q 1108 466 1103 449 q 1113 499 1113 483 q 1108 506 1113 503 q 1099 513 1104 510 q 1089 519 1093 515 q 1085 531 1085 524 q 1094 551 1085 546 q 1115 557 1103 557 q 1136 540 1136 557 l 1136 533 q 1138 519 1136 522 q 1143 515 1139 515 q 1156 513 1147 514 q 1181 507 1165 513 q 1196 485 1196 500 q 1190 452 1196 467 q 1185 414 1185 438 q 1196 403 1185 403 q 1206 416 1203 403 q 1213 447 1208 429 q 1230 483 1218 465 q 1265 513 1242 501 q 1275 517 1269 515 q 1286 519 1281 519 q 1307 497 1307 519 q 1304 485 1307 492 q 1301 476 1301 479 q 1306 472 1301 474 q 1314 469 1310 471 q 1322 466 1318 468 q 1326 460 1326 464 q 1317 422 1326 442 q 1308 383 1308 403 q 1313 350 1308 360 q 1339 333 1317 340 q 1346 331 1346 333 q 1342 324 1346 326 q 1325 321 1338 321 q 1286 336 1301 321 q 1268 376 1271 351 l 1268 385 q 1265 390 1268 389 l 1268 390 m 1244 432 q 1246 421 1244 428 q 1253 411 1247 414 q 1265 418 1258 411 q 1276 434 1271 425 q 1283 451 1281 443 q 1286 458 1286 458 q 1284 463 1286 461 q 1282 468 1282 465 q 1286 477 1282 472 q 1290 486 1290 482 q 1279 492 1290 492 q 1265 485 1271 492 q 1254 469 1258 479 q 1248 450 1250 460 q 1244 432 1246 440 m 1003 429 q 1005 418 1006 425 q 1014 411 1004 411 q 1023 417 1018 411 q 1033 430 1028 422 q 1042 446 1039 438 q 1046 460 1046 454 q 1043 465 1046 463 q 1040 469 1040 467 q 1044 478 1040 474 q 1047 486 1047 482 q 1040 493 1047 493 q 1016 474 1025 493 q 1003 429 1007 456 m 915 406 q 911 419 915 419 q 892 406 906 419 q 879 386 879 393 q 894 376 879 376 q 915 406 915 376 m 1118 533 q 1113 540 1118 540 q 1104 533 1104 540 q 1113 525 1104 525 q 1116 528 1117 525 q 1118 533 1115 531 m 143 426 q 145 450 143 438 q 150 474 147 463 l 150 476 q 147 481 150 478 q 120 460 135 472 q 94 434 106 447 q 74 406 82 421 q 65 378 65 392 q 68 368 65 374 q 71 357 71 363 q 63 351 71 351 q 33 369 44 351 q 22 401 22 386 q 44 444 22 426 q 92 479 65 463 q 145 512 119 496 q 179 549 171 528 q 197 578 183 561 q 219 594 210 594 q 251 582 232 594 q 271 561 271 569 q 265 547 271 554 q 250 533 258 540 q 233 517 242 525 q 221 501 225 508 q 198 450 208 478 q 188 399 188 422 q 190 388 188 393 q 197 382 193 382 q 222 403 211 382 q 244 450 233 425 q 267 497 256 475 q 296 518 279 518 q 316 511 306 518 q 326 500 326 504 q 317 477 326 493 q 297 443 308 461 q 277 409 286 425 q 268 388 268 393 q 279 378 268 378 q 317 399 300 378 q 348 448 335 419 q 368 506 361 476 q 375 553 375 536 q 367 575 375 564 q 358 593 358 586 q 372 614 358 603 q 396 625 386 625 q 412 618 406 625 q 422 601 418 611 q 426 581 425 592 q 426 563 426 571 q 414 494 426 531 q 380 426 401 457 q 330 374 358 394 q 269 353 301 353 q 253 358 260 353 q 240 371 246 364 q 229 389 235 378 q 224 383 228 389 q 214 370 219 378 q 202 357 208 363 q 190 351 196 351 q 166 360 175 351 q 151 382 157 369 q 144 407 146 394 q 143 426 143 419 m 1419 439 q 1431 494 1421 465 q 1458 545 1440 522 q 1499 583 1475 568 q 1553 597 1524 597 q 1604 564 1604 597 q 1585 522 1604 540 q 1540 503 1565 503 q 1529 508 1535 503 q 1524 521 1524 514 q 1530 526 1524 522 q 1544 535 1536 529 q 1558 547 1551 540 q 1564 561 1564 553 q 1556 571 1564 571 q 1521 558 1536 571 q 1494 526 1506 544 q 1478 486 1483 507 q 1472 450 1472 465 q 1499 397 1472 397 q 1534 406 1515 397 q 1569 426 1553 414 q 1599 449 1586 438 q 1614 465 1611 460 q 1639 503 1621 486 q 1688 519 1657 519 q 1713 489 1713 514 q 1710 480 1713 485 q 1707 468 1707 475 q 1710 467 1708 467 q 1726 470 1717 467 q 1742 474 1735 474 q 1767 451 1767 474 q 1763 431 1767 443 q 1743 419 1758 419 q 1739 426 1739 419 q 1740 431 1739 429 q 1740 435 1740 432 q 1733 443 1740 443 q 1706 431 1717 443 q 1684 405 1694 419 q 1663 378 1674 390 q 1635 367 1651 367 q 1610 374 1622 367 q 1599 400 1599 381 l 1599 407 q 1594 411 1599 411 q 1580 402 1590 411 q 1555 381 1569 393 q 1524 360 1540 369 q 1493 351 1508 351 q 1435 378 1451 351 q 1419 439 1419 406 m 1635 429 q 1636 418 1635 426 q 1644 410 1638 410 q 1656 417 1651 410 q 1660 428 1660 424 q 1658 435 1660 431 q 1656 443 1656 440 q 1662 453 1656 449 q 1676 463 1668 458 q 1690 472 1683 467 q 1696 486 1696 478 q 1691 497 1696 494 q 1682 500 1686 500 q 1663 492 1671 500 q 1649 474 1656 485 q 1640 451 1643 464 q 1635 429 1636 439 m 1399 397 q 1389 368 1399 385 q 1364 351 1379 351 q 1350 359 1357 351 q 1343 381 1343 367 q 1355 411 1343 396 q 1382 426 1367 426 q 1399 403 1399 426 l 1399 397 z "},"3":{"ha":1810,"x_min":22,"x_max":1767,"o":"m 692 554 q 664 551 681 554 q 644 536 647 549 q 640 530 642 533 q 633 526 639 526 q 623 531 628 526 q 618 543 618 536 q 642 583 618 572 q 689 593 665 593 q 717 586 703 593 q 746 572 732 579 q 772 557 760 564 q 797 550 785 550 q 803 558 799 550 q 816 574 808 565 q 833 590 824 582 q 853 597 842 597 q 874 592 864 597 q 885 569 885 588 q 874 545 885 551 q 849 534 863 539 q 824 522 835 529 q 813 493 813 514 q 815 492 813 492 q 833 506 822 492 q 860 519 843 519 q 876 504 876 519 q 867 481 876 492 q 848 461 858 469 q 828 447 838 453 q 819 440 819 442 q 829 429 819 438 q 844 411 839 421 q 879 359 864 379 q 928 333 894 339 q 942 338 938 333 q 949 347 947 342 q 953 356 951 351 q 960 360 956 360 q 981 344 972 360 q 990 319 990 329 q 978 297 990 307 q 947 286 965 286 q 901 297 921 286 q 866 326 881 308 q 842 365 851 343 q 824 408 832 388 q 817 421 821 414 q 804 428 814 428 q 798 413 800 428 q 796 386 796 397 q 799 372 796 379 q 801 358 801 365 q 799 357 801 357 q 771 367 783 357 q 758 378 765 372 q 744 368 754 378 q 718 358 735 358 q 699 382 700 358 l 699 386 q 696 388 697 388 q 681 374 686 382 q 667 367 675 367 q 653 372 658 367 q 646 383 649 376 q 641 394 643 389 q 636 400 639 400 q 628 394 633 400 q 616 380 624 388 q 599 366 608 372 q 579 360 589 360 q 561 365 568 360 q 549 376 554 369 q 542 387 544 382 q 538 392 539 392 q 528 386 533 392 q 518 374 524 381 q 505 363 513 368 q 489 358 497 358 q 478 363 482 358 q 471 373 474 368 q 467 383 468 378 q 465 388 467 388 q 452 374 458 382 q 438 367 446 367 q 415 383 424 367 q 407 419 407 399 q 413 451 407 433 q 428 483 418 468 q 452 509 438 499 q 486 519 467 519 q 503 511 500 519 q 507 489 507 503 q 503 481 507 485 q 500 475 500 478 q 504 471 500 472 q 513 468 508 469 q 522 465 518 467 q 526 458 526 463 q 515 438 526 454 q 503 408 503 422 q 513 400 503 400 q 533 419 525 400 q 549 460 540 438 q 574 501 558 482 q 615 519 589 519 q 634 507 628 519 q 640 482 640 494 q 633 453 640 467 q 614 440 625 440 q 601 445 607 440 q 596 458 596 450 q 601 464 596 461 q 610 470 606 467 q 620 478 615 474 q 625 490 625 483 q 624 497 625 493 q 618 500 624 500 q 590 476 600 500 q 576 435 579 453 q 597 411 576 411 q 628 428 618 411 q 649 465 639 444 q 674 503 660 486 q 719 519 689 519 q 735 512 731 519 q 740 494 740 504 q 736 485 740 489 q 732 475 732 481 q 744 468 732 469 q 757 461 757 467 q 753 451 757 458 q 745 435 750 443 q 737 419 740 426 q 733 407 733 411 q 740 400 733 401 q 753 413 747 400 q 764 445 758 426 q 774 485 769 464 q 785 522 779 506 q 789 529 789 526 q 774 539 789 535 q 740 547 758 543 q 706 552 721 550 q 692 554 692 554 m 444 429 q 447 419 447 425 q 454 411 447 414 q 475 428 464 411 q 486 463 486 446 q 482 469 482 464 q 485 478 482 474 q 489 486 489 482 q 488 490 489 488 q 483 493 486 493 q 456 471 464 493 q 444 429 447 449 m 678 435 q 677 422 678 429 q 683 411 676 414 q 695 418 689 411 q 706 433 701 425 q 714 449 711 442 q 717 457 717 456 q 715 463 717 460 q 713 468 713 465 q 717 479 713 474 q 721 488 721 485 q 713 492 721 492 q 685 470 693 492 q 678 435 678 449 m 856 499 q 853 501 856 501 q 844 496 851 501 q 830 482 838 490 q 816 466 822 474 q 810 454 810 458 l 810 453 l 811 453 q 814 453 813 451 q 841 472 826 461 q 856 499 856 482 m 842 549 q 858 556 849 549 q 868 569 868 563 q 857 583 868 583 q 849 578 853 583 q 841 568 844 574 q 835 557 838 563 q 833 551 833 551 q 842 549 833 549 m 1268 390 q 1249 376 1253 383 q 1235 368 1246 368 q 1219 378 1228 368 q 1208 388 1211 388 q 1191 374 1204 388 q 1165 360 1178 360 q 1138 396 1138 360 q 1147 427 1138 413 q 1156 465 1156 442 q 1151 483 1156 472 q 1136 493 1146 493 q 1121 450 1128 471 q 1108 415 1114 432 q 1094 388 1101 397 q 1075 367 1088 375 q 1046 360 1063 358 q 1026 388 1026 360 q 1013 376 1019 388 q 994 365 1006 365 q 979 372 985 365 q 970 388 974 379 q 966 405 967 397 q 965 415 965 413 q 967 435 965 426 q 969 456 969 444 q 954 449 958 456 q 950 442 950 443 q 951 427 950 436 q 953 411 953 418 q 939 372 953 386 q 906 357 925 357 q 877 367 888 357 q 867 389 867 378 q 873 405 867 397 q 888 419 879 413 q 902 433 896 426 q 908 444 908 439 q 902 465 908 454 q 896 490 896 476 q 908 514 896 508 q 943 519 919 519 q 953 503 953 514 q 951 495 953 500 q 947 490 950 490 q 942 492 944 490 q 940 501 939 493 q 942 506 942 503 q 940 510 942 508 q 931 506 932 510 q 929 500 929 503 q 935 472 929 481 q 944 464 942 464 q 965 472 953 464 q 990 491 976 481 q 1017 510 1003 501 q 1043 519 1031 519 q 1067 497 1067 519 q 1063 483 1067 488 q 1060 475 1060 478 q 1073 469 1060 471 q 1086 458 1086 467 q 1082 449 1086 456 q 1074 433 1078 442 q 1065 417 1069 425 q 1061 408 1061 410 q 1063 402 1061 406 q 1071 399 1065 399 q 1083 409 1076 399 q 1097 434 1090 419 q 1108 466 1103 449 q 1113 499 1113 483 q 1108 506 1113 503 q 1099 513 1104 510 q 1089 519 1093 515 q 1085 531 1085 524 q 1094 551 1085 546 q 1115 557 1103 557 q 1136 540 1136 557 l 1136 533 q 1138 519 1136 522 q 1143 515 1139 515 q 1156 513 1147 514 q 1181 507 1165 513 q 1196 485 1196 500 q 1190 452 1196 467 q 1185 414 1185 438 q 1196 403 1185 403 q 1206 416 1203 403 q 1213 447 1208 429 q 1230 483 1218 465 q 1265 513 1242 501 q 1275 517 1269 515 q 1286 519 1281 519 q 1307 497 1307 519 q 1304 485 1307 492 q 1301 476 1301 479 q 1306 472 1301 474 q 1314 469 1310 471 q 1322 466 1318 468 q 1326 460 1326 464 q 1317 422 1326 442 q 1308 383 1308 403 q 1313 350 1308 360 q 1339 333 1317 340 q 1346 331 1346 333 q 1342 324 1346 326 q 1325 321 1338 321 q 1286 336 1301 321 q 1268 376 1271 351 l 1268 385 q 1265 390 1268 389 l 1268 390 m 1244 432 q 1246 421 1244 428 q 1253 411 1247 414 q 1265 418 1258 411 q 1276 434 1271 425 q 1283 451 1281 443 q 1286 458 1286 458 q 1284 463 1286 461 q 1282 468 1282 465 q 1286 477 1282 472 q 1290 486 1290 482 q 1279 492 1290 492 q 1265 485 1271 492 q 1254 469 1258 479 q 1248 450 1250 460 q 1244 432 1246 440 m 1003 429 q 1005 418 1006 425 q 1014 411 1004 411 q 1023 417 1018 411 q 1033 430 1028 422 q 1042 446 1039 438 q 1046 460 1046 454 q 1043 465 1046 463 q 1040 469 1040 467 q 1044 478 1040 474 q 1047 486 1047 482 q 1040 493 1047 493 q 1016 474 1025 493 q 1003 429 1007 456 m 915 406 q 911 419 915 419 q 892 406 906 419 q 879 386 879 393 q 894 376 879 376 q 915 406 915 376 m 1118 533 q 1113 540 1118 540 q 1104 533 1104 540 q 1113 525 1104 525 q 1116 528 1117 525 q 1118 533 1115 531 m 143 426 q 145 450 143 438 q 150 474 147 463 l 150 476 q 147 481 150 478 q 120 460 135 472 q 94 434 106 447 q 74 406 82 421 q 65 378 65 392 q 68 368 65 374 q 71 357 71 363 q 63 351 71 351 q 33 369 44 351 q 22 401 22 386 q 44 444 22 426 q 92 479 65 463 q 145 512 119 496 q 179 549 171 528 q 197 578 183 561 q 219 594 210 594 q 251 582 232 594 q 271 561 271 569 q 265 547 271 554 q 250 533 258 540 q 233 517 242 525 q 221 501 225 508 q 198 450 208 478 q 188 399 188 422 q 190 388 188 393 q 197 382 193 382 q 222 403 211 382 q 244 450 233 425 q 267 497 256 475 q 296 518 279 518 q 316 511 306 518 q 326 500 326 504 q 317 477 326 493 q 297 443 308 461 q 277 409 286 425 q 268 388 268 393 q 279 378 268 378 q 317 399 300 378 q 348 448 335 419 q 368 506 361 476 q 375 553 375 536 q 367 575 375 564 q 358 593 358 586 q 372 614 358 603 q 396 625 386 625 q 412 618 406 625 q 422 601 418 611 q 426 581 425 592 q 426 563 426 571 q 414 494 426 531 q 380 426 401 457 q 330 374 358 394 q 269 353 301 353 q 253 358 260 353 q 240 371 246 364 q 229 389 235 378 q 224 383 228 389 q 214 370 219 378 q 202 357 208 363 q 190 351 196 351 q 166 360 175 351 q 151 382 157 369 q 144 407 146 394 q 143 426 143 419 m 1419 439 q 1431 494 1421 465 q 1458 545 1440 522 q 1499 583 1475 568 q 1553 597 1524 597 q 1604 564 1604 597 q 1585 522 1604 540 q 1540 503 1565 503 q 1529 508 1535 503 q 1524 521 1524 514 q 1530 526 1524 522 q 1544 535 1536 529 q 1558 547 1551 540 q 1564 561 1564 553 q 1556 571 1564 571 q 1521 558 1536 571 q 1494 526 1506 544 q 1478 486 1483 507 q 1472 450 1472 465 q 1499 397 1472 397 q 1534 406 1515 397 q 1569 426 1553 414 q 1599 449 1586 438 q 1614 465 1611 460 q 1639 503 1621 486 q 1688 519 1657 519 q 1713 489 1713 514 q 1710 480 1713 485 q 1707 468 1707 475 q 1710 467 1708 467 q 1726 470 1717 467 q 1742 474 1735 474 q 1767 451 1767 474 q 1763 431 1767 443 q 1743 419 1758 419 q 1739 426 1739 419 q 1740 431 1739 429 q 1740 435 1740 432 q 1733 443 1740 443 q 1706 431 1717 443 q 1684 405 1694 419 q 1663 378 1674 390 q 1635 367 1651 367 q 1610 374 1622 367 q 1599 400 1599 381 l 1599 407 q 1594 411 1599 411 q 1580 402 1590 411 q 1555 381 1569 393 q 1524 360 1540 369 q 1493 351 1508 351 q 1435 378 1451 351 q 1419 439 1419 406 m 1635 429 q 1636 418 1635 426 q 1644 410 1638 410 q 1656 417 1651 410 q 1660 428 1660 424 q 1658 435 1660 431 q 1656 443 1656 440 q 1662 453 1656 449 q 1676 463 1668 458 q 1690 472 1683 467 q 1696 486 1696 478 q 1691 497 1696 494 q 1682 500 1686 500 q 1663 492 1671 500 q 1649 474 1656 485 q 1640 451 1643 464 q 1635 429 1636 439 m 1399 397 q 1389 368 1399 385 q 1364 351 1379 351 q 1350 359 1357 351 q 1343 381 1343 367 q 1355 411 1343 396 q 1382 426 1367 426 q 1399 403 1399 426 l 1399 397 z "},"4":{"ha":1810,"x_min":22,"x_max":1767,"o":"m 692 554 q 664 551 681 554 q 644 536 647 549 q 640 530 642 533 q 633 526 639 526 q 623 531 628 526 q 618 543 618 536 q 642 583 618 572 q 689 593 665 593 q 717 586 703 593 q 746 572 732 579 q 772 557 760 564 q 797 550 785 550 q 803 558 799 550 q 816 574 808 565 q 833 590 824 582 q 853 597 842 597 q 874 592 864 597 q 885 569 885 588 q 874 545 885 551 q 849 534 863 539 q 824 522 835 529 q 813 493 813 514 q 815 492 813 492 q 833 506 822 492 q 860 519 843 519 q 876 504 876 519 q 867 481 876 492 q 848 461 858 469 q 828 447 838 453 q 819 440 819 442 q 829 429 819 438 q 844 411 839 421 q 879 359 864 379 q 928 333 894 339 q 942 338 938 333 q 949 347 947 342 q 953 356 951 351 q 960 360 956 360 q 981 344 972 360 q 990 319 990 329 q 978 297 990 307 q 947 286 965 286 q 901 297 921 286 q 866 326 881 308 q 842 365 851 343 q 824 408 832 388 q 817 421 821 414 q 804 428 814 428 q 798 413 800 428 q 796 386 796 397 q 799 372 796 379 q 801 358 801 365 q 799 357 801 357 q 771 367 783 357 q 758 378 765 372 q 744 368 754 378 q 718 358 735 358 q 699 382 700 358 l 699 386 q 696 388 697 388 q 681 374 686 382 q 667 367 675 367 q 653 372 658 367 q 646 383 649 376 q 641 394 643 389 q 636 400 639 400 q 628 394 633 400 q 616 380 624 388 q 599 366 608 372 q 579 360 589 360 q 561 365 568 360 q 549 376 554 369 q 542 387 544 382 q 538 392 539 392 q 528 386 533 392 q 518 374 524 381 q 505 363 513 368 q 489 358 497 358 q 478 363 482 358 q 471 373 474 368 q 467 383 468 378 q 465 388 467 388 q 452 374 458 382 q 438 367 446 367 q 415 383 424 367 q 407 419 407 399 q 413 451 407 433 q 428 483 418 468 q 452 509 438 499 q 486 519 467 519 q 503 511 500 519 q 507 489 507 503 q 503 481 507 485 q 500 475 500 478 q 504 471 500 472 q 513 468 508 469 q 522 465 518 467 q 526 458 526 463 q 515 438 526 454 q 503 408 503 422 q 513 400 503 400 q 533 419 525 400 q 549 460 540 438 q 574 501 558 482 q 615 519 589 519 q 634 507 628 519 q 640 482 640 494 q 633 453 640 467 q 614 440 625 440 q 601 445 607 440 q 596 458 596 450 q 601 464 596 461 q 610 470 606 467 q 620 478 615 474 q 625 490 625 483 q 624 497 625 493 q 618 500 624 500 q 590 476 600 500 q 576 435 579 453 q 597 411 576 411 q 628 428 618 411 q 649 465 639 444 q 674 503 660 486 q 719 519 689 519 q 735 512 731 519 q 740 494 740 504 q 736 485 740 489 q 732 475 732 481 q 744 468 732 469 q 757 461 757 467 q 753 451 757 458 q 745 435 750 443 q 737 419 740 426 q 733 407 733 411 q 740 400 733 401 q 753 413 747 400 q 764 445 758 426 q 774 485 769 464 q 785 522 779 506 q 789 529 789 526 q 774 539 789 535 q 740 547 758 543 q 706 552 721 550 q 692 554 692 554 m 444 429 q 447 419 447 425 q 454 411 447 414 q 475 428 464 411 q 486 463 486 446 q 482 469 482 464 q 485 478 482 474 q 489 486 489 482 q 488 490 489 488 q 483 493 486 493 q 456 471 464 493 q 444 429 447 449 m 678 435 q 677 422 678 429 q 683 411 676 414 q 695 418 689 411 q 706 433 701 425 q 714 449 711 442 q 717 457 717 456 q 715 463 717 460 q 713 468 713 465 q 717 479 713 474 q 721 488 721 485 q 713 492 721 492 q 685 470 693 492 q 678 435 678 449 m 856 499 q 853 501 856 501 q 844 496 851 501 q 830 482 838 490 q 816 466 822 474 q 810 454 810 458 l 810 453 l 811 453 q 814 453 813 451 q 841 472 826 461 q 856 499 856 482 m 842 549 q 858 556 849 549 q 868 569 868 563 q 857 583 868 583 q 849 578 853 583 q 841 568 844 574 q 835 557 838 563 q 833 551 833 551 q 842 549 833 549 m 1268 390 q 1249 376 1253 383 q 1235 368 1246 368 q 1219 378 1228 368 q 1208 388 1211 388 q 1191 374 1204 388 q 1165 360 1178 360 q 1138 396 1138 360 q 1147 427 1138 413 q 1156 465 1156 442 q 1151 483 1156 472 q 1136 493 1146 493 q 1121 450 1128 471 q 1108 415 1114 432 q 1094 388 1101 397 q 1075 367 1088 375 q 1046 360 1063 358 q 1026 388 1026 360 q 1013 376 1019 388 q 994 365 1006 365 q 979 372 985 365 q 970 388 974 379 q 966 405 967 397 q 965 415 965 413 q 967 435 965 426 q 969 456 969 444 q 954 449 958 456 q 950 442 950 443 q 951 427 950 436 q 953 411 953 418 q 939 372 953 386 q 906 357 925 357 q 877 367 888 357 q 867 389 867 378 q 873 405 867 397 q 888 419 879 413 q 902 433 896 426 q 908 444 908 439 q 902 465 908 454 q 896 490 896 476 q 908 514 896 508 q 943 519 919 519 q 953 503 953 514 q 951 495 953 500 q 947 490 950 490 q 942 492 944 490 q 940 501 939 493 q 942 506 942 503 q 940 510 942 508 q 931 506 932 510 q 929 500 929 503 q 935 472 929 481 q 944 464 942 464 q 965 472 953 464 q 990 491 976 481 q 1017 510 1003 501 q 1043 519 1031 519 q 1067 497 1067 519 q 1063 483 1067 488 q 1060 475 1060 478 q 1073 469 1060 471 q 1086 458 1086 467 q 1082 449 1086 456 q 1074 433 1078 442 q 1065 417 1069 425 q 1061 408 1061 410 q 1063 402 1061 406 q 1071 399 1065 399 q 1083 409 1076 399 q 1097 434 1090 419 q 1108 466 1103 449 q 1113 499 1113 483 q 1108 506 1113 503 q 1099 513 1104 510 q 1089 519 1093 515 q 1085 531 1085 524 q 1094 551 1085 546 q 1115 557 1103 557 q 1136 540 1136 557 l 1136 533 q 1138 519 1136 522 q 1143 515 1139 515 q 1156 513 1147 514 q 1181 507 1165 513 q 1196 485 1196 500 q 1190 452 1196 467 q 1185 414 1185 438 q 1196 403 1185 403 q 1206 416 1203 403 q 1213 447 1208 429 q 1230 483 1218 465 q 1265 513 1242 501 q 1275 517 1269 515 q 1286 519 1281 519 q 1307 497 1307 519 q 1304 485 1307 492 q 1301 476 1301 479 q 1306 472 1301 474 q 1314 469 1310 471 q 1322 466 1318 468 q 1326 460 1326 464 q 1317 422 1326 442 q 1308 383 1308 403 q 1313 350 1308 360 q 1339 333 1317 340 q 1346 331 1346 333 q 1342 324 1346 326 q 1325 321 1338 321 q 1286 336 1301 321 q 1268 376 1271 351 l 1268 385 q 1265 390 1268 389 l 1268 390 m 1244 432 q 1246 421 1244 428 q 1253 411 1247 414 q 1265 418 1258 411 q 1276 434 1271 425 q 1283 451 1281 443 q 1286 458 1286 458 q 1284 463 1286 461 q 1282 468 1282 465 q 1286 477 1282 472 q 1290 486 1290 482 q 1279 492 1290 492 q 1265 485 1271 492 q 1254 469 1258 479 q 1248 450 1250 460 q 1244 432 1246 440 m 1003 429 q 1005 418 1006 425 q 1014 411 1004 411 q 1023 417 1018 411 q 1033 430 1028 422 q 1042 446 1039 438 q 1046 460 1046 454 q 1043 465 1046 463 q 1040 469 1040 467 q 1044 478 1040 474 q 1047 486 1047 482 q 1040 493 1047 493 q 1016 474 1025 493 q 1003 429 1007 456 m 915 406 q 911 419 915 419 q 892 406 906 419 q 879 386 879 393 q 894 376 879 376 q 915 406 915 376 m 1118 533 q 1113 540 1118 540 q 1104 533 1104 540 q 1113 525 1104 525 q 1116 528 1117 525 q 1118 533 1115 531 m 143 426 q 145 450 143 438 q 150 474 147 463 l 150 476 q 147 481 150 478 q 120 460 135 472 q 94 434 106 447 q 74 406 82 421 q 65 378 65 392 q 68 368 65 374 q 71 357 71 363 q 63 351 71 351 q 33 369 44 351 q 22 401 22 386 q 44 444 22 426 q 92 479 65 463 q 145 512 119 496 q 179 549 171 528 q 197 578 183 561 q 219 594 210 594 q 251 582 232 594 q 271 561 271 569 q 265 547 271 554 q 250 533 258 540 q 233 517 242 525 q 221 501 225 508 q 198 450 208 478 q 188 399 188 422 q 190 388 188 393 q 197 382 193 382 q 222 403 211 382 q 244 450 233 425 q 267 497 256 475 q 296 518 279 518 q 316 511 306 518 q 326 500 326 504 q 317 477 326 493 q 297 443 308 461 q 277 409 286 425 q 268 388 268 393 q 279 378 268 378 q 317 399 300 378 q 348 448 335 419 q 368 506 361 476 q 375 553 375 536 q 367 575 375 564 q 358 593 358 586 q 372 614 358 603 q 396 625 386 625 q 412 618 406 625 q 422 601 418 611 q 426 581 425 592 q 426 563 426 571 q 414 494 426 531 q 380 426 401 457 q 330 374 358 394 q 269 353 301 353 q 253 358 260 353 q 240 371 246 364 q 229 389 235 378 q 224 383 228 389 q 214 370 219 378 q 202 357 208 363 q 190 351 196 351 q 166 360 175 351 q 151 382 157 369 q 144 407 146 394 q 143 426 143 419 m 1419 439 q 1431 494 1421 465 q 1458 545 1440 522 q 1499 583 1475 568 q 1553 597 1524 597 q 1604 564 1604 597 q 1585 522 1604 540 q 1540 503 1565 503 q 1529 508 1535 503 q 1524 521 1524 514 q 1530 526 1524 522 q 1544 535 1536 529 q 1558 547 1551 540 q 1564 561 1564 553 q 1556 571 1564 571 q 1521 558 1536 571 q 1494 526 1506 544 q 1478 486 1483 507 q 1472 450 1472 465 q 1499 397 1472 397 q 1534 406 1515 397 q 1569 426 1553 414 q 1599 449 1586 438 q 1614 465 1611 460 q 1639 503 1621 486 q 1688 519 1657 519 q 1713 489 1713 514 q 1710 480 1713 485 q 1707 468 1707 475 q 1710 467 1708 467 q 1726 470 1717 467 q 1742 474 1735 474 q 1767 451 1767 474 q 1763 431 1767 443 q 1743 419 1758 419 q 1739 426 1739 419 q 1740 431 1739 429 q 1740 435 1740 432 q 1733 443 1740 443 q 1706 431 1717 443 q 1684 405 1694 419 q 1663 378 1674 390 q 1635 367 1651 367 q 1610 374 1622 367 q 1599 400 1599 381 l 1599 407 q 1594 411 1599 411 q 1580 402 1590 411 q 1555 381 1569 393 q 1524 360 1540 369 q 1493 351 1508 351 q 1435 378 1451 351 q 1419 439 1419 406 m 1635 429 q 1636 418 1635 426 q 1644 410 1638 410 q 1656 417 1651 410 q 1660 428 1660 424 q 1658 435 1660 431 q 1656 443 1656 440 q 1662 453 1656 449 q 1676 463 1668 458 q 1690 472 1683 467 q 1696 486 1696 478 q 1691 497 1696 494 q 1682 500 1686 500 q 1663 492 1671 500 q 1649 474 1656 485 q 1640 451 1643 464 q 1635 429 1636 439 m 1399 397 q 1389 368 1399 385 q 1364 351 1379 351 q 1350 359 1357 351 q 1343 381 1343 367 q 1355 411 1343 396 q 1382 426 1367 426 q 1399 403 1399 426 l 1399 397 z "},"5":{"ha":1810,"x_min":22,"x_max":1767,"o":"m 692 554 q 664 551 681 554 q 644 536 647 549 q 640 530 642 533 q 633 526 639 526 q 623 531 628 526 q 618 543 618 536 q 642 583 618 572 q 689 593 665 593 q 717 586 703 593 q 746 572 732 579 q 772 557 760 564 q 797 550 785 550 q 803 558 799 550 q 816 574 808 565 q 833 590 824 582 q 853 597 842 597 q 874 592 864 597 q 885 569 885 588 q 874 545 885 551 q 849 534 863 539 q 824 522 835 529 q 813 493 813 514 q 815 492 813 492 q 833 506 822 492 q 860 519 843 519 q 876 504 876 519 q 867 481 876 492 q 848 461 858 469 q 828 447 838 453 q 819 440 819 442 q 829 429 819 438 q 844 411 839 421 q 879 359 864 379 q 928 333 894 339 q 942 338 938 333 q 949 347 947 342 q 953 356 951 351 q 960 360 956 360 q 981 344 972 360 q 990 319 990 329 q 978 297 990 307 q 947 286 965 286 q 901 297 921 286 q 866 326 881 308 q 842 365 851 343 q 824 408 832 388 q 817 421 821 414 q 804 428 814 428 q 798 413 800 428 q 796 386 796 397 q 799 372 796 379 q 801 358 801 365 q 799 357 801 357 q 771 367 783 357 q 758 378 765 372 q 744 368 754 378 q 718 358 735 358 q 699 382 700 358 l 699 386 q 696 388 697 388 q 681 374 686 382 q 667 367 675 367 q 653 372 658 367 q 646 383 649 376 q 641 394 643 389 q 636 400 639 400 q 628 394 633 400 q 616 380 624 388 q 599 366 608 372 q 579 360 589 360 q 561 365 568 360 q 549 376 554 369 q 542 387 544 382 q 538 392 539 392 q 528 386 533 392 q 518 374 524 381 q 505 363 513 368 q 489 358 497 358 q 478 363 482 358 q 471 373 474 368 q 467 383 468 378 q 465 388 467 388 q 452 374 458 382 q 438 367 446 367 q 415 383 424 367 q 407 419 407 399 q 413 451 407 433 q 428 483 418 468 q 452 509 438 499 q 486 519 467 519 q 503 511 500 519 q 507 489 507 503 q 503 481 507 485 q 500 475 500 478 q 504 471 500 472 q 513 468 508 469 q 522 465 518 467 q 526 458 526 463 q 515 438 526 454 q 503 408 503 422 q 513 400 503 400 q 533 419 525 400 q 549 460 540 438 q 574 501 558 482 q 615 519 589 519 q 634 507 628 519 q 640 482 640 494 q 633 453 640 467 q 614 440 625 440 q 601 445 607 440 q 596 458 596 450 q 601 464 596 461 q 610 470 606 467 q 620 478 615 474 q 625 490 625 483 q 624 497 625 493 q 618 500 624 500 q 590 476 600 500 q 576 435 579 453 q 597 411 576 411 q 628 428 618 411 q 649 465 639 444 q 674 503 660 486 q 719 519 689 519 q 735 512 731 519 q 740 494 740 504 q 736 485 740 489 q 732 475 732 481 q 744 468 732 469 q 757 461 757 467 q 753 451 757 458 q 745 435 750 443 q 737 419 740 426 q 733 407 733 411 q 740 400 733 401 q 753 413 747 400 q 764 445 758 426 q 774 485 769 464 q 785 522 779 506 q 789 529 789 526 q 774 539 789 535 q 740 547 758 543 q 706 552 721 550 q 692 554 692 554 m 444 429 q 447 419 447 425 q 454 411 447 414 q 475 428 464 411 q 486 463 486 446 q 482 469 482 464 q 485 478 482 474 q 489 486 489 482 q 488 490 489 488 q 483 493 486 493 q 456 471 464 493 q 444 429 447 449 m 678 435 q 677 422 678 429 q 683 411 676 414 q 695 418 689 411 q 706 433 701 425 q 714 449 711 442 q 717 457 717 456 q 715 463 717 460 q 713 468 713 465 q 717 479 713 474 q 721 488 721 485 q 713 492 721 492 q 685 470 693 492 q 678 435 678 449 m 856 499 q 853 501 856 501 q 844 496 851 501 q 830 482 838 490 q 816 466 822 474 q 810 454 810 458 l 810 453 l 811 453 q 814 453 813 451 q 841 472 826 461 q 856 499 856 482 m 842 549 q 858 556 849 549 q 868 569 868 563 q 857 583 868 583 q 849 578 853 583 q 841 568 844 574 q 835 557 838 563 q 833 551 833 551 q 842 549 833 549 m 1268 390 q 1249 376 1253 383 q 1235 368 1246 368 q 1219 378 1228 368 q 1208 388 1211 388 q 1191 374 1204 388 q 1165 360 1178 360 q 1138 396 1138 360 q 1147 427 1138 413 q 1156 465 1156 442 q 1151 483 1156 472 q 1136 493 1146 493 q 1121 450 1128 471 q 1108 415 1114 432 q 1094 388 1101 397 q 1075 367 1088 375 q 1046 360 1063 358 q 1026 388 1026 360 q 1013 376 1019 388 q 994 365 1006 365 q 979 372 985 365 q 970 388 974 379 q 966 405 967 397 q 965 415 965 413 q 967 435 965 426 q 969 456 969 444 q 954 449 958 456 q 950 442 950 443 q 951 427 950 436 q 953 411 953 418 q 939 372 953 386 q 906 357 925 357 q 877 367 888 357 q 867 389 867 378 q 873 405 867 397 q 888 419 879 413 q 902 433 896 426 q 908 444 908 439 q 902 465 908 454 q 896 490 896 476 q 908 514 896 508 q 943 519 919 519 q 953 503 953 514 q 951 495 953 500 q 947 490 950 490 q 942 492 944 490 q 940 501 939 493 q 942 506 942 503 q 940 510 942 508 q 931 506 932 510 q 929 500 929 503 q 935 472 929 481 q 944 464 942 464 q 965 472 953 464 q 990 491 976 481 q 1017 510 1003 501 q 1043 519 1031 519 q 1067 497 1067 519 q 1063 483 1067 488 q 1060 475 1060 478 q 1073 469 1060 471 q 1086 458 1086 467 q 1082 449 1086 456 q 1074 433 1078 442 q 1065 417 1069 425 q 1061 408 1061 410 q 1063 402 1061 406 q 1071 399 1065 399 q 1083 409 1076 399 q 1097 434 1090 419 q 1108 466 1103 449 q 1113 499 1113 483 q 1108 506 1113 503 q 1099 513 1104 510 q 1089 519 1093 515 q 1085 531 1085 524 q 1094 551 1085 546 q 1115 557 1103 557 q 1136 540 1136 557 l 1136 533 q 1138 519 1136 522 q 1143 515 1139 515 q 1156 513 1147 514 q 1181 507 1165 513 q 1196 485 1196 500 q 1190 452 1196 467 q 1185 414 1185 438 q 1196 403 1185 403 q 1206 416 1203 403 q 1213 447 1208 429 q 1230 483 1218 465 q 1265 513 1242 501 q 1275 517 1269 515 q 1286 519 1281 519 q 1307 497 1307 519 q 1304 485 1307 492 q 1301 476 1301 479 q 1306 472 1301 474 q 1314 469 1310 471 q 1322 466 1318 468 q 1326 460 1326 464 q 1317 422 1326 442 q 1308 383 1308 403 q 1313 350 1308 360 q 1339 333 1317 340 q 1346 331 1346 333 q 1342 324 1346 326 q 1325 321 1338 321 q 1286 336 1301 321 q 1268 376 1271 351 l 1268 385 q 1265 390 1268 389 l 1268 390 m 1244 432 q 1246 421 1244 428 q 1253 411 1247 414 q 1265 418 1258 411 q 1276 434 1271 425 q 1283 451 1281 443 q 1286 458 1286 458 q 1284 463 1286 461 q 1282 468 1282 465 q 1286 477 1282 472 q 1290 486 1290 482 q 1279 492 1290 492 q 1265 485 1271 492 q 1254 469 1258 479 q 1248 450 1250 460 q 1244 432 1246 440 m 1003 429 q 1005 418 1006 425 q 1014 411 1004 411 q 1023 417 1018 411 q 1033 430 1028 422 q 1042 446 1039 438 q 1046 460 1046 454 q 1043 465 1046 463 q 1040 469 1040 467 q 1044 478 1040 474 q 1047 486 1047 482 q 1040 493 1047 493 q 1016 474 1025 493 q 1003 429 1007 456 m 915 406 q 911 419 915 419 q 892 406 906 419 q 879 386 879 393 q 894 376 879 376 q 915 406 915 376 m 1118 533 q 1113 540 1118 540 q 1104 533 1104 540 q 1113 525 1104 525 q 1116 528 1117 525 q 1118 533 1115 531 m 143 426 q 145 450 143 438 q 150 474 147 463 l 150 476 q 147 481 150 478 q 120 460 135 472 q 94 434 106 447 q 74 406 82 421 q 65 378 65 392 q 68 368 65 374 q 71 357 71 363 q 63 351 71 351 q 33 369 44 351 q 22 401 22 386 q 44 444 22 426 q 92 479 65 463 q 145 512 119 496 q 179 549 171 528 q 197 578 183 561 q 219 594 210 594 q 251 582 232 594 q 271 561 271 569 q 265 547 271 554 q 250 533 258 540 q 233 517 242 525 q 221 501 225 508 q 198 450 208 478 q 188 399 188 422 q 190 388 188 393 q 197 382 193 382 q 222 403 211 382 q 244 450 233 425 q 267 497 256 475 q 296 518 279 518 q 316 511 306 518 q 326 500 326 504 q 317 477 326 493 q 297 443 308 461 q 277 409 286 425 q 268 388 268 393 q 279 378 268 378 q 317 399 300 378 q 348 448 335 419 q 368 506 361 476 q 375 553 375 536 q 367 575 375 564 q 358 593 358 586 q 372 614 358 603 q 396 625 386 625 q 412 618 406 625 q 422 601 418 611 q 426 581 425 592 q 426 563 426 571 q 414 494 426 531 q 380 426 401 457 q 330 374 358 394 q 269 353 301 353 q 253 358 260 353 q 240 371 246 364 q 229 389 235 378 q 224 383 228 389 q 214 370 219 378 q 202 357 208 363 q 190 351 196 351 q 166 360 175 351 q 151 382 157 369 q 144 407 146 394 q 143 426 143 419 m 1419 439 q 1431 494 1421 465 q 1458 545 1440 522 q 1499 583 1475 568 q 1553 597 1524 597 q 1604 564 1604 597 q 1585 522 1604 540 q 1540 503 1565 503 q 1529 508 1535 503 q 1524 521 1524 514 q 1530 526 1524 522 q 1544 535 1536 529 q 1558 547 1551 540 q 1564 561 1564 553 q 1556 571 1564 571 q 1521 558 1536 571 q 1494 526 1506 544 q 1478 486 1483 507 q 1472 450 1472 465 q 1499 397 1472 397 q 1534 406 1515 397 q 1569 426 1553 414 q 1599 449 1586 438 q 1614 465 1611 460 q 1639 503 1621 486 q 1688 519 1657 519 q 1713 489 1713 514 q 1710 480 1713 485 q 1707 468 1707 475 q 1710 467 1708 467 q 1726 470 1717 467 q 1742 474 1735 474 q 1767 451 1767 474 q 1763 431 1767 443 q 1743 419 1758 419 q 1739 426 1739 419 q 1740 431 1739 429 q 1740 435 1740 432 q 1733 443 1740 443 q 1706 431 1717 443 q 1684 405 1694 419 q 1663 378 1674 390 q 1635 367 1651 367 q 1610 374 1622 367 q 1599 400 1599 381 l 1599 407 q 1594 411 1599 411 q 1580 402 1590 411 q 1555 381 1569 393 q 1524 360 1540 369 q 1493 351 1508 351 q 1435 378 1451 351 q 1419 439 1419 406 m 1635 429 q 1636 418 1635 426 q 1644 410 1638 410 q 1656 417 1651 410 q 1660 428 1660 424 q 1658 435 1660 431 q 1656 443 1656 440 q 1662 453 1656 449 q 1676 463 1668 458 q 1690 472 1683 467 q 1696 486 1696 478 q 1691 497 1696 494 q 1682 500 1686 500 q 1663 492 1671 500 q 1649 474 1656 485 q 1640 451 1643 464 q 1635 429 1636 439 m 1399 397 q 1389 368 1399 385 q 1364 351 1379 351 q 1350 359 1357 351 q 1343 381 1343 367 q 1355 411 1343 396 q 1382 426 1367 426 q 1399 403 1399 426 l 1399 397 z "},"6":{"ha":1810,"x_min":22,"x_max":1767,"o":"m 692 554 q 664 551 681 554 q 644 536 647 549 q 640 530 642 533 q 633 526 639 526 q 623 531 628 526 q 618 543 618 536 q 642 583 618 572 q 689 593 665 593 q 717 586 703 593 q 746 572 732 579 q 772 557 760 564 q 797 550 785 550 q 803 558 799 550 q 816 574 808 565 q 833 590 824 582 q 853 597 842 597 q 874 592 864 597 q 885 569 885 588 q 874 545 885 551 q 849 534 863 539 q 824 522 835 529 q 813 493 813 514 q 815 492 813 492 q 833 506 822 492 q 860 519 843 519 q 876 504 876 519 q 867 481 876 492 q 848 461 858 469 q 828 447 838 453 q 819 440 819 442 q 829 429 819 438 q 844 411 839 421 q 879 359 864 379 q 928 333 894 339 q 942 338 938 333 q 949 347 947 342 q 953 356 951 351 q 960 360 956 360 q 981 344 972 360 q 990 319 990 329 q 978 297 990 307 q 947 286 965 286 q 901 297 921 286 q 866 326 881 308 q 842 365 851 343 q 824 408 832 388 q 817 421 821 414 q 804 428 814 428 q 798 413 800 428 q 796 386 796 397 q 799 372 796 379 q 801 358 801 365 q 799 357 801 357 q 771 367 783 357 q 758 378 765 372 q 744 368 754 378 q 718 358 735 358 q 699 382 700 358 l 699 386 q 696 388 697 388 q 681 374 686 382 q 667 367 675 367 q 653 372 658 367 q 646 383 649 376 q 641 394 643 389 q 636 400 639 400 q 628 394 633 400 q 616 380 624 388 q 599 366 608 372 q 579 360 589 360 q 561 365 568 360 q 549 376 554 369 q 542 387 544 382 q 538 392 539 392 q 528 386 533 392 q 518 374 524 381 q 505 363 513 368 q 489 358 497 358 q 478 363 482 358 q 471 373 474 368 q 467 383 468 378 q 465 388 467 388 q 452 374 458 382 q 438 367 446 367 q 415 383 424 367 q 407 419 407 399 q 413 451 407 433 q 428 483 418 468 q 452 509 438 499 q 486 519 467 519 q 503 511 500 519 q 507 489 507 503 q 503 481 507 485 q 500 475 500 478 q 504 471 500 472 q 513 468 508 469 q 522 465 518 467 q 526 458 526 463 q 515 438 526 454 q 503 408 503 422 q 513 400 503 400 q 533 419 525 400 q 549 460 540 438 q 574 501 558 482 q 615 519 589 519 q 634 507 628 519 q 640 482 640 494 q 633 453 640 467 q 614 440 625 440 q 601 445 607 440 q 596 458 596 450 q 601 464 596 461 q 610 470 606 467 q 620 478 615 474 q 625 490 625 483 q 624 497 625 493 q 618 500 624 500 q 590 476 600 500 q 576 435 579 453 q 597 411 576 411 q 628 428 618 411 q 649 465 639 444 q 674 503 660 486 q 719 519 689 519 q 735 512 731 519 q 740 494 740 504 q 736 485 740 489 q 732 475 732 481 q 744 468 732 469 q 757 461 757 467 q 753 451 757 458 q 745 435 750 443 q 737 419 740 426 q 733 407 733 411 q 740 400 733 401 q 753 413 747 400 q 764 445 758 426 q 774 485 769 464 q 785 522 779 506 q 789 529 789 526 q 774 539 789 535 q 740 547 758 543 q 706 552 721 550 q 692 554 692 554 m 444 429 q 447 419 447 425 q 454 411 447 414 q 475 428 464 411 q 486 463 486 446 q 482 469 482 464 q 485 478 482 474 q 489 486 489 482 q 488 490 489 488 q 483 493 486 493 q 456 471 464 493 q 444 429 447 449 m 678 435 q 677 422 678 429 q 683 411 676 414 q 695 418 689 411 q 706 433 701 425 q 714 449 711 442 q 717 457 717 456 q 715 463 717 460 q 713 468 713 465 q 717 479 713 474 q 721 488 721 485 q 713 492 721 492 q 685 470 693 492 q 678 435 678 449 m 856 499 q 853 501 856 501 q 844 496 851 501 q 830 482 838 490 q 816 466 822 474 q 810 454 810 458 l 810 453 l 811 453 q 814 453 813 451 q 841 472 826 461 q 856 499 856 482 m 842 549 q 858 556 849 549 q 868 569 868 563 q 857 583 868 583 q 849 578 853 583 q 841 568 844 574 q 835 557 838 563 q 833 551 833 551 q 842 549 833 549 m 1268 390 q 1249 376 1253 383 q 1235 368 1246 368 q 1219 378 1228 368 q 1208 388 1211 388 q 1191 374 1204 388 q 1165 360 1178 360 q 1138 396 1138 360 q 1147 427 1138 413 q 1156 465 1156 442 q 1151 483 1156 472 q 1136 493 1146 493 q 1121 450 1128 471 q 1108 415 1114 432 q 1094 388 1101 397 q 1075 367 1088 375 q 1046 360 1063 358 q 1026 388 1026 360 q 1013 376 1019 388 q 994 365 1006 365 q 979 372 985 365 q 970 388 974 379 q 966 405 967 397 q 965 415 965 413 q 967 435 965 426 q 969 456 969 444 q 954 449 958 456 q 950 442 950 443 q 951 427 950 436 q 953 411 953 418 q 939 372 953 386 q 906 357 925 357 q 877 367 888 357 q 867 389 867 378 q 873 405 867 397 q 888 419 879 413 q 902 433 896 426 q 908 444 908 439 q 902 465 908 454 q 896 490 896 476 q 908 514 896 508 q 943 519 919 519 q 953 503 953 514 q 951 495 953 500 q 947 490 950 490 q 942 492 944 490 q 940 501 939 493 q 942 506 942 503 q 940 510 942 508 q 931 506 932 510 q 929 500 929 503 q 935 472 929 481 q 944 464 942 464 q 965 472 953 464 q 990 491 976 481 q 1017 510 1003 501 q 1043 519 1031 519 q 1067 497 1067 519 q 1063 483 1067 488 q 1060 475 1060 478 q 1073 469 1060 471 q 1086 458 1086 467 q 1082 449 1086 456 q 1074 433 1078 442 q 1065 417 1069 425 q 1061 408 1061 410 q 1063 402 1061 406 q 1071 399 1065 399 q 1083 409 1076 399 q 1097 434 1090 419 q 1108 466 1103 449 q 1113 499 1113 483 q 1108 506 1113 503 q 1099 513 1104 510 q 1089 519 1093 515 q 1085 531 1085 524 q 1094 551 1085 546 q 1115 557 1103 557 q 1136 540 1136 557 l 1136 533 q 1138 519 1136 522 q 1143 515 1139 515 q 1156 513 1147 514 q 1181 507 1165 513 q 1196 485 1196 500 q 1190 452 1196 467 q 1185 414 1185 438 q 1196 403 1185 403 q 1206 416 1203 403 q 1213 447 1208 429 q 1230 483 1218 465 q 1265 513 1242 501 q 1275 517 1269 515 q 1286 519 1281 519 q 1307 497 1307 519 q 1304 485 1307 492 q 1301 476 1301 479 q 1306 472 1301 474 q 1314 469 1310 471 q 1322 466 1318 468 q 1326 460 1326 464 q 1317 422 1326 442 q 1308 383 1308 403 q 1313 350 1308 360 q 1339 333 1317 340 q 1346 331 1346 333 q 1342 324 1346 326 q 1325 321 1338 321 q 1286 336 1301 321 q 1268 376 1271 351 l 1268 385 q 1265 390 1268 389 l 1268 390 m 1244 432 q 1246 421 1244 428 q 1253 411 1247 414 q 1265 418 1258 411 q 1276 434 1271 425 q 1283 451 1281 443 q 1286 458 1286 458 q 1284 463 1286 461 q 1282 468 1282 465 q 1286 477 1282 472 q 1290 486 1290 482 q 1279 492 1290 492 q 1265 485 1271 492 q 1254 469 1258 479 q 1248 450 1250 460 q 1244 432 1246 440 m 1003 429 q 1005 418 1006 425 q 1014 411 1004 411 q 1023 417 1018 411 q 1033 430 1028 422 q 1042 446 1039 438 q 1046 460 1046 454 q 1043 465 1046 463 q 1040 469 1040 467 q 1044 478 1040 474 q 1047 486 1047 482 q 1040 493 1047 493 q 1016 474 1025 493 q 1003 429 1007 456 m 915 406 q 911 419 915 419 q 892 406 906 419 q 879 386 879 393 q 894 376 879 376 q 915 406 915 376 m 1118 533 q 1113 540 1118 540 q 1104 533 1104 540 q 1113 525 1104 525 q 1116 528 1117 525 q 1118 533 1115 531 m 143 426 q 145 450 143 438 q 150 474 147 463 l 150 476 q 147 481 150 478 q 120 460 135 472 q 94 434 106 447 q 74 406 82 421 q 65 378 65 392 q 68 368 65 374 q 71 357 71 363 q 63 351 71 351 q 33 369 44 351 q 22 401 22 386 q 44 444 22 426 q 92 479 65 463 q 145 512 119 496 q 179 549 171 528 q 197 578 183 561 q 219 594 210 594 q 251 582 232 594 q 271 561 271 569 q 265 547 271 554 q 250 533 258 540 q 233 517 242 525 q 221 501 225 508 q 198 450 208 478 q 188 399 188 422 q 190 388 188 393 q 197 382 193 382 q 222 403 211 382 q 244 450 233 425 q 267 497 256 475 q 296 518 279 518 q 316 511 306 518 q 326 500 326 504 q 317 477 326 493 q 297 443 308 461 q 277 409 286 425 q 268 388 268 393 q 279 378 268 378 q 317 399 300 378 q 348 448 335 419 q 368 506 361 476 q 375 553 375 536 q 367 575 375 564 q 358 593 358 586 q 372 614 358 603 q 396 625 386 625 q 412 618 406 625 q 422 601 418 611 q 426 581 425 592 q 426 563 426 571 q 414 494 426 531 q 380 426 401 457 q 330 374 358 394 q 269 353 301 353 q 253 358 260 353 q 240 371 246 364 q 229 389 235 378 q 224 383 228 389 q 214 370 219 378 q 202 357 208 363 q 190 351 196 351 q 166 360 175 351 q 151 382 157 369 q 144 407 146 394 q 143 426 143 419 m 1419 439 q 1431 494 1421 465 q 1458 545 1440 522 q 1499 583 1475 568 q 1553 597 1524 597 q 1604 564 1604 597 q 1585 522 1604 540 q 1540 503 1565 503 q 1529 508 1535 503 q 1524 521 1524 514 q 1530 526 1524 522 q 1544 535 1536 529 q 1558 547 1551 540 q 1564 561 1564 553 q 1556 571 1564 571 q 1521 558 1536 571 q 1494 526 1506 544 q 1478 486 1483 507 q 1472 450 1472 465 q 1499 397 1472 397 q 1534 406 1515 397 q 1569 426 1553 414 q 1599 449 1586 438 q 1614 465 1611 460 q 1639 503 1621 486 q 1688 519 1657 519 q 1713 489 1713 514 q 1710 480 1713 485 q 1707 468 1707 475 q 1710 467 1708 467 q 1726 470 1717 467 q 1742 474 1735 474 q 1767 451 1767 474 q 1763 431 1767 443 q 1743 419 1758 419 q 1739 426 1739 419 q 1740 431 1739 429 q 1740 435 1740 432 q 1733 443 1740 443 q 1706 431 1717 443 q 1684 405 1694 419 q 1663 378 1674 390 q 1635 367 1651 367 q 1610 374 1622 367 q 1599 400 1599 381 l 1599 407 q 1594 411 1599 411 q 1580 402 1590 411 q 1555 381 1569 393 q 1524 360 1540 369 q 1493 351 1508 351 q 1435 378 1451 351 q 1419 439 1419 406 m 1635 429 q 1636 418 1635 426 q 1644 410 1638 410 q 1656 417 1651 410 q 1660 428 1660 424 q 1658 435 1660 431 q 1656 443 1656 440 q 1662 453 1656 449 q 1676 463 1668 458 q 1690 472 1683 467 q 1696 486 1696 478 q 1691 497 1696 494 q 1682 500 1686 500 q 1663 492 1671 500 q 1649 474 1656 485 q 1640 451 1643 464 q 1635 429 1636 439 m 1399 397 q 1389 368 1399 385 q 1364 351 1379 351 q 1350 359 1357 351 q 1343 381 1343 367 q 1355 411 1343 396 q 1382 426 1367 426 q 1399 403 1399 426 l 1399 397 z "},"7":{"ha":1810,"x_min":22,"x_max":1767,"o":"m 692 554 q 664 551 681 554 q 644 536 647 549 q 640 530 642 533 q 633 526 639 526 q 623 531 628 526 q 618 543 618 536 q 642 583 618 572 q 689 593 665 593 q 717 586 703 593 q 746 572 732 579 q 772 557 760 564 q 797 550 785 550 q 803 558 799 550 q 816 574 808 565 q 833 590 824 582 q 853 597 842 597 q 874 592 864 597 q 885 569 885 588 q 874 545 885 551 q 849 534 863 539 q 824 522 835 529 q 813 493 813 514 q 815 492 813 492 q 833 506 822 492 q 860 519 843 519 q 876 504 876 519 q 867 481 876 492 q 848 461 858 469 q 828 447 838 453 q 819 440 819 442 q 829 429 819 438 q 844 411 839 421 q 879 359 864 379 q 928 333 894 339 q 942 338 938 333 q 949 347 947 342 q 953 356 951 351 q 960 360 956 360 q 981 344 972 360 q 990 319 990 329 q 978 297 990 307 q 947 286 965 286 q 901 297 921 286 q 866 326 881 308 q 842 365 851 343 q 824 408 832 388 q 817 421 821 414 q 804 428 814 428 q 798 413 800 428 q 796 386 796 397 q 799 372 796 379 q 801 358 801 365 q 799 357 801 357 q 771 367 783 357 q 758 378 765 372 q 744 368 754 378 q 718 358 735 358 q 699 382 700 358 l 699 386 q 696 388 697 388 q 681 374 686 382 q 667 367 675 367 q 653 372 658 367 q 646 383 649 376 q 641 394 643 389 q 636 400 639 400 q 628 394 633 400 q 616 380 624 388 q 599 366 608 372 q 579 360 589 360 q 561 365 568 360 q 549 376 554 369 q 542 387 544 382 q 538 392 539 392 q 528 386 533 392 q 518 374 524 381 q 505 363 513 368 q 489 358 497 358 q 478 363 482 358 q 471 373 474 368 q 467 383 468 378 q 465 388 467 388 q 452 374 458 382 q 438 367 446 367 q 415 383 424 367 q 407 419 407 399 q 413 451 407 433 q 428 483 418 468 q 452 509 438 499 q 486 519 467 519 q 503 511 500 519 q 507 489 507 503 q 503 481 507 485 q 500 475 500 478 q 504 471 500 472 q 513 468 508 469 q 522 465 518 467 q 526 458 526 463 q 515 438 526 454 q 503 408 503 422 q 513 400 503 400 q 533 419 525 400 q 549 460 540 438 q 574 501 558 482 q 615 519 589 519 q 634 507 628 519 q 640 482 640 494 q 633 453 640 467 q 614 440 625 440 q 601 445 607 440 q 596 458 596 450 q 601 464 596 461 q 610 470 606 467 q 620 478 615 474 q 625 490 625 483 q 624 497 625 493 q 618 500 624 500 q 590 476 600 500 q 576 435 579 453 q 597 411 576 411 q 628 428 618 411 q 649 465 639 444 q 674 503 660 486 q 719 519 689 519 q 735 512 731 519 q 740 494 740 504 q 736 485 740 489 q 732 475 732 481 q 744 468 732 469 q 757 461 757 467 q 753 451 757 458 q 745 435 750 443 q 737 419 740 426 q 733 407 733 411 q 740 400 733 401 q 753 413 747 400 q 764 445 758 426 q 774 485 769 464 q 785 522 779 506 q 789 529 789 526 q 774 539 789 535 q 740 547 758 543 q 706 552 721 550 q 692 554 692 554 m 444 429 q 447 419 447 425 q 454 411 447 414 q 475 428 464 411 q 486 463 486 446 q 482 469 482 464 q 485 478 482 474 q 489 486 489 482 q 488 490 489 488 q 483 493 486 493 q 456 471 464 493 q 444 429 447 449 m 678 435 q 677 422 678 429 q 683 411 676 414 q 695 418 689 411 q 706 433 701 425 q 714 449 711 442 q 717 457 717 456 q 715 463 717 460 q 713 468 713 465 q 717 479 713 474 q 721 488 721 485 q 713 492 721 492 q 685 470 693 492 q 678 435 678 449 m 856 499 q 853 501 856 501 q 844 496 851 501 q 830 482 838 490 q 816 466 822 474 q 810 454 810 458 l 810 453 l 811 453 q 814 453 813 451 q 841 472 826 461 q 856 499 856 482 m 842 549 q 858 556 849 549 q 868 569 868 563 q 857 583 868 583 q 849 578 853 583 q 841 568 844 574 q 835 557 838 563 q 833 551 833 551 q 842 549 833 549 m 1268 390 q 1249 376 1253 383 q 1235 368 1246 368 q 1219 378 1228 368 q 1208 388 1211 388 q 1191 374 1204 388 q 1165 360 1178 360 q 1138 396 1138 360 q 1147 427 1138 413 q 1156 465 1156 442 q 1151 483 1156 472 q 1136 493 1146 493 q 1121 450 1128 471 q 1108 415 1114 432 q 1094 388 1101 397 q 1075 367 1088 375 q 1046 360 1063 358 q 1026 388 1026 360 q 1013 376 1019 388 q 994 365 1006 365 q 979 372 985 365 q 970 388 974 379 q 966 405 967 397 q 965 415 965 413 q 967 435 965 426 q 969 456 969 444 q 954 449 958 456 q 950 442 950 443 q 951 427 950 436 q 953 411 953 418 q 939 372 953 386 q 906 357 925 357 q 877 367 888 357 q 867 389 867 378 q 873 405 867 397 q 888 419 879 413 q 902 433 896 426 q 908 444 908 439 q 902 465 908 454 q 896 490 896 476 q 908 514 896 508 q 943 519 919 519 q 953 503 953 514 q 951 495 953 500 q 947 490 950 490 q 942 492 944 490 q 940 501 939 493 q 942 506 942 503 q 940 510 942 508 q 931 506 932 510 q 929 500 929 503 q 935 472 929 481 q 944 464 942 464 q 965 472 953 464 q 990 491 976 481 q 1017 510 1003 501 q 1043 519 1031 519 q 1067 497 1067 519 q 1063 483 1067 488 q 1060 475 1060 478 q 1073 469 1060 471 q 1086 458 1086 467 q 1082 449 1086 456 q 1074 433 1078 442 q 1065 417 1069 425 q 1061 408 1061 410 q 1063 402 1061 406 q 1071 399 1065 399 q 1083 409 1076 399 q 1097 434 1090 419 q 1108 466 1103 449 q 1113 499 1113 483 q 1108 506 1113 503 q 1099 513 1104 510 q 1089 519 1093 515 q 1085 531 1085 524 q 1094 551 1085 546 q 1115 557 1103 557 q 1136 540 1136 557 l 1136 533 q 1138 519 1136 522 q 1143 515 1139 515 q 1156 513 1147 514 q 1181 507 1165 513 q 1196 485 1196 500 q 1190 452 1196 467 q 1185 414 1185 438 q 1196 403 1185 403 q 1206 416 1203 403 q 1213 447 1208 429 q 1230 483 1218 465 q 1265 513 1242 501 q 1275 517 1269 515 q 1286 519 1281 519 q 1307 497 1307 519 q 1304 485 1307 492 q 1301 476 1301 479 q 1306 472 1301 474 q 1314 469 1310 471 q 1322 466 1318 468 q 1326 460 1326 464 q 1317 422 1326 442 q 1308 383 1308 403 q 1313 350 1308 360 q 1339 333 1317 340 q 1346 331 1346 333 q 1342 324 1346 326 q 1325 321 1338 321 q 1286 336 1301 321 q 1268 376 1271 351 l 1268 385 q 1265 390 1268 389 l 1268 390 m 1244 432 q 1246 421 1244 428 q 1253 411 1247 414 q 1265 418 1258 411 q 1276 434 1271 425 q 1283 451 1281 443 q 1286 458 1286 458 q 1284 463 1286 461 q 1282 468 1282 465 q 1286 477 1282 472 q 1290 486 1290 482 q 1279 492 1290 492 q 1265 485 1271 492 q 1254 469 1258 479 q 1248 450 1250 460 q 1244 432 1246 440 m 1003 429 q 1005 418 1006 425 q 1014 411 1004 411 q 1023 417 1018 411 q 1033 430 1028 422 q 1042 446 1039 438 q 1046 460 1046 454 q 1043 465 1046 463 q 1040 469 1040 467 q 1044 478 1040 474 q 1047 486 1047 482 q 1040 493 1047 493 q 1016 474 1025 493 q 1003 429 1007 456 m 915 406 q 911 419 915 419 q 892 406 906 419 q 879 386 879 393 q 894 376 879 376 q 915 406 915 376 m 1118 533 q 1113 540 1118 540 q 1104 533 1104 540 q 1113 525 1104 525 q 1116 528 1117 525 q 1118 533 1115 531 m 143 426 q 145 450 143 438 q 150 474 147 463 l 150 476 q 147 481 150 478 q 120 460 135 472 q 94 434 106 447 q 74 406 82 421 q 65 378 65 392 q 68 368 65 374 q 71 357 71 363 q 63 351 71 351 q 33 369 44 351 q 22 401 22 386 q 44 444 22 426 q 92 479 65 463 q 145 512 119 496 q 179 549 171 528 q 197 578 183 561 q 219 594 210 594 q 251 582 232 594 q 271 561 271 569 q 265 547 271 554 q 250 533 258 540 q 233 517 242 525 q 221 501 225 508 q 198 450 208 478 q 188 399 188 422 q 190 388 188 393 q 197 382 193 382 q 222 403 211 382 q 244 450 233 425 q 267 497 256 475 q 296 518 279 518 q 316 511 306 518 q 326 500 326 504 q 317 477 326 493 q 297 443 308 461 q 277 409 286 425 q 268 388 268 393 q 279 378 268 378 q 317 399 300 378 q 348 448 335 419 q 368 506 361 476 q 375 553 375 536 q 367 575 375 564 q 358 593 358 586 q 372 614 358 603 q 396 625 386 625 q 412 618 406 625 q 422 601 418 611 q 426 581 425 592 q 426 563 426 571 q 414 494 426 531 q 380 426 401 457 q 330 374 358 394 q 269 353 301 353 q 253 358 260 353 q 240 371 246 364 q 229 389 235 378 q 224 383 228 389 q 214 370 219 378 q 202 357 208 363 q 190 351 196 351 q 166 360 175 351 q 151 382 157 369 q 144 407 146 394 q 143 426 143 419 m 1419 439 q 1431 494 1421 465 q 1458 545 1440 522 q 1499 583 1475 568 q 1553 597 1524 597 q 1604 564 1604 597 q 1585 522 1604 540 q 1540 503 1565 503 q 1529 508 1535 503 q 1524 521 1524 514 q 1530 526 1524 522 q 1544 535 1536 529 q 1558 547 1551 540 q 1564 561 1564 553 q 1556 571 1564 571 q 1521 558 1536 571 q 1494 526 1506 544 q 1478 486 1483 507 q 1472 450 1472 465 q 1499 397 1472 397 q 1534 406 1515 397 q 1569 426 1553 414 q 1599 449 1586 438 q 1614 465 1611 460 q 1639 503 1621 486 q 1688 519 1657 519 q 1713 489 1713 514 q 1710 480 1713 485 q 1707 468 1707 475 q 1710 467 1708 467 q 1726 470 1717 467 q 1742 474 1735 474 q 1767 451 1767 474 q 1763 431 1767 443 q 1743 419 1758 419 q 1739 426 1739 419 q 1740 431 1739 429 q 1740 435 1740 432 q 1733 443 1740 443 q 1706 431 1717 443 q 1684 405 1694 419 q 1663 378 1674 390 q 1635 367 1651 367 q 1610 374 1622 367 q 1599 400 1599 381 l 1599 407 q 1594 411 1599 411 q 1580 402 1590 411 q 1555 381 1569 393 q 1524 360 1540 369 q 1493 351 1508 351 q 1435 378 1451 351 q 1419 439 1419 406 m 1635 429 q 1636 418 1635 426 q 1644 410 1638 410 q 1656 417 1651 410 q 1660 428 1660 424 q 1658 435 1660 431 q 1656 443 1656 440 q 1662 453 1656 449 q 1676 463 1668 458 q 1690 472 1683 467 q 1696 486 1696 478 q 1691 497 1696 494 q 1682 500 1686 500 q 1663 492 1671 500 q 1649 474 1656 485 q 1640 451 1643 464 q 1635 429 1636 439 m 1399 397 q 1389 368 1399 385 q 1364 351 1379 351 q 1350 359 1357 351 q 1343 381 1343 367 q 1355 411 1343 396 q 1382 426 1367 426 q 1399 403 1399 426 l 1399 397 z "},"8":{"ha":1810,"x_min":22,"x_max":1767,"o":"m 692 554 q 664 551 681 554 q 644 536 647 549 q 640 530 642 533 q 633 526 639 526 q 623 531 628 526 q 618 543 618 536 q 642 583 618 572 q 689 593 665 593 q 717 586 703 593 q 746 572 732 579 q 772 557 760 564 q 797 550 785 550 q 803 558 799 550 q 816 574 808 565 q 833 590 824 582 q 853 597 842 597 q 874 592 864 597 q 885 569 885 588 q 874 545 885 551 q 849 534 863 539 q 824 522 835 529 q 813 493 813 514 q 815 492 813 492 q 833 506 822 492 q 860 519 843 519 q 876 504 876 519 q 867 481 876 492 q 848 461 858 469 q 828 447 838 453 q 819 440 819 442 q 829 429 819 438 q 844 411 839 421 q 879 359 864 379 q 928 333 894 339 q 942 338 938 333 q 949 347 947 342 q 953 356 951 351 q 960 360 956 360 q 981 344 972 360 q 990 319 990 329 q 978 297 990 307 q 947 286 965 286 q 901 297 921 286 q 866 326 881 308 q 842 365 851 343 q 824 408 832 388 q 817 421 821 414 q 804 428 814 428 q 798 413 800 428 q 796 386 796 397 q 799 372 796 379 q 801 358 801 365 q 799 357 801 357 q 771 367 783 357 q 758 378 765 372 q 744 368 754 378 q 718 358 735 358 q 699 382 700 358 l 699 386 q 696 388 697 388 q 681 374 686 382 q 667 367 675 367 q 653 372 658 367 q 646 383 649 376 q 641 394 643 389 q 636 400 639 400 q 628 394 633 400 q 616 380 624 388 q 599 366 608 372 q 579 360 589 360 q 561 365 568 360 q 549 376 554 369 q 542 387 544 382 q 538 392 539 392 q 528 386 533 392 q 518 374 524 381 q 505 363 513 368 q 489 358 497 358 q 478 363 482 358 q 471 373 474 368 q 467 383 468 378 q 465 388 467 388 q 452 374 458 382 q 438 367 446 367 q 415 383 424 367 q 407 419 407 399 q 413 451 407 433 q 428 483 418 468 q 452 509 438 499 q 486 519 467 519 q 503 511 500 519 q 507 489 507 503 q 503 481 507 485 q 500 475 500 478 q 504 471 500 472 q 513 468 508 469 q 522 465 518 467 q 526 458 526 463 q 515 438 526 454 q 503 408 503 422 q 513 400 503 400 q 533 419 525 400 q 549 460 540 438 q 574 501 558 482 q 615 519 589 519 q 634 507 628 519 q 640 482 640 494 q 633 453 640 467 q 614 440 625 440 q 601 445 607 440 q 596 458 596 450 q 601 464 596 461 q 610 470 606 467 q 620 478 615 474 q 625 490 625 483 q 624 497 625 493 q 618 500 624 500 q 590 476 600 500 q 576 435 579 453 q 597 411 576 411 q 628 428 618 411 q 649 465 639 444 q 674 503 660 486 q 719 519 689 519 q 735 512 731 519 q 740 494 740 504 q 736 485 740 489 q 732 475 732 481 q 744 468 732 469 q 757 461 757 467 q 753 451 757 458 q 745 435 750 443 q 737 419 740 426 q 733 407 733 411 q 740 400 733 401 q 753 413 747 400 q 764 445 758 426 q 774 485 769 464 q 785 522 779 506 q 789 529 789 526 q 774 539 789 535 q 740 547 758 543 q 706 552 721 550 q 692 554 692 554 m 444 429 q 447 419 447 425 q 454 411 447 414 q 475 428 464 411 q 486 463 486 446 q 482 469 482 464 q 485 478 482 474 q 489 486 489 482 q 488 490 489 488 q 483 493 486 493 q 456 471 464 493 q 444 429 447 449 m 678 435 q 677 422 678 429 q 683 411 676 414 q 695 418 689 411 q 706 433 701 425 q 714 449 711 442 q 717 457 717 456 q 715 463 717 460 q 713 468 713 465 q 717 479 713 474 q 721 488 721 485 q 713 492 721 492 q 685 470 693 492 q 678 435 678 449 m 856 499 q 853 501 856 501 q 844 496 851 501 q 830 482 838 490 q 816 466 822 474 q 810 454 810 458 l 810 453 l 811 453 q 814 453 813 451 q 841 472 826 461 q 856 499 856 482 m 842 549 q 858 556 849 549 q 868 569 868 563 q 857 583 868 583 q 849 578 853 583 q 841 568 844 574 q 835 557 838 563 q 833 551 833 551 q 842 549 833 549 m 1268 390 q 1249 376 1253 383 q 1235 368 1246 368 q 1219 378 1228 368 q 1208 388 1211 388 q 1191 374 1204 388 q 1165 360 1178 360 q 1138 396 1138 360 q 1147 427 1138 413 q 1156 465 1156 442 q 1151 483 1156 472 q 1136 493 1146 493 q 1121 450 1128 471 q 1108 415 1114 432 q 1094 388 1101 397 q 1075 367 1088 375 q 1046 360 1063 358 q 1026 388 1026 360 q 1013 376 1019 388 q 994 365 1006 365 q 979 372 985 365 q 970 388 974 379 q 966 405 967 397 q 965 415 965 413 q 967 435 965 426 q 969 456 969 444 q 954 449 958 456 q 950 442 950 443 q 951 427 950 436 q 953 411 953 418 q 939 372 953 386 q 906 357 925 357 q 877 367 888 357 q 867 389 867 378 q 873 405 867 397 q 888 419 879 413 q 902 433 896 426 q 908 444 908 439 q 902 465 908 454 q 896 490 896 476 q 908 514 896 508 q 943 519 919 519 q 953 503 953 514 q 951 495 953 500 q 947 490 950 490 q 942 492 944 490 q 940 501 939 493 q 942 506 942 503 q 940 510 942 508 q 931 506 932 510 q 929 500 929 503 q 935 472 929 481 q 944 464 942 464 q 965 472 953 464 q 990 491 976 481 q 1017 510 1003 501 q 1043 519 1031 519 q 1067 497 1067 519 q 1063 483 1067 488 q 1060 475 1060 478 q 1073 469 1060 471 q 1086 458 1086 467 q 1082 449 1086 456 q 1074 433 1078 442 q 1065 417 1069 425 q 1061 408 1061 410 q 1063 402 1061 406 q 1071 399 1065 399 q 1083 409 1076 399 q 1097 434 1090 419 q 1108 466 1103 449 q 1113 499 1113 483 q 1108 506 1113 503 q 1099 513 1104 510 q 1089 519 1093 515 q 1085 531 1085 524 q 1094 551 1085 546 q 1115 557 1103 557 q 1136 540 1136 557 l 1136 533 q 1138 519 1136 522 q 1143 515 1139 515 q 1156 513 1147 514 q 1181 507 1165 513 q 1196 485 1196 500 q 1190 452 1196 467 q 1185 414 1185 438 q 1196 403 1185 403 q 1206 416 1203 403 q 1213 447 1208 429 q 1230 483 1218 465 q 1265 513 1242 501 q 1275 517 1269 515 q 1286 519 1281 519 q 1307 497 1307 519 q 1304 485 1307 492 q 1301 476 1301 479 q 1306 472 1301 474 q 1314 469 1310 471 q 1322 466 1318 468 q 1326 460 1326 464 q 1317 422 1326 442 q 1308 383 1308 403 q 1313 350 1308 360 q 1339 333 1317 340 q 1346 331 1346 333 q 1342 324 1346 326 q 1325 321 1338 321 q 1286 336 1301 321 q 1268 376 1271 351 l 1268 385 q 1265 390 1268 389 l 1268 390 m 1244 432 q 1246 421 1244 428 q 1253 411 1247 414 q 1265 418 1258 411 q 1276 434 1271 425 q 1283 451 1281 443 q 1286 458 1286 458 q 1284 463 1286 461 q 1282 468 1282 465 q 1286 477 1282 472 q 1290 486 1290 482 q 1279 492 1290 492 q 1265 485 1271 492 q 1254 469 1258 479 q 1248 450 1250 460 q 1244 432 1246 440 m 1003 429 q 1005 418 1006 425 q 1014 411 1004 411 q 1023 417 1018 411 q 1033 430 1028 422 q 1042 446 1039 438 q 1046 460 1046 454 q 1043 465 1046 463 q 1040 469 1040 467 q 1044 478 1040 474 q 1047 486 1047 482 q 1040 493 1047 493 q 1016 474 1025 493 q 1003 429 1007 456 m 915 406 q 911 419 915 419 q 892 406 906 419 q 879 386 879 393 q 894 376 879 376 q 915 406 915 376 m 1118 533 q 1113 540 1118 540 q 1104 533 1104 540 q 1113 525 1104 525 q 1116 528 1117 525 q 1118 533 1115 531 m 143 426 q 145 450 143 438 q 150 474 147 463 l 150 476 q 147 481 150 478 q 120 460 135 472 q 94 434 106 447 q 74 406 82 421 q 65 378 65 392 q 68 368 65 374 q 71 357 71 363 q 63 351 71 351 q 33 369 44 351 q 22 401 22 386 q 44 444 22 426 q 92 479 65 463 q 145 512 119 496 q 179 549 171 528 q 197 578 183 561 q 219 594 210 594 q 251 582 232 594 q 271 561 271 569 q 265 547 271 554 q 250 533 258 540 q 233 517 242 525 q 221 501 225 508 q 198 450 208 478 q 188 399 188 422 q 190 388 188 393 q 197 382 193 382 q 222 403 211 382 q 244 450 233 425 q 267 497 256 475 q 296 518 279 518 q 316 511 306 518 q 326 500 326 504 q 317 477 326 493 q 297 443 308 461 q 277 409 286 425 q 268 388 268 393 q 279 378 268 378 q 317 399 300 378 q 348 448 335 419 q 368 506 361 476 q 375 553 375 536 q 367 575 375 564 q 358 593 358 586 q 372 614 358 603 q 396 625 386 625 q 412 618 406 625 q 422 601 418 611 q 426 581 425 592 q 426 563 426 571 q 414 494 426 531 q 380 426 401 457 q 330 374 358 394 q 269 353 301 353 q 253 358 260 353 q 240 371 246 364 q 229 389 235 378 q 224 383 228 389 q 214 370 219 378 q 202 357 208 363 q 190 351 196 351 q 166 360 175 351 q 151 382 157 369 q 144 407 146 394 q 143 426 143 419 m 1419 439 q 1431 494 1421 465 q 1458 545 1440 522 q 1499 583 1475 568 q 1553 597 1524 597 q 1604 564 1604 597 q 1585 522 1604 540 q 1540 503 1565 503 q 1529 508 1535 503 q 1524 521 1524 514 q 1530 526 1524 522 q 1544 535 1536 529 q 1558 547 1551 540 q 1564 561 1564 553 q 1556 571 1564 571 q 1521 558 1536 571 q 1494 526 1506 544 q 1478 486 1483 507 q 1472 450 1472 465 q 1499 397 1472 397 q 1534 406 1515 397 q 1569 426 1553 414 q 1599 449 1586 438 q 1614 465 1611 460 q 1639 503 1621 486 q 1688 519 1657 519 q 1713 489 1713 514 q 1710 480 1713 485 q 1707 468 1707 475 q 1710 467 1708 467 q 1726 470 1717 467 q 1742 474 1735 474 q 1767 451 1767 474 q 1763 431 1767 443 q 1743 419 1758 419 q 1739 426 1739 419 q 1740 431 1739 429 q 1740 435 1740 432 q 1733 443 1740 443 q 1706 431 1717 443 q 1684 405 1694 419 q 1663 378 1674 390 q 1635 367 1651 367 q 1610 374 1622 367 q 1599 400 1599 381 l 1599 407 q 1594 411 1599 411 q 1580 402 1590 411 q 1555 381 1569 393 q 1524 360 1540 369 q 1493 351 1508 351 q 1435 378 1451 351 q 1419 439 1419 406 m 1635 429 q 1636 418 1635 426 q 1644 410 1638 410 q 1656 417 1651 410 q 1660 428 1660 424 q 1658 435 1660 431 q 1656 443 1656 440 q 1662 453 1656 449 q 1676 463 1668 458 q 1690 472 1683 467 q 1696 486 1696 478 q 1691 497 1696 494 q 1682 500 1686 500 q 1663 492 1671 500 q 1649 474 1656 485 q 1640 451 1643 464 q 1635 429 1636 439 m 1399 397 q 1389 368 1399 385 q 1364 351 1379 351 q 1350 359 1357 351 q 1343 381 1343 367 q 1355 411 1343 396 q 1382 426 1367 426 q 1399 403 1399 426 l 1399 397 z "},"9":{"ha":1810,"x_min":22,"x_max":1767,"o":"m 692 554 q 664 551 681 554 q 644 536 647 549 q 640 530 642 533 q 633 526 639 526 q 623 531 628 526 q 618 543 618 536 q 642 583 618 572 q 689 593 665 593 q 717 586 703 593 q 746 572 732 579 q 772 557 760 564 q 797 550 785 550 q 803 558 799 550 q 816 574 808 565 q 833 590 824 582 q 853 597 842 597 q 874 592 864 597 q 885 569 885 588 q 874 545 885 551 q 849 534 863 539 q 824 522 835 529 q 813 493 813 514 q 815 492 813 492 q 833 506 822 492 q 860 519 843 519 q 876 504 876 519 q 867 481 876 492 q 848 461 858 469 q 828 447 838 453 q 819 440 819 442 q 829 429 819 438 q 844 411 839 421 q 879 359 864 379 q 928 333 894 339 q 942 338 938 333 q 949 347 947 342 q 953 356 951 351 q 960 360 956 360 q 981 344 972 360 q 990 319 990 329 q 978 297 990 307 q 947 286 965 286 q 901 297 921 286 q 866 326 881 308 q 842 365 851 343 q 824 408 832 388 q 817 421 821 414 q 804 428 814 428 q 798 413 800 428 q 796 386 796 397 q 799 372 796 379 q 801 358 801 365 q 799 357 801 357 q 771 367 783 357 q 758 378 765 372 q 744 368 754 378 q 718 358 735 358 q 699 382 700 358 l 699 386 q 696 388 697 388 q 681 374 686 382 q 667 367 675 367 q 653 372 658 367 q 646 383 649 376 q 641 394 643 389 q 636 400 639 400 q 628 394 633 400 q 616 380 624 388 q 599 366 608 372 q 579 360 589 360 q 561 365 568 360 q 549 376 554 369 q 542 387 544 382 q 538 392 539 392 q 528 386 533 392 q 518 374 524 381 q 505 363 513 368 q 489 358 497 358 q 478 363 482 358 q 471 373 474 368 q 467 383 468 378 q 465 388 467 388 q 452 374 458 382 q 438 367 446 367 q 415 383 424 367 q 407 419 407 399 q 413 451 407 433 q 428 483 418 468 q 452 509 438 499 q 486 519 467 519 q 503 511 500 519 q 507 489 507 503 q 503 481 507 485 q 500 475 500 478 q 504 471 500 472 q 513 468 508 469 q 522 465 518 467 q 526 458 526 463 q 515 438 526 454 q 503 408 503 422 q 513 400 503 400 q 533 419 525 400 q 549 460 540 438 q 574 501 558 482 q 615 519 589 519 q 634 507 628 519 q 640 482 640 494 q 633 453 640 467 q 614 440 625 440 q 601 445 607 440 q 596 458 596 450 q 601 464 596 461 q 610 470 606 467 q 620 478 615 474 q 625 490 625 483 q 624 497 625 493 q 618 500 624 500 q 590 476 600 500 q 576 435 579 453 q 597 411 576 411 q 628 428 618 411 q 649 465 639 444 q 674 503 660 486 q 719 519 689 519 q 735 512 731 519 q 740 494 740 504 q 736 485 740 489 q 732 475 732 481 q 744 468 732 469 q 757 461 757 467 q 753 451 757 458 q 745 435 750 443 q 737 419 740 426 q 733 407 733 411 q 740 400 733 401 q 753 413 747 400 q 764 445 758 426 q 774 485 769 464 q 785 522 779 506 q 789 529 789 526 q 774 539 789 535 q 740 547 758 543 q 706 552 721 550 q 692 554 692 554 m 444 429 q 447 419 447 425 q 454 411 447 414 q 475 428 464 411 q 486 463 486 446 q 482 469 482 464 q 485 478 482 474 q 489 486 489 482 q 488 490 489 488 q 483 493 486 493 q 456 471 464 493 q 444 429 447 449 m 678 435 q 677 422 678 429 q 683 411 676 414 q 695 418 689 411 q 706 433 701 425 q 714 449 711 442 q 717 457 717 456 q 715 463 717 460 q 713 468 713 465 q 717 479 713 474 q 721 488 721 485 q 713 492 721 492 q 685 470 693 492 q 678 435 678 449 m 856 499 q 853 501 856 501 q 844 496 851 501 q 830 482 838 490 q 816 466 822 474 q 810 454 810 458 l 810 453 l 811 453 q 814 453 813 451 q 841 472 826 461 q 856 499 856 482 m 842 549 q 858 556 849 549 q 868 569 868 563 q 857 583 868 583 q 849 578 853 583 q 841 568 844 574 q 835 557 838 563 q 833 551 833 551 q 842 549 833 549 m 1268 390 q 1249 376 1253 383 q 1235 368 1246 368 q 1219 378 1228 368 q 1208 388 1211 388 q 1191 374 1204 388 q 1165 360 1178 360 q 1138 396 1138 360 q 1147 427 1138 413 q 1156 465 1156 442 q 1151 483 1156 472 q 1136 493 1146 493 q 1121 450 1128 471 q 1108 415 1114 432 q 1094 388 1101 397 q 1075 367 1088 375 q 1046 360 1063 358 q 1026 388 1026 360 q 1013 376 1019 388 q 994 365 1006 365 q 979 372 985 365 q 970 388 974 379 q 966 405 967 397 q 965 415 965 413 q 967 435 965 426 q 969 456 969 444 q 954 449 958 456 q 950 442 950 443 q 951 427 950 436 q 953 411 953 418 q 939 372 953 386 q 906 357 925 357 q 877 367 888 357 q 867 389 867 378 q 873 405 867 397 q 888 419 879 413 q 902 433 896 426 q 908 444 908 439 q 902 465 908 454 q 896 490 896 476 q 908 514 896 508 q 943 519 919 519 q 953 503 953 514 q 951 495 953 500 q 947 490 950 490 q 942 492 944 490 q 940 501 939 493 q 942 506 942 503 q 940 510 942 508 q 931 506 932 510 q 929 500 929 503 q 935 472 929 481 q 944 464 942 464 q 965 472 953 464 q 990 491 976 481 q 1017 510 1003 501 q 1043 519 1031 519 q 1067 497 1067 519 q 1063 483 1067 488 q 1060 475 1060 478 q 1073 469 1060 471 q 1086 458 1086 467 q 1082 449 1086 456 q 1074 433 1078 442 q 1065 417 1069 425 q 1061 408 1061 410 q 1063 402 1061 406 q 1071 399 1065 399 q 1083 409 1076 399 q 1097 434 1090 419 q 1108 466 1103 449 q 1113 499 1113 483 q 1108 506 1113 503 q 1099 513 1104 510 q 1089 519 1093 515 q 1085 531 1085 524 q 1094 551 1085 546 q 1115 557 1103 557 q 1136 540 1136 557 l 1136 533 q 1138 519 1136 522 q 1143 515 1139 515 q 1156 513 1147 514 q 1181 507 1165 513 q 1196 485 1196 500 q 1190 452 1196 467 q 1185 414 1185 438 q 1196 403 1185 403 q 1206 416 1203 403 q 1213 447 1208 429 q 1230 483 1218 465 q 1265 513 1242 501 q 1275 517 1269 515 q 1286 519 1281 519 q 1307 497 1307 519 q 1304 485 1307 492 q 1301 476 1301 479 q 1306 472 1301 474 q 1314 469 1310 471 q 1322 466 1318 468 q 1326 460 1326 464 q 1317 422 1326 442 q 1308 383 1308 403 q 1313 350 1308 360 q 1339 333 1317 340 q 1346 331 1346 333 q 1342 324 1346 326 q 1325 321 1338 321 q 1286 336 1301 321 q 1268 376 1271 351 l 1268 385 q 1265 390 1268 389 l 1268 390 m 1244 432 q 1246 421 1244 428 q 1253 411 1247 414 q 1265 418 1258 411 q 1276 434 1271 425 q 1283 451 1281 443 q 1286 458 1286 458 q 1284 463 1286 461 q 1282 468 1282 465 q 1286 477 1282 472 q 1290 486 1290 482 q 1279 492 1290 492 q 1265 485 1271 492 q 1254 469 1258 479 q 1248 450 1250 460 q 1244 432 1246 440 m 1003 429 q 1005 418 1006 425 q 1014 411 1004 411 q 1023 417 1018 411 q 1033 430 1028 422 q 1042 446 1039 438 q 1046 460 1046 454 q 1043 465 1046 463 q 1040 469 1040 467 q 1044 478 1040 474 q 1047 486 1047 482 q 1040 493 1047 493 q 1016 474 1025 493 q 1003 429 1007 456 m 915 406 q 911 419 915 419 q 892 406 906 419 q 879 386 879 393 q 894 376 879 376 q 915 406 915 376 m 1118 533 q 1113 540 1118 540 q 1104 533 1104 540 q 1113 525 1104 525 q 1116 528 1117 525 q 1118 533 1115 531 m 143 426 q 145 450 143 438 q 150 474 147 463 l 150 476 q 147 481 150 478 q 120 460 135 472 q 94 434 106 447 q 74 406 82 421 q 65 378 65 392 q 68 368 65 374 q 71 357 71 363 q 63 351 71 351 q 33 369 44 351 q 22 401 22 386 q 44 444 22 426 q 92 479 65 463 q 145 512 119 496 q 179 549 171 528 q 197 578 183 561 q 219 594 210 594 q 251 582 232 594 q 271 561 271 569 q 265 547 271 554 q 250 533 258 540 q 233 517 242 525 q 221 501 225 508 q 198 450 208 478 q 188 399 188 422 q 190 388 188 393 q 197 382 193 382 q 222 403 211 382 q 244 450 233 425 q 267 497 256 475 q 296 518 279 518 q 316 511 306 518 q 326 500 326 504 q 317 477 326 493 q 297 443 308 461 q 277 409 286 425 q 268 388 268 393 q 279 378 268 378 q 317 399 300 378 q 348 448 335 419 q 368 506 361 476 q 375 553 375 536 q 367 575 375 564 q 358 593 358 586 q 372 614 358 603 q 396 625 386 625 q 412 618 406 625 q 422 601 418 611 q 426 581 425 592 q 426 563 426 571 q 414 494 426 531 q 380 426 401 457 q 330 374 358 394 q 269 353 301 353 q 253 358 260 353 q 240 371 246 364 q 229 389 235 378 q 224 383 228 389 q 214 370 219 378 q 202 357 208 363 q 190 351 196 351 q 166 360 175 351 q 151 382 157 369 q 144 407 146 394 q 143 426 143 419 m 1419 439 q 1431 494 1421 465 q 1458 545 1440 522 q 1499 583 1475 568 q 1553 597 1524 597 q 1604 564 1604 597 q 1585 522 1604 540 q 1540 503 1565 503 q 1529 508 1535 503 q 1524 521 1524 514 q 1530 526 1524 522 q 1544 535 1536 529 q 1558 547 1551 540 q 1564 561 1564 553 q 1556 571 1564 571 q 1521 558 1536 571 q 1494 526 1506 544 q 1478 486 1483 507 q 1472 450 1472 465 q 1499 397 1472 397 q 1534 406 1515 397 q 1569 426 1553 414 q 1599 449 1586 438 q 1614 465 1611 460 q 1639 503 1621 486 q 1688 519 1657 519 q 1713 489 1713 514 q 1710 480 1713 485 q 1707 468 1707 475 q 1710 467 1708 467 q 1726 470 1717 467 q 1742 474 1735 474 q 1767 451 1767 474 q 1763 431 1767 443 q 1743 419 1758 419 q 1739 426 1739 419 q 1740 431 1739 429 q 1740 435 1740 432 q 1733 443 1740 443 q 1706 431 1717 443 q 1684 405 1694 419 q 1663 378 1674 390 q 1635 367 1651 367 q 1610 374 1622 367 q 1599 400 1599 381 l 1599 407 q 1594 411 1599 411 q 1580 402 1590 411 q 1555 381 1569 393 q 1524 360 1540 369 q 1493 351 1508 351 q 1435 378 1451 351 q 1419 439 1419 406 m 1635 429 q 1636 418 1635 426 q 1644 410 1638 410 q 1656 417 1651 410 q 1660 428 1660 424 q 1658 435 1660 431 q 1656 443 1656 440 q 1662 453 1656 449 q 1676 463 1668 458 q 1690 472 1683 467 q 1696 486 1696 478 q 1691 497 1696 494 q 1682 500 1686 500 q 1663 492 1671 500 q 1649 474 1656 485 q 1640 451 1643 464 q 1635 429 1636 439 m 1399 397 q 1389 368 1399 385 q 1364 351 1379 351 q 1350 359 1357 351 q 1343 381 1343 367 q 1355 411 1343 396 q 1382 426 1367 426 q 1399 403 1399 426 l 1399 397 z "},"\u0000":{"ha":0,"x_min":0,"x_max":0,"o":""},"\r":{"ha":694,"x_min":0,"x_max":0,"o":""}," ":{"ha":408,"x_min":0,"x_max":0,"o":""},"e":{"ha":379,"x_min":0,"x_max":472,"o":"m 436 247 q 465 265 458 265 q 470 254 472 264 q 461 231 468 244 q 450 213 454 218 q 397 148 431 185 q 319 78 363 111 q 226 23 276 46 q 126 0 176 0 q 34 42 68 0 q 0 149 0 85 q 33 271 0 211 q 114 377 67 331 q 213 452 161 424 q 301 481 264 481 q 372 457 342 481 q 401 381 401 433 q 386 328 401 360 q 345 267 371 297 q 285 215 319 236 q 213 193 251 193 q 173 205 189 193 q 150 231 157 217 q 136 201 143 219 q 128 163 129 182 q 134 129 126 144 q 164 110 142 114 q 242 116 203 103 q 316 152 281 129 q 382 201 351 175 q 436 247 413 228 m 318 379 q 284 370 303 379 q 245 345 265 361 q 206 308 225 329 q 169 263 186 288 q 232 285 200 267 q 288 325 264 304 q 322 363 311 346 q 318 379 332 379 z "},"f":{"ha":310,"x_min":-189,"x_max":458,"o":"m 332 669 q 378 663 353 669 q 422 647 403 657 q 450 622 442 636 q 444 590 458 607 q 402 540 433 575 q 326 447 371 504 q 224 310 281 390 q 108 128 168 231 q 167 138 142 129 q 219 161 193 146 q 273 199 244 176 q 340 251 301 222 q 370 263 360 265 q 381 247 381 260 q 371 214 381 233 q 340 175 361 194 q 307 145 329 165 q 257 104 285 125 q 199 66 229 83 q 146 47 169 49 q 164 -63 167 -7 q 142 -172 161 -119 q 90 -270 122 -224 q 24 -350 58 -317 q -46 -401 -11 -383 q -106 -417 -81 -419 q -162 -382 -136 -412 q -189 -293 -189 -351 q -169 -172 -189 -242 q -117 -26 -150 -103 q -41 133 -83 51 q 47 292 1 215 q 139 438 93 369 q 224 558 185 507 q 291 640 263 610 q 332 669 319 669 m -78 -272 q 36 -183 -8 -233 q 69 -136 54 -162 q 92 -80 85 -110 q 94 -16 99 -50 q 68 56 89 18 q -8 -97 29 -15 q -78 -272 -44 -179 z "},"g":{"ha":472,"x_min":-96,"x_max":560,"o":"m 521 246 q 547 258 536 260 q 558 242 557 256 q 550 207 560 228 q 517 163 540 186 q 413 74 471 119 q 294 -18 356 28 q 208 -167 251 -94 q 126 -297 164 -240 q 57 -387 88 -353 q 10 -422 26 -422 q -64 -383 -32 -422 q -96 -285 -96 -344 q -78 -231 -96 -258 q -28 -172 -60 -203 q 47 -107 3 -140 q 142 -36 90 -74 q 167 12 153 -15 q 198 67 182 39 q 228 124 214 96 q 254 174 243 151 q 213 117 235 147 q 169 61 192 88 q 122 17 146 35 q 75 -4 97 -1 q 31 2 51 -7 q -3 30 11 11 q -26 74 -18 49 q -35 129 -35 100 q -7 243 -35 181 q 67 358 21 306 q 174 447 114 411 q 300 483 235 483 q 347 464 331 483 q 371 424 364 444 q 380 435 372 425 q 396 456 388 444 q 413 475 404 467 q 424 483 421 483 q 460 478 442 483 q 492 463 478 472 q 516 443 507 454 q 525 422 525 432 q 514 396 525 419 q 483 333 503 372 q 437 243 464 294 q 379 133 410 192 q 449 188 414 160 q 521 246 485 217 m 104 128 q 163 153 129 126 q 231 222 196 181 q 298 312 265 264 q 353 400 331 360 q 332 403 346 403 q 269 383 301 403 q 206 333 236 363 q 151 267 176 303 q 111 201 126 232 q 93 150 96 171 q 104 128 90 129 m -35 -300 q 4 -270 -19 -300 q 58 -189 28 -240 q -41 -269 -11 -239 q -35 -300 -71 -300 z "},"h":{"ha":550,"x_min":0,"x_max":610,"o":"m 574 249 q 601 262 592 265 q 610 243 610 258 q 600 206 610 228 q 569 165 590 185 q 526 126 557 153 q 463 70 496 99 q 399 20 429 42 q 354 -1 368 -1 q 342 3 349 -1 q 328 20 335 8 q 316 53 321 32 q 311 106 311 74 q 333 229 311 163 q 385 354 356 296 q 220 209 281 269 q 128 109 160 149 q 88 49 97 69 q 78 25 78 29 q 76 24 78 25 q 70 4 74 10 q 51 -1 67 -1 q 26 7 36 -1 q 10 28 17 15 q 2 55 4 40 q 0 82 0 69 q 22 224 0 147 q 76 377 43 300 q 148 525 108 454 q 224 651 188 596 q 290 738 261 706 q 329 771 318 771 q 354 763 336 771 q 391 745 372 756 q 424 722 410 735 q 438 700 438 710 q 429 681 438 692 q 405 652 421 671 q 365 603 389 633 q 308 522 340 572 q 237 398 276 471 q 151 222 197 325 q 244 312 193 265 q 344 397 296 358 q 431 461 392 436 q 485 486 469 486 q 521 481 503 486 q 553 465 539 475 q 577 444 568 456 q 586 424 586 433 q 565 388 586 417 q 517 317 544 358 q 461 225 489 275 q 418 126 433 175 q 450 151 426 133 q 499 188 474 168 q 545 226 524 208 q 574 249 567 243 z "},"i":{"ha":236,"x_min":0,"x_max":436,"o":"m 261 249 q 287 262 278 265 q 296 243 296 258 q 287 206 296 228 q 257 165 278 185 q 216 126 244 153 q 156 71 188 99 q 97 22 125 43 q 56 0 69 0 q 41 2 50 0 q 23 15 32 4 q 7 47 14 25 q 0 107 0 68 q 22 228 0 163 q 72 350 43 293 q 130 445 101 407 q 174 483 158 483 q 238 466 210 483 q 267 428 267 449 q 247 390 267 419 q 202 317 228 360 q 149 224 176 275 q 107 126 122 174 q 140 151 117 133 q 188 188 163 168 q 233 225 213 208 q 261 249 254 242 m 338 732 q 408 722 385 738 q 433 688 431 706 q 431 665 436 668 q 412 651 426 661 q 371 612 397 640 q 304 514 344 583 q 274 529 288 521 q 252 548 263 536 q 239 575 242 560 q 246 616 236 590 q 272 667 256 642 q 305 710 288 692 q 338 732 322 729 z "},"j":{"ha":233,"x_min":-340,"x_max":435,"o":"m 336 732 q 406 722 383 738 q 432 688 429 706 q 430 665 435 668 q 410 651 425 661 q 369 612 396 640 q 303 514 343 583 q 272 529 286 521 q 251 548 261 536 q 238 575 240 560 q 244 616 235 590 q 270 667 254 642 q 303 710 286 692 q 336 732 321 729 m 269 249 q 297 258 286 261 q 308 242 307 256 q 300 208 310 229 q 265 165 290 188 q 165 76 221 121 q 47 -14 108 31 q -39 -162 4 -90 q -120 -289 -82 -233 q -189 -378 -158 -344 q -236 -412 -219 -412 q -276 -403 -257 -412 q -309 -375 -294 -393 q -332 -332 -324 -357 q -340 -278 -340 -307 q -324 -222 -340 -253 q -277 -159 -307 -192 q -204 -94 -247 -126 q -107 -33 -161 -61 q 29 202 -22 104 q 112 363 81 300 q 159 455 143 425 q 190 485 175 485 q 249 469 225 485 q 272 432 272 454 q 261 404 272 429 q 231 338 250 379 q 185 244 211 297 q 129 135 160 192 q 200 191 165 163 q 269 249 235 219 m -279 -293 q -259 -281 -272 -293 q -230 -248 -246 -268 q -197 -203 -214 -228 q -167 -153 -181 -178 q -226 -203 -199 -178 q -272 -248 -254 -228 q -294 -281 -290 -268 q -279 -293 -297 -293 z "},"k":{"ha":478,"x_min":0,"x_max":550,"o":"m 325 115 q 359 123 339 113 q 404 152 379 133 q 458 196 429 171 q 519 249 488 221 q 540 255 532 260 q 549 235 549 250 q 543 201 550 221 q 518 164 536 182 q 460 101 489 131 q 404 48 432 71 q 350 12 376 25 q 300 -3 324 -1 q 255 12 275 -4 q 219 52 235 28 q 191 105 203 76 q 172 157 179 133 q 147 137 160 151 q 124 106 135 122 q 104 72 113 89 q 93 43 96 54 q 78 6 86 14 q 51 -3 71 -3 q 26 6 36 -3 q 10 26 17 14 q 2 54 4 39 q 0 82 0 69 q 21 229 0 151 q 74 383 42 307 q 144 528 106 458 q 217 651 182 599 q 281 736 253 704 q 319 768 308 768 q 345 760 328 768 q 381 742 363 753 q 414 718 400 731 q 428 696 428 706 q 422 679 428 688 q 401 654 415 671 q 367 610 388 638 q 317 538 346 583 q 252 426 289 493 q 171 265 215 360 q 242 339 203 300 q 320 410 282 378 q 392 464 358 443 q 443 485 425 485 q 485 465 468 485 q 510 422 503 446 q 517 378 518 397 q 507 358 517 358 q 484 368 492 358 q 454 378 476 378 q 360 340 413 378 q 250 242 308 301 q 262 203 254 225 q 278 163 269 182 q 299 131 288 144 q 325 115 311 117 z "},"l":{"ha":244,"x_min":0,"x_max":413,"o":"m 274 260 q 298 272 290 276 q 303 250 306 267 q 288 210 300 233 q 256 168 276 188 q 217 131 244 158 q 159 74 190 103 q 98 22 128 44 q 51 0 68 0 q 26 8 36 0 q 10 30 17 17 q 2 58 4 43 q 0 85 0 72 q 21 216 0 143 q 74 365 42 289 q 147 513 107 440 q 222 642 186 586 q 287 733 258 699 q 326 768 315 768 q 348 762 333 768 q 377 747 363 756 q 402 726 392 738 q 413 706 413 715 q 385 660 413 696 q 315 556 357 624 q 221 388 272 489 q 124 149 169 288 q 147 160 125 144 q 197 196 169 175 q 247 236 224 217 q 274 260 269 256 z "},"m":{"ha":771,"x_min":0,"x_max":840,"o":"m 804 249 q 831 262 822 265 q 840 243 840 258 q 831 206 840 228 q 800 165 821 185 q 757 126 788 153 q 693 71 726 99 q 630 22 660 43 q 586 0 600 0 q 574 5 581 0 q 560 22 567 10 q 548 54 553 33 q 543 107 543 75 q 560 211 543 156 q 600 319 576 267 q 484 212 532 263 q 406 120 436 161 q 359 51 375 79 q 339 14 343 24 q 332 3 336 7 q 317 0 328 0 q 292 8 301 0 q 276 29 282 17 q 267 56 269 42 q 265 83 265 71 q 281 207 265 146 q 321 321 297 268 q 211 217 256 267 q 138 126 167 167 q 94 58 108 86 q 75 17 79 29 q 67 4 72 8 q 51 0 63 0 q 26 8 36 0 q 10 29 17 17 q 2 56 4 42 q 0 83 0 71 q 22 228 0 157 q 74 357 44 300 q 131 449 103 414 q 171 485 160 485 q 209 478 189 485 q 244 460 229 471 q 270 435 260 449 q 281 406 281 421 q 272 389 281 399 q 246 359 263 379 q 205 303 229 339 q 150 210 181 268 q 234 308 190 260 q 317 396 278 357 q 388 460 357 435 q 436 485 419 485 q 474 478 454 485 q 510 460 494 471 q 535 435 525 449 q 546 406 546 421 q 537 389 546 399 q 510 358 528 379 q 468 301 493 338 q 413 206 443 265 q 501 306 454 256 q 591 395 549 356 q 667 460 633 435 q 717 485 700 485 q 753 479 735 485 q 785 464 771 474 q 808 443 799 454 q 817 422 817 432 q 797 386 817 415 q 749 315 776 357 q 693 224 721 274 q 650 126 665 175 q 681 151 658 133 q 729 188 704 168 q 776 226 754 208 q 804 249 797 243 z "},"n":{"ha":535,"x_min":0,"x_max":592,"o":"m 556 249 q 583 262 574 265 q 592 243 592 258 q 582 206 592 228 q 551 165 572 185 q 508 126 539 153 q 444 71 478 99 q 381 22 411 43 q 338 0 351 0 q 325 5 332 0 q 311 22 318 10 q 299 54 304 33 q 294 107 294 75 q 311 211 294 156 q 351 319 328 267 q 226 206 278 260 q 142 110 175 151 q 92 42 108 68 q 72 10 75 15 q 51 0 68 0 q 26 8 36 0 q 10 29 17 17 q 2 56 4 42 q 0 83 0 71 q 22 228 0 157 q 74 357 44 300 q 131 449 103 414 q 171 485 160 485 q 209 478 189 485 q 244 460 229 471 q 270 435 260 449 q 281 406 281 421 q 272 389 281 399 q 244 358 263 379 q 201 299 226 336 q 146 201 176 263 q 239 302 189 251 q 335 394 289 353 q 416 460 381 435 q 468 485 451 485 q 504 479 486 485 q 536 464 522 474 q 559 443 550 454 q 568 422 568 432 q 548 386 568 415 q 500 315 528 357 q 444 224 472 274 q 401 126 417 175 q 433 151 410 133 q 481 188 456 168 q 527 225 506 208 q 556 249 549 242 z "},"o":{"ha":411,"x_min":0,"x_max":499,"o":"m 474 329 q 494 333 490 343 q 494 303 499 324 q 481 258 490 282 q 460 222 471 235 q 395 164 424 185 q 343 132 367 143 q 251 37 303 74 q 146 0 199 0 q 103 7 128 0 q 55 31 78 14 q 16 75 32 47 q 0 144 0 103 q 8 203 0 174 q 27 256 15 232 q 53 294 39 279 q 79 308 67 308 q 104 307 97 308 q 131 378 113 346 q 177 433 150 410 q 238 470 204 457 q 311 483 272 483 q 357 473 336 483 q 392 445 378 463 q 415 406 407 428 q 422 360 422 383 q 417 306 422 332 q 404 251 413 279 q 440 286 422 267 q 474 329 457 306 m 294 422 q 255 410 275 422 q 219 378 235 399 q 192 330 203 357 q 182 272 182 303 q 202 219 182 236 q 250 197 222 203 q 283 274 268 235 q 304 347 297 314 q 310 401 311 379 q 294 422 308 422 m 124 90 q 163 84 142 72 q 207 126 185 96 q 131 171 156 140 q 117 122 121 144 q 124 90 114 100 z "},"p":{"ha":435,"x_min":-179,"x_max":458,"o":"m 394 481 q 442 453 425 481 q 458 381 458 426 q 449 329 458 364 q 424 252 440 294 q 385 165 408 210 q 335 84 363 121 q 275 24 307 47 q 208 0 243 0 q 165 13 183 0 q 138 45 147 26 q 128 82 128 64 q 139 111 128 100 q 152 114 149 121 q 163 107 156 107 q 203 119 183 107 q 239 149 222 131 q 270 192 256 168 q 297 242 285 217 q 349 376 325 300 q 244 290 297 344 q 147 172 200 244 q 46 -6 93 99 q -22 -167 14 -79 q -94 -358 -57 -254 q -100 -385 -100 -375 q -99 -403 -100 -396 q -97 -413 -97 -410 q -100 -418 -96 -417 q -123 -415 -110 -421 q -149 -397 -136 -410 q -170 -364 -161 -383 q -179 -318 -179 -344 q -156 -184 -179 -264 q -97 -16 -132 -104 q -19 161 -61 72 q 60 320 22 250 q 124 435 97 390 q 156 479 150 479 q 192 474 174 479 q 224 459 210 468 q 247 439 238 450 q 256 418 256 428 q 242 389 256 411 q 206 322 229 367 q 311 435 261 389 q 394 481 361 481 z "},"q":{"ha":488,"x_min":0,"x_max":556,"o":"m 556 424 q 531 374 556 418 q 471 261 507 329 q 391 110 435 193 q 308 -58 347 26 q 240 -220 269 -143 q 204 -353 211 -297 q 206 -397 200 -385 q 199 -410 211 -410 q 149 -385 171 -410 q 126 -308 126 -361 q 140 -212 126 -268 q 175 -92 153 -156 q 226 40 197 -28 q 283 172 254 107 q 240 113 263 143 q 194 57 217 82 q 149 17 171 32 q 110 1 126 1 q 31 38 61 1 q 0 133 0 75 q 28 247 0 185 q 101 362 56 308 q 208 451 147 415 q 333 486 268 486 q 379 465 363 486 q 403 424 396 444 q 435 463 422 447 q 454 486 447 478 q 490 481 472 486 q 523 465 508 475 q 547 444 538 456 q 556 424 556 433 m 139 132 q 176 160 147 132 q 240 228 204 188 q 315 317 276 269 q 385 401 354 364 q 364 406 378 406 q 301 385 333 406 q 240 335 269 365 q 185 269 210 304 q 146 203 161 233 q 128 152 131 172 q 139 132 125 132 z "},"r":{"ha":390,"x_min":-44,"x_max":453,"o":"m 418 249 q 444 262 435 265 q 453 243 453 258 q 443 206 453 228 q 413 165 433 185 q 370 126 400 153 q 307 71 340 99 q 244 22 274 43 q 200 0 214 0 q 188 5 194 0 q 174 22 181 10 q 162 54 167 33 q 157 107 157 75 q 167 168 157 131 q 193 245 178 206 q 224 323 208 285 q 253 388 240 361 q 239 385 246 386 q 204 381 228 383 q 115 269 169 329 q -12 143 60 208 q -31 138 -24 132 q -42 156 -39 143 q -40 183 -44 168 q -21 210 -36 199 q 17 244 -3 224 q 56 287 36 264 q 94 335 76 310 q 129 383 113 360 q 85 406 103 390 q 67 454 67 422 q 76 506 67 481 q 105 553 86 532 q 149 586 124 574 q 206 599 174 599 q 267 565 254 599 q 254 469 279 531 q 293 480 274 475 q 329 485 313 485 l 329 483 q 365 478 347 483 q 397 463 383 472 q 420 442 411 453 q 429 421 429 431 q 409 385 429 414 q 361 314 389 356 q 306 223 333 272 q 264 126 278 174 q 295 151 272 133 q 343 188 318 168 q 390 225 368 208 q 418 249 411 242 m 176 522 q 154 513 164 522 q 142 493 144 504 q 147 472 140 482 q 174 458 154 461 q 190 504 188 486 q 176 522 192 522 z "},"s":{"ha":289,"x_min":-104,"x_max":363,"o":"m 325 247 q 355 261 347 267 q 360 239 363 256 q 345 201 357 222 q 319 165 333 179 q 274 124 300 146 q 219 79 249 101 q 215 -12 219 32 q 195 -92 210 -57 q 154 -147 181 -126 q 83 -168 128 -168 q 28 -142 54 -168 q -18 -84 3 -115 q -56 -26 -39 -53 q -85 0 -72 0 q -100 7 -96 0 q -102 22 -104 14 q -92 39 -100 31 q -71 50 -85 47 q -68 78 -74 65 q -58 92 -62 92 q -51 88 -54 92 q -41 81 -47 85 q -25 74 -35 78 q 1 71 -15 71 q 47 78 24 71 q 97 96 71 85 q 98 188 99 140 q 96 275 97 235 q 35 208 68 242 q -36 140 1 175 q -56 135 -47 129 q -67 153 -64 140 q -67 183 -71 167 q -49 211 -64 200 q 30 289 -12 239 q 108 392 72 339 q 132 431 118 414 q 160 459 146 447 q 190 476 175 471 q 214 482 204 482 q 254 477 232 482 q 287 458 276 472 q 290 419 297 444 q 243 356 282 394 q 219 283 222 335 q 218 165 215 231 q 278 210 251 189 q 325 247 306 232 m 74 -46 q 92 13 85 -35 q 14 0 54 0 l 1 0 q 21 -24 11 -12 q 40 -42 31 -35 q 58 -51 50 -50 q 74 -46 67 -53 z "},"t":{"ha":226,"x_min":0,"x_max":631,"o":"m 447 732 q 526 734 492 740 q 584 714 561 728 q 619 683 607 700 q 631 653 631 667 q 625 626 631 639 q 612 603 619 613 q 597 589 604 593 q 585 589 589 585 q 584 603 581 593 q 590 623 588 613 q 592 641 593 633 q 581 649 592 649 q 558 645 578 649 q 507 638 538 642 q 439 628 476 633 q 365 619 401 624 q 246 424 308 542 q 111 132 183 307 q 158 168 133 149 q 205 204 183 188 q 242 233 226 221 q 261 249 257 244 q 287 262 278 265 q 296 243 296 258 q 286 206 296 228 q 256 165 276 185 q 219 131 244 154 q 165 81 194 107 q 109 32 136 54 q 67 3 82 10 q 61 1 64 1 q 51 0 58 0 q 26 8 36 0 q 10 29 17 17 q 2 56 4 42 q 0 83 0 71 q 17 203 0 138 q 63 339 35 269 q 128 478 92 408 q 203 613 165 549 l 201 613 q 149 617 174 613 q 105 633 124 622 q 75 660 86 643 q 64 704 64 678 q 72 740 64 725 q 89 765 79 756 q 108 777 99 774 q 119 778 117 781 q 119 760 125 771 q 110 738 114 749 q 113 718 107 726 q 149 710 119 710 q 199 713 165 710 q 272 721 232 715 q 342 814 319 790 q 378 838 365 838 q 401 832 385 838 q 433 817 417 826 q 460 796 449 807 q 472 775 472 785 q 472 769 472 771 q 470 763 472 767 q 463 751 468 758 q 447 732 457 744 z "},"u":{"ha":549,"x_min":0,"x_max":606,"o":"m 569 247 q 597 260 588 264 q 606 242 606 257 q 596 205 606 226 q 565 164 586 183 q 522 124 553 151 q 458 69 492 97 q 395 20 425 42 q 351 -1 365 -1 q 339 3 346 -1 q 325 20 332 8 q 313 53 318 32 q 308 106 308 74 q 313 156 308 129 q 325 210 318 182 q 259 133 294 171 q 188 66 224 96 q 121 17 153 36 q 64 -1 89 -1 q 48 6 58 -1 q 27 28 38 14 q 8 62 17 42 q 0 107 0 82 q 10 187 0 144 q 38 271 21 229 q 74 351 54 313 q 113 418 94 389 q 147 465 132 447 q 171 482 163 482 q 209 476 189 482 q 244 458 229 469 q 270 433 260 447 q 281 404 281 419 q 267 380 281 401 q 235 328 254 358 q 194 263 215 297 q 156 199 172 228 q 133 150 140 169 q 135 131 125 131 q 177 156 149 131 q 240 222 206 182 q 313 306 275 261 q 385 391 351 351 q 445 456 419 431 q 482 482 471 482 q 518 476 500 482 q 550 462 536 471 q 573 442 564 453 q 582 421 582 431 q 562 385 582 414 q 514 314 542 356 q 458 223 486 272 q 415 125 431 174 q 447 149 424 132 q 494 187 469 167 q 541 224 519 207 q 569 247 563 242 z "},"v":{"ha":375,"x_min":0,"x_max":451,"o":"m 451 483 q 430 387 451 440 q 373 280 408 333 q 294 176 338 226 q 208 86 251 125 q 127 24 165 47 q 64 0 89 0 q 48 8 58 0 q 27 29 38 15 q 8 63 17 43 q 0 108 0 83 q 10 188 0 146 q 38 272 21 231 q 74 352 54 314 q 113 419 94 390 q 147 466 132 449 q 171 483 163 483 q 234 468 208 483 q 260 422 260 453 q 247 398 260 419 q 218 346 235 376 q 182 280 201 315 q 149 213 163 244 q 129 159 135 182 q 135 131 124 136 q 172 151 149 131 q 222 206 196 172 q 276 280 249 239 q 326 363 304 321 q 363 441 349 404 q 376 503 376 478 q 372 540 376 528 q 364 557 368 551 q 358 565 360 563 q 360 572 356 567 q 384 577 368 581 q 415 561 400 574 q 440 528 429 549 q 451 483 451 508 z "},"w":{"ha":603,"x_min":0,"x_max":676,"o":"m 586 564 q 610 569 594 572 q 640 554 625 567 q 665 522 654 542 q 676 478 676 503 q 655 382 676 435 q 599 276 633 329 q 522 174 565 224 q 437 85 479 124 q 356 24 394 47 q 294 0 318 0 q 281 7 290 0 q 260 26 271 14 q 242 57 250 39 q 232 97 233 75 q 140 28 185 57 q 64 0 94 0 q 48 8 58 0 q 27 29 38 15 q 8 63 17 43 q 0 107 0 82 q 22 227 0 163 q 74 347 44 292 q 131 440 103 403 q 169 478 158 478 q 206 472 188 478 q 241 454 225 465 q 267 429 257 443 q 276 400 276 415 q 263 376 276 397 q 231 325 250 356 q 192 260 213 294 q 155 197 171 226 q 131 149 139 168 q 133 129 124 129 q 176 151 154 129 q 219 204 197 172 q 263 273 242 236 q 301 342 283 310 q 360 439 331 400 q 400 478 389 478 q 438 472 418 478 q 473 454 457 465 q 499 429 489 443 q 508 400 508 415 q 495 376 508 397 q 463 325 482 356 q 423 260 444 294 q 385 197 401 226 q 363 149 369 168 q 364 129 356 129 q 401 149 378 129 q 450 202 424 169 q 504 276 476 235 q 553 358 532 317 q 589 435 575 399 q 603 496 603 471 q 599 533 603 521 q 590 550 594 544 q 584 558 586 556 q 586 564 582 560 z "},"x":{"ha":522,"x_min":-35,"x_max":579,"o":"m 536 249 q 566 261 557 267 q 573 240 575 256 q 560 202 571 224 q 532 165 550 181 q 486 125 517 153 q 420 69 456 97 q 351 20 385 42 q 296 -1 317 -1 q 237 34 272 -1 q 169 128 201 69 q 70 26 111 72 q 18 -44 29 -21 q 1 -51 11 -58 q -19 -26 -10 -43 q -31 10 -28 -10 q -26 43 -35 31 q 48 142 10 96 q 125 231 86 189 q 103 314 111 271 q 96 401 96 357 q 114 442 96 424 q 153 472 132 460 q 192 488 175 485 q 208 485 210 492 q 208 419 204 461 q 222 331 211 378 q 364 444 301 404 q 454 485 426 485 q 513 474 489 485 q 552 449 538 463 q 573 422 567 435 q 579 403 579 408 q 572 374 579 383 q 554 364 564 364 q 550 368 550 364 q 551 377 550 372 q 551 386 551 382 q 544 390 550 390 q 492 376 524 390 q 423 336 461 361 q 342 278 385 311 q 258 208 300 244 q 295 134 275 164 q 335 104 315 104 q 368 123 340 104 q 429 166 396 142 q 493 214 463 190 q 536 249 524 238 z "},"y":{"ha":515,"x_min":-40,"x_max":607,"o":"m 568 249 q 594 260 583 263 q 606 244 604 257 q 597 210 607 231 q 563 167 588 189 q 462 78 518 122 q 344 -11 406 33 q 258 -159 301 -87 q 178 -286 215 -231 q 110 -376 140 -342 q 64 -410 81 -410 q 24 -400 43 -410 q -9 -372 6 -390 q -32 -329 -24 -354 q -40 -275 -40 -304 q 22 -167 -40 -225 q 183 -37 85 -108 q 253 88 222 33 q 313 199 285 143 q 248 128 283 163 q 177 65 213 93 q 110 19 142 36 q 57 1 79 1 q 40 9 51 1 q 19 30 29 17 q 1 63 8 43 q -7 108 -7 83 q 15 230 -7 164 q 67 351 38 296 q 124 444 96 407 q 164 482 153 482 q 201 476 182 482 q 236 458 221 469 q 262 433 251 447 q 272 404 272 419 q 259 380 272 401 q 226 328 246 358 q 186 263 207 297 q 149 199 165 229 q 125 150 132 169 q 128 131 118 131 q 167 150 140 131 q 228 201 194 169 q 298 271 261 232 q 369 349 335 310 q 429 422 403 388 q 468 481 456 457 q 471 482 469 482 q 507 476 489 482 q 539 462 525 471 q 562 442 553 453 q 571 421 571 431 q 560 395 571 418 q 530 333 549 372 q 484 244 511 294 q 426 136 457 193 q 497 191 461 164 q 568 249 532 218 m 21 -293 q 56 -264 35 -293 q 106 -186 78 -235 q 50 -229 74 -210 q 14 -263 26 -249 q 3 -285 1 -278 q 21 -293 4 -293 z "},"z":{"ha":433,"x_min":0,"x_max":482,"o":"m 289 135 q 342 113 321 135 q 363 68 363 92 q 355 44 363 57 q 337 22 347 32 q 316 9 326 13 q 300 11 306 6 q 301 25 294 17 q 313 42 307 33 q 321 56 319 50 q 310 63 322 63 q 252 53 293 63 q 167 31 211 43 q 82 8 122 18 q 28 -1 42 -1 q 8 22 17 -1 q 0 78 0 44 q 17 110 0 90 q 60 153 33 129 q 123 203 88 176 q 194 256 158 231 q 390 385 281 315 q 301 371 347 382 q 211 344 261 361 q 108 297 161 326 q 85 305 94 289 q 73 346 75 321 q 78 398 71 371 q 107 438 86 425 q 151 450 115 443 q 231 464 188 457 q 312 476 274 471 q 363 481 350 481 q 392 476 375 481 q 424 460 408 471 q 451 428 440 449 q 461 376 461 407 q 471 360 465 368 q 478 344 475 353 q 482 328 482 335 q 382 282 435 310 q 281 219 338 258 q 165 122 224 181 q 216 131 186 128 q 289 135 246 135 z "},"a":{"ha":524,"x_min":0,"x_max":578,"o":"m 543 249 q 569 262 560 265 q 578 244 578 258 q 568 207 578 229 q 538 167 558 185 q 494 126 525 154 q 431 71 464 99 q 367 22 397 43 q 325 0 338 0 q 312 5 319 0 q 297 22 304 10 q 285 54 290 33 q 281 107 281 75 q 289 179 281 142 q 244 117 268 149 q 196 59 219 85 q 150 17 172 33 q 110 0 128 0 q 31 38 61 0 q 0 132 0 75 q 28 247 0 185 q 101 361 56 308 q 207 449 147 414 q 332 485 267 485 q 376 467 360 485 q 400 431 392 450 q 431 470 417 456 q 454 485 446 485 q 490 479 472 485 q 522 465 508 474 q 545 444 536 456 q 554 424 554 433 q 534 386 554 415 q 486 315 514 357 q 431 224 458 274 q 389 126 403 175 q 420 151 397 133 q 468 189 443 169 q 515 226 493 208 q 543 249 536 243 m 138 131 q 167 150 146 131 q 214 199 188 169 q 269 262 240 228 q 322 326 297 296 q 361 376 346 356 q 378 397 376 396 q 382 403 381 400 q 364 404 376 404 q 301 384 333 404 q 240 333 269 364 q 185 267 210 303 q 144 201 160 232 q 126 151 129 171 q 138 131 124 131 z "},"b":{"ha":433,"x_min":-18,"x_max":478,"o":"m 406 485 q 463 447 447 485 q 471 349 478 410 q 454 284 468 321 q 419 208 440 247 q 372 131 399 168 q 319 63 346 93 q 265 15 292 33 q 215 -3 238 -3 q 172 11 190 -3 q 143 44 153 25 q 133 83 133 64 q 144 113 133 101 q 153 117 150 118 q 158 115 156 117 q 163 110 160 113 q 169 110 165 108 q 214 139 189 117 q 263 192 239 161 q 310 255 288 222 q 346 315 332 288 q 363 358 360 342 q 353 372 365 375 q 243 268 296 324 q 152 157 199 219 q 78 24 106 94 q 77 17 78 22 q 74 8 76 13 q 66 1 71 4 q 51 -3 61 -3 q 3 24 21 0 q -17 74 -15 47 q -1 160 -18 106 q 43 279 15 214 q 106 415 71 344 q 178 552 142 486 q 251 674 215 618 q 313 765 286 729 q 337 763 317 771 q 378 743 357 756 q 413 716 399 731 q 421 693 426 701 q 365 613 396 661 q 301 509 333 564 q 239 397 269 454 q 183 289 208 339 q 243 360 213 325 q 303 424 274 396 q 358 468 332 451 q 406 485 385 485 z "},"c":{"ha":390,"x_min":0,"x_max":482,"o":"m 306 486 q 378 464 347 486 q 408 397 408 442 q 372 306 408 336 q 294 275 336 275 q 267 281 276 275 q 256 293 258 286 q 256 306 253 300 q 267 311 260 311 q 313 322 293 311 q 341 347 332 333 q 347 372 350 361 q 324 383 343 383 q 264 360 299 383 q 198 299 229 336 q 145 219 167 263 q 124 138 124 176 q 147 95 124 101 q 204 101 169 89 q 280 137 239 113 q 356 185 321 161 q 416 228 392 210 q 443 249 440 247 q 474 263 465 268 q 478 240 482 257 q 464 201 475 224 q 438 165 453 179 q 378 113 413 142 q 305 58 344 83 q 220 15 265 32 q 129 -3 175 -3 q 35 41 71 -3 q 0 149 0 85 q 34 274 0 213 q 116 382 68 335 q 216 458 164 429 q 306 486 268 486 z "},"d":{"ha":535,"x_min":0,"x_max":711,"o":"m 568 251 q 595 265 586 268 q 604 246 604 261 q 594 209 604 231 q 564 168 585 188 q 526 133 551 157 q 472 82 501 108 q 416 33 443 56 q 374 3 389 10 q 364 -1 369 -1 l 358 -1 q 333 8 343 -1 q 317 30 324 17 q 309 58 311 43 q 307 86 307 74 q 314 157 307 119 q 333 235 321 194 q 277 153 307 194 q 217 78 247 113 q 160 23 188 44 q 110 1 132 1 q 31 39 61 1 q 0 133 0 76 q 28 248 0 186 q 101 363 56 310 q 208 452 147 417 q 333 488 268 488 q 377 469 361 488 q 401 432 393 451 q 467 556 419 464 q 600 767 515 647 q 623 766 604 772 q 662 747 642 760 q 697 721 682 735 q 707 697 711 707 q 669 635 696 674 q 603 531 642 596 q 517 369 564 465 q 418 133 469 272 q 465 170 440 151 q 512 206 490 189 q 549 235 533 222 q 568 251 564 247 m 139 132 q 184 160 154 132 q 248 229 214 188 q 318 318 282 271 q 382 404 354 365 q 374 406 378 406 q 365 407 371 407 q 302 387 335 407 q 240 336 269 367 q 185 269 210 306 q 146 203 161 233 q 128 152 131 172 q 139 132 125 132 z "},"A":{"ha":781,"x_min":0,"x_max":1101,"o":"m 1101 807 q 1063 747 1101 799 q 966 615 1024 694 q 842 439 908 536 q 718 242 775 342 q 750 192 744 214 q 750 154 756 169 q 734 133 744 139 q 718 133 724 128 q 719 144 714 138 q 718 156 725 150 q 682 175 704 168 q 616 24 642 96 q 592 -107 590 -49 q 595 -130 592 -124 q 603 -137 599 -136 q 611 -137 607 -137 q 617 -137 615 -136 q 619 -158 624 -144 q 586 -171 614 -171 q 532 -135 556 -171 q 508 -28 508 -100 q 522 70 508 17 q 560 185 536 124 q 447 181 504 185 q 349 178 390 178 l 331 178 q 227 47 275 113 q 144 -83 179 -19 q 88 -206 108 -146 q 68 -319 68 -267 q 73 -342 68 -335 q 83 -351 78 -349 q 92 -355 88 -354 q 97 -357 97 -356 q 94 -370 97 -360 q 76 -381 90 -381 q 48 -369 60 -381 q 28 -337 36 -357 q 18 -292 21 -317 q 15 -240 15 -267 q 67 -38 15 -150 q 199 192 118 74 q 127 213 163 200 q 64 249 92 226 q 18 302 36 271 q 0 376 0 333 q 41 510 0 446 q 147 631 82 575 q 294 732 213 686 q 456 810 375 778 q 610 861 538 843 q 731 879 682 879 q 782 870 760 879 q 819 850 804 861 q 858 872 842 864 q 883 879 874 879 q 921 865 907 879 q 942 831 935 851 q 993 879 982 879 q 1018 872 1000 879 q 1055 853 1036 864 q 1088 829 1074 842 q 1101 807 1101 817 m 64 368 q 81 347 64 358 q 126 324 99 335 q 191 303 154 313 q 267 289 228 294 q 369 416 315 353 q 475 537 422 479 q 580 646 528 594 q 679 739 632 697 q 519 714 597 735 q 374 661 442 693 q 249 590 306 629 q 151 511 192 551 q 87 433 110 471 q 64 368 64 396 m 426 285 q 523 288 479 286 q 603 286 567 289 q 701 474 647 381 q 808 647 756 567 q 629 487 731 581 q 426 285 528 393 z "},"B":{"ha":732,"x_min":0,"x_max":933,"o":"m 933 686 q 899 576 933 631 q 812 471 864 521 q 699 378 760 421 q 583 306 638 335 q 656 258 626 289 q 686 179 686 228 q 640 35 686 100 q 524 -74 593 -29 q 373 -144 454 -119 q 222 -169 292 -169 q 144 -145 176 -169 q 91 -90 111 -121 q 64 -32 71 -60 q 63 1 57 -4 q 75 -1 68 7 q 96 -22 82 -10 q 132 -44 110 -33 q 190 -56 154 -56 q 283 -44 235 -56 q 378 -14 332 -33 q 468 30 425 6 q 543 81 511 54 q 594 133 575 107 q 614 181 614 158 q 593 220 614 206 q 529 235 572 235 q 461 226 489 235 q 422 218 433 218 q 409 226 415 218 q 398 244 403 233 q 390 268 393 256 q 388 292 388 281 q 371 326 375 310 q 367 343 368 335 q 269 201 310 272 q 228 68 228 129 q 231 44 228 51 q 240 36 235 38 q 249 36 244 35 q 256 36 253 38 q 253 15 263 28 q 224 1 244 1 q 174 33 192 1 q 156 117 156 64 q 179 231 156 168 q 238 356 203 293 q 316 479 274 419 q 397 585 358 539 q 463 658 435 631 q 500 686 492 686 q 533 678 517 686 q 564 659 550 671 q 586 634 578 647 q 594 611 594 621 q 574 578 594 603 q 519 519 553 554 q 446 438 486 483 q 367 343 406 393 q 401 358 367 343 q 488 397 436 372 q 601 456 540 422 q 715 530 663 490 q 801 614 767 569 q 836 704 836 658 q 824 740 836 725 q 791 765 811 756 q 747 778 771 774 q 699 782 722 782 q 456 741 569 782 q 260 640 343 700 q 128 515 176 581 q 81 397 81 449 q 85 351 81 368 q 90 332 88 340 q 44 356 64 340 q 14 394 28 369 q 0 457 0 418 q 56 603 0 528 q 204 741 111 679 q 418 843 297 803 q 669 883 539 883 q 789 863 739 883 q 871 811 839 842 q 918 747 903 781 q 933 686 933 713 z "},"C":{"ha":578,"x_min":0,"x_max":899,"o":"m 814 878 q 833 874 819 878 q 862 863 847 871 q 888 841 876 854 q 899 808 899 828 q 882 788 899 794 q 833 762 865 781 q 755 703 801 743 q 647 586 708 664 q 626 588 639 575 q 613 629 613 601 q 625 681 613 653 q 657 739 638 710 q 520 669 588 717 q 392 556 453 621 q 278 415 331 492 q 186 260 225 339 q 126 107 147 182 q 104 -31 104 32 q 111 -74 104 -65 q 132 -83 118 -83 q 189 -67 157 -83 q 255 -27 221 -51 q 322 28 289 -3 q 380 88 354 58 q 422 141 406 117 q 438 178 438 165 q 435 202 438 194 q 438 214 433 210 q 452 210 442 217 q 474 188 463 203 q 494 152 485 174 q 503 106 503 131 q 487 56 503 85 q 445 -2 471 28 q 385 -61 419 -32 q 316 -113 351 -90 q 245 -151 281 -136 q 181 -165 210 -165 q 47 -108 94 -165 q 0 38 0 -51 q 31 214 0 119 q 113 401 61 308 q 232 581 165 494 q 372 733 299 667 q 518 838 444 799 q 656 878 592 878 q 703 866 679 878 q 746 839 726 854 q 785 867 767 857 q 814 878 803 878 z "},"D":{"ha":857,"x_min":-7,"x_max":983,"o":"m 701 879 q 848 849 793 879 q 933 778 903 819 q 974 693 964 736 q 983 624 983 650 q 942 449 983 540 q 832 271 900 358 q 677 103 764 183 q 500 -37 590 24 q 324 -133 410 -97 q 172 -168 238 -168 q 101 -156 139 -168 q 35 -124 63 -143 q 1 -78 8 -104 q 19 -26 -7 -53 q 32 -25 28 -18 q 44 -44 36 -32 q 67 -66 51 -56 q 115 -76 83 -76 q 263 -40 181 -76 q 431 57 346 -4 q 599 198 517 118 q 746 365 682 278 q 849 541 810 451 q 889 710 889 631 q 858 757 889 736 q 769 778 826 778 q 665 769 717 778 q 681 738 681 751 q 648 688 681 729 q 567 585 615 646 q 463 452 519 525 q 358 308 406 379 q 277 173 310 236 q 244 68 244 110 q 248 44 244 51 q 256 36 251 38 q 265 36 261 35 q 272 36 269 38 q 270 15 279 28 q 240 1 261 1 q 190 33 208 1 q 172 117 172 64 q 188 205 172 156 q 231 310 204 254 q 293 425 258 367 q 365 538 328 483 q 438 642 401 593 q 506 729 475 692 q 352 658 424 700 q 228 569 281 615 q 144 478 175 524 q 114 394 114 432 q 115 369 114 381 q 119 349 117 357 q 125 331 122 339 q 79 354 99 339 q 49 392 63 368 q 35 456 35 417 q 60 552 35 503 q 130 649 85 601 q 238 738 175 696 q 374 811 300 779 q 531 861 449 843 q 701 879 614 879 z "},"E":{"ha":797,"x_min":0,"x_max":1040,"o":"m 929 881 q 994 858 971 881 q 1028 807 1018 835 q 1040 754 1039 779 q 1036 725 1040 729 q 1030 723 1032 721 q 1024 729 1028 725 q 1013 738 1019 733 q 993 742 1006 742 q 831 725 910 742 q 683 682 753 708 q 554 624 613 656 q 453 562 496 592 q 388 508 411 532 q 364 474 364 483 q 384 460 364 467 q 436 447 404 453 q 506 435 468 440 q 581 426 544 431 q 647 420 617 422 q 690 418 676 418 q 714 399 704 418 q 728 357 724 381 q 731 313 733 333 q 719 289 729 292 q 456 201 565 254 q 276 100 347 149 q 139 -21 193 42 q 296 43 214 15 q 453 87 367 67 q 626 107 539 107 q 703 94 675 107 q 744 63 731 81 q 760 24 757 44 q 764 -8 764 4 q 760 -37 764 -28 q 754 -51 757 -47 q 744 -56 749 -57 q 726 -29 740 -42 q 691 -10 715 -18 q 625 -1 667 -1 q 373 -28 478 -1 q 199 -86 268 -54 q 95 -144 131 -118 q 51 -171 60 -171 q 17 -138 33 -171 q 0 -62 0 -106 q 23 10 0 -28 q 83 85 46 47 q 167 158 119 122 q 264 225 214 193 q 529 371 381 300 q 396 382 454 369 q 347 394 371 386 q 305 415 324 403 q 275 445 286 428 q 264 486 264 463 q 300 576 264 529 q 394 666 336 622 q 524 749 451 710 q 670 817 596 788 q 813 863 744 846 q 929 881 881 881 z "},"F":{"ha":557,"x_min":0,"x_max":1051,"o":"m 894 879 q 975 860 943 879 q 1024 817 1007 840 q 1047 772 1042 793 q 1047 746 1051 750 q 1032 738 1038 736 q 1019 745 1026 739 q 1000 758 1013 751 q 963 764 988 764 q 740 745 850 764 q 529 708 631 726 q 438 586 490 657 q 332 433 386 515 q 376 438 354 436 q 426 439 399 439 q 503 421 474 439 q 550 380 533 403 q 572 337 567 357 q 572 313 576 317 q 558 304 563 303 q 546 310 553 306 q 526 322 539 315 q 492 328 514 328 q 365 320 418 328 q 251 308 311 313 q 186 195 217 251 q 133 86 156 139 q 99 -15 111 33 q 86 -104 86 -64 q 90 -127 86 -121 q 98 -134 93 -133 q 107 -134 103 -135 q 113 -135 111 -133 q 115 -155 119 -142 q 82 -168 110 -168 q 28 -133 51 -168 q 4 -25 4 -97 q 34 130 4 42 q 111 314 64 218 q 71 329 90 319 q 35 352 51 339 q 10 382 19 365 q 0 419 0 399 q 10 442 0 433 q 32 439 21 450 q 34 430 35 435 q 39 421 33 425 q 61 413 44 417 q 117 410 78 410 q 139 410 128 410 q 161 411 150 410 q 244 554 201 485 q 326 683 286 624 q 313 683 319 683 q 300 682 307 682 q 185 695 235 682 q 101 730 135 708 q 51 780 68 751 q 33 839 33 808 q 53 898 33 869 q 104 948 72 926 q 176 982 136 969 q 258 994 217 994 q 272 988 268 994 q 276 975 276 982 q 271 962 275 968 q 258 956 267 956 q 206 946 235 956 q 150 919 176 936 q 106 882 124 903 q 88 839 88 861 q 124 806 88 819 q 240 792 160 792 q 321 797 275 792 q 419 811 367 803 q 463 861 444 843 q 488 879 481 879 q 524 867 497 879 q 572 838 551 854 q 750 866 664 853 q 894 879 836 879 z "},"G":{"ha":593,"x_min":0,"x_max":903,"o":"m 818 878 q 838 874 824 878 q 866 863 851 871 q 892 841 881 854 q 903 808 903 828 q 886 788 903 794 q 838 762 869 781 q 758 703 806 743 q 650 586 711 664 q 628 588 642 575 q 614 629 614 601 q 627 681 614 653 q 660 739 640 710 q 522 669 590 717 q 392 556 454 621 q 278 414 331 490 q 187 258 225 338 q 126 103 149 179 q 104 -35 104 28 q 112 -78 104 -68 q 133 -87 119 -87 q 191 -70 158 -87 q 258 -26 224 -53 q 326 34 293 1 q 387 98 360 67 q 430 156 414 129 q 446 194 446 182 l 446 210 q 355 189 406 207 q 242 129 304 171 q 218 133 225 118 q 212 172 211 147 q 221 222 213 196 q 243 261 229 249 q 292 281 253 269 q 381 298 332 293 q 478 297 431 303 q 553 261 526 290 q 574 227 569 242 q 576 204 579 213 q 567 188 574 193 q 543 199 557 193 q 515 206 532 203 q 478 211 499 210 q 501 173 490 196 q 511 122 511 150 q 476 41 511 90 q 390 -55 442 -8 q 282 -135 339 -101 q 181 -169 225 -169 q 48 -112 96 -169 q 0 33 0 -54 q 31 211 0 117 q 114 399 63 306 q 233 580 165 493 q 374 733 300 667 q 521 838 447 799 q 658 878 594 878 q 706 866 682 878 q 750 839 731 854 q 789 867 771 857 q 818 878 807 878 z "},"H":{"ha":919,"x_min":0,"x_max":1124,"o":"m 846 289 q 875 265 861 279 q 889 240 885 256 q 893 209 893 225 q 890 181 893 193 q 883 165 888 169 q 876 172 876 158 q 867 194 876 185 q 841 215 856 206 q 810 231 826 224 q 722 56 757 143 q 688 -106 686 -31 q 691 -128 688 -122 q 699 -136 694 -135 q 708 -136 704 -137 q 714 -136 713 -135 q 716 -156 721 -143 q 683 -169 711 -169 q 628 -135 651 -169 q 606 -26 606 -100 q 627 108 606 35 q 683 256 649 181 q 537 252 614 260 q 385 229 460 244 q 298 48 332 135 q 265 -106 264 -39 q 269 -128 265 -122 q 277 -136 272 -135 q 286 -136 282 -137 q 292 -136 290 -135 q 294 -156 299 -143 q 261 -169 289 -169 q 207 -135 231 -169 q 183 -26 183 -100 q 198 74 183 18 q 236 192 213 129 q 153 162 188 176 q 108 136 119 147 q 94 139 100 129 q 89 167 89 149 q 96 208 89 186 q 119 247 103 231 q 185 286 140 268 q 293 318 231 304 q 359 443 324 381 q 430 564 394 506 q 500 674 465 622 q 565 767 535 725 q 371 703 460 747 q 217 606 282 660 q 116 495 153 551 q 79 394 79 439 q 81 369 79 381 q 85 349 82 357 q 90 331 88 339 q 44 354 64 339 q 14 392 28 368 q 0 454 0 415 q 56 600 0 525 q 203 738 111 675 q 416 840 296 800 q 667 879 536 879 q 692 872 674 879 q 728 853 710 864 q 761 830 747 843 q 775 807 775 817 q 745 758 775 799 q 669 653 715 717 q 565 510 622 590 q 454 344 508 431 q 592 349 524 351 q 722 335 661 347 q 811 488 764 414 q 900 617 858 561 q 973 707 942 674 q 1015 740 1004 740 q 1040 733 1022 740 q 1077 715 1058 725 q 1110 692 1096 704 q 1124 669 1124 679 q 1098 628 1124 661 q 1032 543 1072 594 q 942 426 992 492 q 846 289 893 361 z "},"I":{"ha":464,"x_min":0,"x_max":771,"o":"m 264 -101 q 267 -124 264 -118 q 275 -132 271 -131 q 283 -132 279 -133 q 289 -132 288 -131 q 292 -152 296 -139 q 260 -165 288 -165 q 206 -131 229 -165 q 182 -24 182 -96 q 200 91 182 26 q 249 227 218 156 q 319 374 279 299 q 400 519 358 449 q 483 652 442 589 q 561 764 525 715 q 369 701 457 744 q 216 605 281 658 q 115 495 151 551 q 79 396 79 439 q 83 350 79 367 q 89 332 86 340 q 44 356 64 340 q 14 393 28 369 q 0 456 0 417 q 55 599 0 525 q 201 735 110 674 q 413 837 293 797 q 663 876 533 876 q 688 869 669 876 q 724 851 706 861 q 757 828 743 840 q 771 806 771 815 q 733 744 771 796 q 639 616 696 693 q 516 443 582 539 q 394 249 450 347 q 300 60 338 151 q 264 -101 263 -32 z "},"J":{"ha":667,"x_min":0,"x_max":947,"o":"m 839 878 q 864 870 846 878 q 901 852 882 863 q 933 829 919 842 q 947 807 947 817 q 929 759 947 803 q 878 646 911 715 q 800 489 846 576 q 699 311 754 401 q 580 134 643 221 q 449 -20 517 47 q 310 -128 381 -87 q 171 -169 240 -169 q 103 -154 135 -169 q 49 -112 72 -139 q 13 -47 26 -85 q 0 35 0 -10 q 21 101 0 76 q 68 139 42 126 q 119 152 94 151 q 153 144 144 153 q 152 131 158 138 q 136 109 146 124 q 117 70 126 94 q 107 7 107 46 q 125 -67 107 -39 q 172 -94 143 -94 q 282 -48 225 -94 q 396 74 339 -1 q 507 243 453 149 q 610 434 561 338 q 702 619 660 531 q 775 771 744 707 q 567 713 663 756 q 402 615 472 669 q 292 500 332 560 q 253 394 253 440 q 257 349 253 365 q 263 331 260 339 q 217 354 236 339 q 186 392 200 368 q 172 454 172 415 q 197 551 172 501 q 267 647 222 600 q 375 736 313 694 q 512 810 438 778 q 669 860 586 842 q 839 878 751 878 z "},"K":{"ha":765,"x_min":0,"x_max":1097,"o":"m 1097 763 q 1074 716 1097 749 q 1008 640 1050 683 q 910 548 967 597 q 788 450 854 499 q 650 357 722 401 q 504 279 578 313 q 538 220 517 257 q 588 141 560 183 q 647 56 615 99 q 713 -23 679 13 q 779 -81 746 -58 q 842 -103 813 -103 q 869 -91 865 -103 q 876 -75 872 -79 q 887 -74 881 -71 q 893 -93 893 -78 q 882 -122 893 -108 q 854 -146 871 -135 q 819 -163 838 -157 q 785 -169 800 -169 q 703 -144 746 -169 q 620 -78 661 -118 q 540 9 579 -39 q 469 101 500 57 q 415 182 438 146 q 382 235 392 218 q 364 230 372 232 q 347 225 356 228 q 278 74 304 146 q 253 -57 251 1 q 256 -78 253 -72 q 264 -85 260 -85 q 272 -85 268 -86 q 276 -86 275 -85 q 279 -106 283 -93 q 249 -118 275 -118 q 197 -85 219 -118 q 175 18 175 -51 q 187 109 175 58 q 221 217 199 160 q 126 242 156 221 q 96 283 96 264 q 100 299 96 296 q 108 303 104 303 q 114 299 111 303 q 122 291 117 296 q 138 283 128 286 q 167 279 147 279 q 208 282 188 279 q 251 289 229 285 q 317 422 281 354 q 392 552 354 489 q 468 672 431 615 q 538 772 506 728 q 353 713 438 754 q 207 619 268 671 q 111 514 146 568 q 76 418 76 460 q 81 375 76 392 q 86 357 83 365 q 43 379 61 364 q 13 415 26 392 q 0 475 0 439 q 53 613 0 542 q 194 744 106 685 q 397 841 282 803 q 635 879 511 879 q 658 872 642 879 q 693 855 675 865 q 724 833 711 844 q 738 811 738 821 q 707 761 738 803 q 628 655 676 719 q 524 509 581 590 q 414 342 467 428 q 557 418 486 374 q 691 512 628 463 q 809 611 754 561 q 903 706 864 661 q 965 785 943 750 q 988 839 988 821 q 985 859 988 851 q 979 871 982 867 q 976 877 976 875 q 979 879 975 879 q 1061 849 1025 879 q 1097 763 1097 819 z "},"L":{"ha":667,"x_min":0,"x_max":871,"o":"m 664 -15 q 776 -34 733 -15 q 840 -76 818 -53 q 866 -119 861 -99 q 867 -144 871 -140 q 860 -141 865 -146 q 845 -130 856 -136 q 819 -118 835 -124 q 779 -112 803 -112 q 545 -126 650 -112 q 357 -160 440 -140 q 332 -167 347 -167 q 210 -206 263 -185 q 120 -244 157 -226 q 64 -274 83 -261 q 42 -292 44 -287 q 22 -287 32 -301 q 6 -249 13 -272 q 0 -202 0 -226 q 10 -168 0 -178 q 106 -113 39 -139 q 256 -68 172 -87 q 253 -47 254 -57 q 253 -24 253 -36 q 271 91 253 26 q 319 228 289 156 q 390 375 350 300 q 472 521 429 450 q 556 655 514 592 q 633 767 597 718 q 440 703 529 747 q 287 606 351 660 q 186 497 222 553 q 150 396 150 440 q 154 350 150 367 q 160 332 157 340 q 114 356 133 340 q 83 393 97 369 q 69 456 69 417 q 94 553 69 503 q 165 649 119 603 q 272 738 210 696 q 408 812 335 781 q 565 861 482 843 q 735 879 649 879 q 760 872 743 879 q 797 853 778 864 q 829 831 815 843 q 843 808 843 818 q 824 774 843 801 q 772 701 804 746 q 697 600 739 657 q 610 478 654 543 q 521 343 565 413 q 440 205 476 274 q 376 71 403 136 q 340 -50 350 6 q 512 -24 426 -33 q 664 -15 597 -15 z "},"M":{"ha":1204,"x_min":0,"x_max":1418,"o":"m 1038 -104 q 1041 -127 1038 -121 q 1049 -134 1044 -133 q 1058 -134 1054 -135 q 1064 -135 1063 -133 q 1066 -155 1071 -142 q 1033 -168 1061 -168 q 979 -133 1003 -168 q 956 -26 956 -99 q 969 84 956 26 q 1006 201 983 142 q 1058 319 1029 261 q 1119 429 1088 376 q 949 244 1026 342 q 815 60 871 146 q 725 -85 758 -25 q 688 -154 692 -144 q 686 -156 686 -154 q 654 -168 679 -168 q 600 -133 624 -168 q 576 -26 576 -99 q 596 92 576 25 q 647 234 615 160 q 720 385 679 308 q 806 535 761 463 q 649 374 718 449 q 528 235 581 299 q 439 118 476 171 q 375 22 401 65 q 294 -149 314 -78 q 285 -162 293 -156 q 260 -168 278 -168 q 206 -133 229 -168 q 183 -26 183 -99 q 201 89 183 24 q 250 226 219 154 q 320 372 281 297 q 402 519 360 447 q 486 653 444 590 q 564 765 528 717 q 371 702 460 746 q 217 605 282 658 q 116 495 153 551 q 79 394 79 439 q 81 369 79 381 q 85 349 82 357 q 90 331 88 339 q 44 354 64 339 q 14 392 28 368 q 0 454 0 415 q 55 600 0 525 q 202 737 110 675 q 415 838 294 799 q 665 878 535 878 q 690 870 672 878 q 726 852 708 863 q 758 828 744 842 q 772 806 772 815 q 748 764 772 799 q 684 676 724 729 q 594 553 644 622 q 494 408 544 485 q 397 253 443 332 q 318 100 350 174 q 429 262 365 175 q 564 435 493 349 q 708 601 635 521 q 847 742 781 681 q 968 841 913 804 q 1058 878 1024 878 q 1083 870 1065 878 q 1120 852 1101 863 q 1153 828 1139 842 q 1167 806 1167 815 q 1140 762 1167 799 q 1072 667 1114 725 q 976 536 1029 610 q 872 383 924 463 q 773 221 819 303 q 697 64 726 139 q 791 199 739 129 q 900 337 843 269 q 1015 464 957 404 q 1126 569 1072 524 q 1228 642 1181 615 q 1310 668 1275 668 q 1335 660 1317 668 q 1372 642 1353 653 q 1404 619 1390 632 q 1418 597 1418 607 q 1390 552 1418 588 q 1319 462 1361 517 q 1226 338 1276 407 q 1134 194 1176 268 q 1064 42 1092 119 q 1038 -104 1036 -35 z "},"N":{"ha":900,"x_min":0,"x_max":1242,"o":"m 732 -106 q 735 -128 732 -122 q 743 -136 739 -135 q 751 -137 747 -137 q 757 -137 756 -136 q 759 -157 764 -144 q 726 -169 754 -169 q 672 -135 696 -169 q 649 -28 649 -100 q 674 110 649 32 q 738 275 699 189 q 827 448 778 361 q 926 613 876 535 q 726 431 814 515 q 574 275 639 347 q 463 144 508 203 q 386 38 417 85 q 296 -149 314 -74 q 288 -162 296 -156 q 261 -169 281 -169 q 207 -135 231 -169 q 183 -28 183 -100 q 201 89 183 24 q 250 226 219 154 q 320 373 281 297 q 402 519 360 449 q 487 654 444 590 q 565 767 529 718 q 371 703 460 747 q 217 606 282 660 q 116 495 153 551 q 79 394 79 439 q 81 369 79 381 q 85 349 82 357 q 90 331 88 339 q 44 354 64 339 q 14 392 28 368 q 0 454 0 415 q 56 600 0 525 q 203 738 111 675 q 417 840 296 800 q 668 879 538 879 q 693 872 675 879 q 730 853 711 864 q 763 830 749 843 q 776 807 776 817 q 753 767 776 800 q 690 681 729 733 q 603 561 651 628 q 504 419 554 494 q 408 267 454 344 q 328 115 361 189 q 447 272 378 188 q 594 442 517 357 q 753 606 672 528 q 906 746 833 685 q 1038 843 979 807 q 1133 879 1097 879 q 1158 872 1140 879 q 1195 853 1176 864 q 1228 830 1214 843 q 1242 807 1242 817 q 1219 769 1242 800 q 1161 689 1197 738 q 1079 577 1125 640 q 985 443 1033 514 q 890 297 936 372 q 809 151 844 222 q 752 13 774 79 q 732 -106 731 -53 z "},"O":{"ha":806,"x_min":0,"x_max":876,"o":"m 646 878 q 755 849 711 878 q 826 775 799 819 q 865 678 853 731 q 876 581 876 626 q 849 403 876 493 q 778 231 822 314 q 675 74 733 147 q 554 -53 617 1 q 430 -138 492 -107 q 317 -169 368 -169 q 276 -160 301 -169 q 226 -131 250 -151 q 183 -74 201 -110 q 165 14 165 -39 q 168 58 165 36 q 175 103 171 81 q 109 144 140 119 q 53 203 78 169 q 15 278 29 236 q 0 374 0 321 q 28 491 0 431 q 106 607 57 551 q 219 712 154 663 q 356 798 283 761 q 502 856 428 835 q 646 878 576 878 m 315 -115 q 385 -83 342 -115 q 476 3 428 -51 q 573 130 524 58 q 661 281 622 201 q 725 444 700 361 q 750 604 750 528 q 744 698 750 661 q 726 756 738 735 q 698 786 714 778 q 663 794 682 794 q 556 772 615 794 q 434 714 496 750 q 313 631 372 678 q 208 536 254 585 q 134 440 163 488 q 106 354 106 392 q 129 279 106 321 q 203 201 153 238 q 251 311 224 260 q 307 401 279 363 q 358 463 335 440 q 393 486 381 486 q 429 478 410 486 q 465 460 449 471 q 491 437 481 450 q 501 414 501 424 q 483 382 501 404 q 437 326 464 360 q 378 247 410 292 q 322 149 347 203 q 447 133 379 133 q 474 146 467 133 q 478 160 478 151 q 469 108 481 131 q 434 73 460 89 q 357 57 408 57 q 326 58 343 57 q 290 64 310 60 q 277 3 282 35 q 272 -61 272 -29 q 315 -115 272 -115 z "},"P":{"ha":717,"x_min":0,"x_max":929,"o":"m 665 879 q 785 858 735 879 q 867 807 835 838 q 914 743 899 776 q 929 683 929 710 q 905 576 929 631 q 840 468 881 521 q 747 368 799 415 q 638 285 694 321 q 526 229 582 250 q 425 208 471 208 q 359 223 389 208 q 313 254 329 238 q 223 75 260 167 q 186 -104 186 -17 q 190 -127 186 -121 q 198 -134 193 -133 q 207 -134 203 -135 q 213 -135 211 -133 q 215 -155 219 -142 q 182 -168 210 -168 q 127 -133 150 -168 q 104 -25 104 -97 q 127 117 104 40 q 185 272 150 194 q 263 424 221 350 q 344 554 306 497 q 414 645 383 611 q 456 679 444 679 q 481 672 463 679 q 517 653 499 664 q 549 631 535 643 q 563 608 563 618 q 542 574 563 600 q 490 506 522 547 q 417 412 457 465 q 339 297 378 358 q 430 321 378 301 q 538 370 482 340 q 646 438 593 400 q 740 520 699 476 q 808 610 782 564 q 833 701 833 656 q 821 737 833 722 q 788 760 808 751 q 744 774 768 769 q 696 778 719 778 q 454 738 567 778 q 258 638 342 697 q 127 513 175 579 q 79 396 79 447 q 81 370 79 382 q 85 350 82 358 q 90 332 88 340 q 44 356 64 340 q 14 393 28 369 q 0 456 0 417 q 55 601 0 526 q 202 738 110 676 q 415 840 294 800 q 665 879 535 879 z "},"Q":{"ha":825,"x_min":0,"x_max":892,"o":"m 417 -204 q 501 -222 469 -204 q 547 -262 532 -240 q 565 -304 563 -285 q 565 -326 568 -324 q 558 -328 561 -331 q 547 -320 554 -325 q 527 -310 540 -315 q 490 -306 514 -306 q 313 -321 385 -306 q 197 -355 242 -336 q 133 -390 153 -374 q 108 -411 113 -407 q 94 -403 101 -418 q 83 -365 88 -387 q 77 -322 78 -343 q 82 -296 76 -301 q 146 -255 106 -272 q 233 -226 186 -237 q 329 -210 281 -215 q 417 -204 378 -204 m 661 879 q 770 850 726 879 q 841 776 814 821 q 880 680 868 732 q 892 582 892 628 q 865 406 892 494 q 793 233 838 317 q 690 77 749 150 q 569 -50 632 4 q 445 -135 507 -104 q 332 -167 383 -167 q 292 -158 317 -167 q 242 -129 267 -150 q 200 -73 218 -108 q 182 15 182 -37 q 197 136 182 72 q 126 167 161 146 q 63 217 90 188 q 17 286 35 247 q 0 374 0 325 q 30 491 0 431 q 110 608 60 551 q 228 713 161 664 q 367 799 294 763 q 516 858 440 836 q 661 879 592 879 m 331 -114 q 400 -82 357 -114 q 492 5 443 -50 q 590 131 540 60 q 678 283 639 203 q 742 446 717 363 q 767 606 767 529 q 760 699 767 663 q 742 758 753 736 q 719 788 732 779 q 694 796 706 796 q 578 774 642 796 q 451 715 515 751 q 328 633 388 679 q 222 538 268 586 q 149 441 176 489 q 121 356 121 393 q 147 295 121 328 q 235 244 172 263 q 282 340 256 296 q 333 417 308 385 q 377 469 357 450 q 408 488 397 488 q 444 480 425 488 q 480 462 464 472 q 506 438 496 451 q 517 415 517 425 q 505 393 517 408 q 474 355 493 378 q 433 303 456 332 q 386 238 410 274 q 492 276 443 249 q 576 333 540 304 q 632 386 611 363 q 656 414 653 410 q 658 425 663 424 q 656 429 653 426 q 669 431 661 435 q 684 415 678 426 q 692 389 690 404 q 683 356 693 374 q 632 285 664 322 q 555 216 600 249 q 453 160 510 183 q 328 128 396 136 q 299 39 310 86 q 288 -60 288 -8 q 331 -114 288 -114 z "},"R":{"ha":724,"x_min":0,"x_max":933,"o":"m 933 683 q 909 575 933 631 q 844 466 885 519 q 750 365 803 413 q 641 283 697 318 q 528 226 585 247 q 426 206 472 206 q 413 206 419 206 q 399 208 406 207 q 439 140 415 178 q 491 60 463 101 q 550 -19 519 19 q 613 -89 581 -58 q 675 -138 644 -119 q 733 -157 706 -157 q 752 -153 746 -157 q 762 -144 758 -149 q 766 -134 765 -139 q 769 -126 767 -129 q 781 -126 775 -122 q 788 -147 788 -129 q 776 -176 788 -162 q 747 -201 764 -190 q 709 -218 729 -211 q 674 -225 689 -225 q 603 -204 640 -225 q 528 -149 565 -183 q 453 -72 490 -115 q 384 17 417 -28 q 323 106 351 63 q 275 183 294 150 q 213 37 238 111 q 188 -108 188 -37 q 191 -131 188 -125 q 199 -138 194 -137 q 207 -138 203 -139 q 213 -139 211 -137 q 215 -159 219 -146 q 182 -172 210 -172 q 128 -137 151 -172 q 104 -29 104 -101 q 127 114 104 36 q 185 270 150 192 q 264 422 221 349 q 346 553 307 496 q 415 644 385 610 q 457 679 446 679 q 482 672 464 679 q 519 653 500 664 q 551 630 538 643 q 565 607 565 617 q 545 573 565 600 q 492 505 525 546 q 419 410 460 464 q 340 294 379 356 q 432 318 379 299 q 540 367 485 338 q 648 436 594 397 q 744 519 701 475 q 812 609 786 563 q 838 701 838 656 q 825 738 838 722 q 792 762 813 753 q 748 775 772 771 q 700 779 724 779 q 456 738 569 779 q 260 638 343 697 q 128 511 176 578 q 81 393 81 444 q 85 347 81 364 q 90 329 88 338 q 44 353 64 338 q 14 391 28 367 q 0 454 0 415 q 56 600 0 525 q 204 738 111 675 q 418 840 297 800 q 669 879 539 879 q 789 858 739 879 q 871 807 839 838 q 918 743 903 776 q 933 683 933 710 z "},"T":{"ha":553,"x_min":0,"x_max":1308,"o":"m 1056 882 q 1179 867 1131 882 q 1257 833 1228 853 q 1297 792 1286 814 q 1308 758 1308 771 q 1300 730 1308 740 q 1281 715 1292 719 q 1261 710 1271 710 q 1247 715 1251 711 q 1246 724 1243 719 q 1251 735 1249 729 q 1251 745 1253 740 q 1238 754 1250 750 q 1198 760 1225 758 q 1122 763 1171 763 q 974 749 1064 763 q 779 718 883 736 q 698 608 744 671 q 601 472 651 544 q 502 320 551 399 q 415 166 453 242 q 353 21 376 90 q 331 -104 329 -49 q 334 -127 331 -121 q 342 -135 338 -133 q 351 -135 347 -136 q 357 -135 356 -133 q 359 -155 364 -142 q 326 -168 354 -168 q 272 -133 294 -168 q 249 -25 249 -99 q 278 129 249 40 q 355 314 308 218 q 458 505 401 410 q 568 679 515 600 q 397 651 476 663 q 268 640 318 640 q 68 681 136 640 q 0 782 0 721 q 15 838 0 814 q 54 877 31 861 q 106 901 78 893 q 161 910 135 910 q 191 904 178 910 q 211 890 204 899 q 219 872 218 882 q 211 854 219 863 q 208 854 208 851 q 205 861 207 857 q 198 869 203 865 q 182 872 193 872 q 136 866 158 872 q 96 849 114 860 q 67 826 78 839 q 56 797 56 813 q 91 764 56 778 q 208 750 126 750 q 289 757 239 750 q 401 774 339 764 q 533 798 464 785 q 674 825 603 811 q 732 882 719 882 q 763 872 742 882 q 806 849 785 863 q 950 873 885 864 q 1056 882 1015 882 z "},"U":{"ha":903,"x_min":0,"x_max":1158,"o":"m 719 -106 q 723 -128 719 -122 q 731 -136 726 -135 q 740 -137 736 -137 q 746 -137 744 -136 q 748 -158 753 -144 q 715 -171 743 -171 q 661 -135 685 -171 q 638 -28 638 -100 q 658 104 638 32 q 713 253 679 176 q 600 117 663 190 q 474 -21 538 43 q 354 -128 411 -85 q 261 -171 297 -171 q 207 -135 231 -171 q 183 -28 183 -100 q 201 89 183 24 q 250 226 219 154 q 320 373 281 297 q 402 519 360 449 q 487 654 444 590 q 565 767 529 718 q 372 703 461 747 q 219 606 283 660 q 117 496 154 553 q 81 394 81 439 q 85 349 81 365 q 90 331 88 339 q 44 354 64 339 q 14 392 28 368 q 0 454 0 415 q 56 600 0 525 q 203 738 111 675 q 417 840 296 800 q 668 879 538 879 q 693 872 675 879 q 730 853 711 864 q 763 831 749 843 q 776 808 776 818 q 742 751 776 800 q 655 629 707 703 q 540 465 603 556 q 423 278 478 374 q 328 92 368 183 q 281 -72 289 0 q 347 -28 306 -64 q 438 59 388 7 q 544 174 488 111 q 656 301 600 236 q 932 639 783 453 l 931 638 q 1007 737 975 700 q 1050 774 1039 774 q 1075 766 1057 774 q 1112 748 1093 758 q 1144 724 1131 738 q 1158 701 1158 711 q 1140 668 1158 694 q 1090 600 1121 642 q 1019 504 1058 558 q 938 390 979 450 q 856 264 896 329 q 786 134 817 199 q 737 8 756 69 q 719 -106 718 -53 z "},"V":{"ha":825,"x_min":0,"x_max":1088,"o":"m 953 922 q 996 936 972 942 q 1040 913 1019 931 q 1074 871 1060 894 q 1088 831 1088 847 q 1051 703 1088 781 q 956 536 1014 626 q 827 348 897 446 q 690 160 757 250 q 569 -8 624 69 q 489 -133 515 -85 q 476 -151 483 -144 q 462 -164 469 -158 q 443 -169 454 -169 q 409 -166 426 -169 q 378 -151 392 -162 q 356 -117 365 -140 q 347 -57 347 -94 q 358 59 347 -7 q 388 198 369 125 q 432 348 407 271 q 483 498 457 425 q 536 635 510 571 q 586 749 563 700 q 385 691 478 733 q 224 594 292 649 q 117 483 156 540 q 78 379 78 425 q 82 335 78 351 q 88 317 85 325 q 43 339 63 324 q 13 376 26 353 q 0 438 0 400 q 54 581 0 507 q 199 715 108 654 q 406 814 289 775 q 651 853 524 853 q 676 846 658 853 q 713 828 694 839 q 744 806 731 818 q 758 783 758 793 q 742 739 758 776 q 698 643 725 701 q 638 511 671 585 q 573 358 606 438 q 512 196 540 278 q 467 40 483 114 q 564 172 510 99 q 675 325 618 246 q 786 485 732 404 q 883 642 840 567 q 951 781 925 717 q 976 892 976 846 q 968 903 976 901 q 953 906 960 906 q 944 908 946 906 q 953 922 942 911 z "},"W":{"ha":1056,"x_min":0,"x_max":1267,"o":"m 1132 917 q 1175 931 1151 936 q 1219 908 1199 926 q 1253 867 1239 890 q 1267 826 1267 843 q 1233 700 1267 776 q 1149 533 1200 624 q 1034 347 1097 443 q 910 160 971 250 q 799 -7 850 69 q 724 -132 749 -83 q 711 -150 718 -143 q 697 -162 704 -157 q 678 -168 689 -168 q 640 -160 663 -168 q 594 -134 617 -151 q 557 -90 572 -117 q 542 -29 542 -64 q 542 1 542 -14 q 543 32 542 17 q 447 -90 494 -37 q 368 -160 400 -142 q 351 -167 365 -164 q 344 -168 349 -168 l 343 -168 l 340 -168 q 308 -162 325 -168 q 276 -142 290 -156 q 251 -106 261 -128 q 240 -54 240 -85 q 256 61 240 -4 q 297 199 271 126 q 357 347 324 271 q 426 495 390 424 q 498 631 463 567 q 564 743 533 694 q 370 684 460 726 q 216 589 281 642 q 115 480 151 536 q 78 381 78 424 q 82 336 78 353 q 88 318 85 326 q 43 340 63 325 q 13 378 26 354 q 0 439 0 401 q 53 580 0 507 q 197 713 107 653 q 404 813 288 774 q 649 851 521 851 q 673 844 656 851 q 708 826 690 836 q 739 803 725 815 q 753 781 753 790 q 726 727 753 772 q 656 613 699 682 q 565 458 614 544 q 470 281 515 371 q 392 103 425 190 q 349 -57 358 15 q 453 64 411 11 q 524 162 494 117 q 576 248 554 207 q 621 331 597 289 q 679 432 650 394 q 724 469 708 469 q 760 463 742 469 q 793 445 778 456 q 818 422 808 435 q 828 400 828 410 q 806 354 828 389 q 755 265 783 319 q 699 140 726 211 q 660 -15 671 69 q 747 112 696 38 q 852 270 797 186 q 962 442 907 354 q 1060 613 1017 531 q 1129 767 1103 696 q 1156 886 1156 838 q 1147 898 1156 896 q 1132 900 1139 900 q 1123 903 1125 900 q 1132 917 1121 906 z "},"X":{"ha":944,"x_min":0,"x_max":1397,"o":"m 1275 882 q 1342 855 1315 882 q 1383 795 1369 828 q 1397 735 1397 763 q 1383 708 1397 708 q 1372 717 1376 708 q 1363 738 1368 726 q 1351 758 1358 749 q 1332 767 1344 767 q 1239 725 1299 767 q 1103 615 1179 683 q 940 459 1026 546 q 768 283 854 372 q 831 135 800 206 q 892 10 863 64 q 947 -76 921 -44 q 993 -108 972 -108 q 1008 -100 1004 -108 q 1011 -81 1011 -92 q 1011 -62 1011 -71 q 1015 -54 1011 -54 q 1026 -76 1021 -54 q 1031 -122 1031 -97 q 1022 -169 1031 -147 q 993 -190 1014 -190 q 918 -159 957 -190 q 839 -75 879 -128 q 758 47 799 -22 q 681 192 718 115 q 552 55 613 119 q 444 -59 492 -10 q 365 -137 396 -108 q 326 -167 335 -167 q 283 -140 301 -167 q 252 -73 264 -112 q 235 10 240 -33 q 229 85 229 53 q 253 143 229 124 q 301 167 276 163 q 342 163 326 171 q 342 139 358 156 q 322 94 328 125 q 315 30 315 63 q 317 -27 314 -3 q 328 -51 321 -51 q 356 -24 331 -51 q 421 52 381 4 q 515 163 461 100 q 631 296 569 225 q 556 465 590 383 q 497 613 522 547 q 444 756 468 689 q 264 608 343 685 q 198 540 231 576 q 140 464 165 503 q 100 385 115 425 q 85 308 85 346 q 101 297 85 297 q 136 303 117 297 q 188 319 158 308 q 163 289 178 303 q 131 268 150 278 q 85 258 111 258 q 20 290 40 258 q 0 368 0 321 q 20 452 0 401 q 75 560 40 503 q 158 674 110 617 q 265 778 207 732 q 386 853 322 824 q 517 882 450 882 q 547 841 526 882 q 595 732 568 800 q 655 578 622 664 q 722 400 688 492 q 885 576 803 489 q 1042 731 968 663 q 1177 840 1117 799 q 1275 882 1238 882 z "},"Y":{"ha":911,"x_min":0,"x_max":1157,"o":"m 1050 876 q 1075 869 1057 876 q 1111 851 1093 861 q 1143 827 1129 840 q 1157 804 1157 814 q 1139 756 1157 800 q 1088 643 1121 713 q 1010 486 1056 574 q 908 308 964 399 q 790 132 853 218 q 659 -22 726 46 q 522 -130 592 -89 q 382 -171 451 -171 q 319 -156 346 -171 q 274 -118 292 -142 q 249 -64 257 -94 q 240 -1 240 -33 q 255 65 240 40 q 290 103 269 90 q 328 116 310 115 q 356 108 347 117 q 355 94 361 101 q 339 73 349 88 q 319 34 329 58 q 310 -29 310 10 q 326 -88 310 -65 q 372 -111 342 -111 q 456 -82 413 -111 q 544 -3 500 -53 q 634 112 589 46 q 722 251 679 178 q 803 401 764 324 q 879 550 843 478 q 781 444 833 500 q 677 340 728 388 q 582 262 626 293 q 508 231 538 231 q 474 234 493 231 q 436 249 454 238 q 406 283 418 261 q 394 340 394 304 q 410 433 394 379 q 452 546 426 488 q 509 661 478 604 q 569 764 540 718 q 374 702 464 746 q 219 604 285 658 q 116 493 153 550 q 79 392 79 436 q 81 367 79 378 q 85 347 82 356 q 90 328 88 338 q 44 351 64 336 q 14 390 28 365 q 0 453 0 414 q 55 599 0 524 q 202 735 110 674 q 415 837 294 797 q 665 876 535 876 q 698 866 681 876 q 730 840 715 856 q 754 809 744 825 q 764 783 764 793 q 745 747 764 774 q 699 682 726 721 q 638 595 671 643 q 578 498 606 547 q 531 399 550 449 q 513 308 513 350 q 533 308 513 294 q 590 355 554 321 q 675 440 626 389 q 780 554 724 492 q 897 687 836 617 q 1017 829 957 757 q 1036 864 1028 851 q 1050 876 1044 876 z "},"Z":{"ha":740,"x_min":0,"x_max":1117,"o":"m 1096 697 q 1110 676 1104 686 q 1113 664 1117 667 q 941 571 1028 622 q 769 463 854 519 q 606 349 685 407 q 456 236 526 290 q 138 -29 290 108 q 307 22 224 -1 q 380 42 342 32 q 455 58 418 51 q 526 70 492 65 q 588 75 560 75 q 681 62 642 75 q 746 31 721 49 q 783 -7 771 13 q 794 -39 794 -26 q 779 -76 794 -51 q 744 -123 764 -100 q 704 -161 724 -146 q 678 -169 685 -176 q 684 -139 671 -162 q 709 -90 697 -115 q 722 -44 721 -64 q 693 -24 724 -24 q 624 -35 674 -24 q 510 -62 574 -46 q 376 -97 446 -78 q 244 -131 306 -115 q 140 -158 183 -147 q 85 -169 96 -169 q 53 -161 68 -169 q 26 -140 38 -153 q 7 -112 14 -128 q 0 -81 0 -96 q 35 -3 0 -53 q 133 113 69 47 q 286 256 197 179 q 483 415 375 333 q 714 579 590 497 q 971 736 838 661 q 955 748 983 743 q 870 751 926 753 q 738 740 814 750 q 580 710 663 731 q 416 653 497 689 q 268 567 335 618 q 243 571 249 551 q 243 624 238 590 q 263 692 249 657 q 300 743 278 726 q 381 783 322 760 q 523 826 440 806 q 706 862 606 847 q 910 876 806 876 q 997 853 965 876 q 1046 801 1029 829 q 1071 728 1065 768 l 1096 697 z "},"S":{"ha":564,"x_min":0,"x_max":806,"o":"m 638 879 q 694 868 664 879 q 749 833 724 857 q 790 769 774 808 q 806 674 806 731 q 794 594 806 629 q 765 535 783 560 q 724 499 747 511 q 676 486 700 486 q 647 490 661 486 q 624 498 633 493 q 610 508 614 503 q 611 519 606 514 q 662 601 644 553 q 683 693 679 649 q 680 769 688 738 q 657 800 672 800 q 617 772 636 800 q 581 697 597 743 q 551 596 564 651 q 529 486 538 540 q 474 255 503 353 q 417 86 446 157 q 362 -31 389 15 q 311 -106 335 -78 q 200 -168 254 -172 q 181 28 196 -58 q 163 99 174 64 q 138 163 153 135 q 103 207 124 190 q 58 224 83 224 q 40 221 46 224 q 31 214 33 218 q 26 205 28 210 q 21 196 25 200 q 7 190 14 189 q 0 214 0 192 q 10 234 0 225 q 35 250 19 243 q 67 260 50 257 q 99 264 83 264 q 201 238 164 264 q 256 179 238 211 q 282 94 276 142 q 340 228 318 149 q 381 394 363 307 q 417 568 399 482 q 463 724 435 654 q 531 836 490 793 q 638 879 572 879 z "},"":{"ha":790,"x_min":0,"x_max":883,"o":"m 474 329 q 494 333 490 343 q 494 303 499 324 q 481 258 490 282 q 460 222 471 235 q 395 164 424 185 q 343 132 367 143 q 251 37 303 74 q 146 0 199 0 q 103 7 128 0 q 55 31 78 14 q 16 75 32 47 q 0 144 0 103 q 8 203 0 174 q 27 256 15 232 q 53 294 39 279 q 79 308 67 308 q 104 307 97 308 q 131 378 113 346 q 177 433 150 410 q 238 470 204 457 q 311 483 272 483 q 357 473 336 483 q 392 445 378 463 q 415 406 407 428 q 422 360 422 383 q 417 306 422 332 q 404 251 413 279 q 440 286 422 267 q 474 329 457 306 m 294 422 q 255 410 275 422 q 219 378 235 399 q 192 330 203 357 q 182 272 182 303 q 202 219 182 236 q 250 197 222 203 q 283 274 268 235 q 304 347 297 314 q 310 401 311 379 q 294 422 308 422 m 124 90 q 163 84 142 72 q 207 126 185 96 q 131 171 156 140 q 117 122 121 144 q 124 90 114 100 m 847 247 q 876 265 869 265 q 881 254 883 264 q 872 231 879 244 q 861 213 865 218 q 808 148 842 185 q 731 78 774 111 q 638 23 688 46 q 538 0 588 0 q 445 42 479 0 q 411 149 411 85 q 444 271 411 211 q 525 377 478 331 q 624 452 572 424 q 713 481 675 481 q 783 457 753 481 q 813 381 813 433 q 797 328 813 360 q 756 267 782 297 q 697 215 731 236 q 624 193 663 193 q 584 205 600 193 q 561 231 568 217 q 547 201 554 219 q 539 163 540 182 q 545 129 538 144 q 575 110 553 114 q 653 116 614 103 q 727 152 692 129 q 793 201 763 175 q 847 247 824 228 m 729 379 q 695 370 714 379 q 656 345 676 361 q 617 308 636 329 q 581 263 597 288 q 643 285 611 267 q 699 325 675 304 q 733 363 722 346 q 729 379 743 379 z "},"}":{"ha":542,"x_min":3,"x_max":575,"o":"m 457 979 q 499 969 478 979 q 536 938 519 958 q 564 890 553 918 q 575 824 575 861 q 566 756 575 786 q 545 694 557 725 q 524 629 533 664 q 515 547 515 594 q 519 479 515 507 q 529 432 524 451 q 543 396 535 410 q 482 356 511 378 q 431 310 457 336 q 388 253 404 285 q 347 166 371 221 q 290 58 324 111 q 210 -35 256 4 q 108 -75 165 -75 q 49 -56 74 -75 q 14 -15 25 -37 q 6 26 3 7 q 33 44 10 44 q 38 38 39 44 q 34 25 36 32 q 33 13 32 18 q 44 11 33 8 q 126 56 92 22 q 192 160 161 89 q 279 319 236 264 q 357 403 322 375 q 435 439 397 433 q 403 471 417 450 q 382 516 392 488 q 372 586 372 544 q 383 679 372 642 q 408 748 394 717 q 433 810 422 779 q 444 883 444 842 q 440 916 444 903 q 428 940 435 929 q 424 942 426 944 q 417 933 421 939 q 410 923 414 928 q 403 918 407 918 q 395 928 394 918 q 403 949 396 938 q 425 969 411 960 q 457 979 439 979 z "},"":{"ha":564,"x_min":0,"x_max":806,"o":"m 638 879 q 694 868 664 879 q 749 833 724 857 q 790 769 774 808 q 806 674 806 731 q 794 594 806 629 q 765 535 783 560 q 724 499 747 511 q 676 486 700 486 q 647 490 661 486 q 624 498 633 493 q 610 508 614 503 q 611 519 606 514 q 662 601 644 553 q 683 693 679 649 q 680 769 688 738 q 657 800 672 800 q 617 772 636 800 q 581 697 597 743 q 551 596 564 651 q 529 486 538 540 q 474 255 503 353 q 417 86 446 157 q 362 -31 389 15 q 311 -106 335 -78 q 200 -168 254 -172 q 181 28 196 -58 q 163 99 174 64 q 138 163 153 135 q 103 207 124 190 q 58 224 83 224 q 40 221 46 224 q 31 214 33 218 q 26 205 28 210 q 21 196 25 200 q 7 190 14 189 q 0 214 0 192 q 10 234 0 225 q 35 250 19 243 q 67 260 50 257 q 99 264 83 264 q 201 238 164 264 q 256 179 238 211 q 282 94 276 142 q 340 228 318 149 q 381 394 363 307 q 417 568 399 482 q 463 724 435 654 q 531 836 490 793 q 638 879 572 879 z "},"`":{"ha":226,"x_min":0,"x_max":199,"o":"m 106 967 q 133 958 129 967 q 129 940 136 949 q 125 906 122 933 q 138 847 128 879 q 164 781 149 814 q 199 731 179 749 q 174 708 186 718 q 149 693 163 700 q 121 686 136 686 q 83 710 104 686 q 43 767 61 733 q 13 839 25 801 q 0 904 0 876 q 26 946 0 925 q 106 967 53 967 z "},"_":{"ha":618,"x_min":29,"x_max":564,"o":"m 464 60 q 499 48 482 60 q 531 20 517 36 q 555 -14 546 4 q 564 -44 564 -32 q 535 -60 564 -60 l 139 -60 q 105 -50 124 -60 q 69 -26 86 -40 q 41 6 53 -11 q 29 36 29 22 q 34 53 29 46 q 54 60 39 60 l 464 60 z "},"@":{"ha":878,"x_min":0,"x_max":878,"o":"m 789 511 q 779 559 789 532 q 747 610 769 586 q 689 652 725 635 q 600 669 653 669 q 491 650 549 669 q 378 595 433 631 q 272 511 322 560 q 184 403 222 463 q 124 278 146 344 q 101 143 101 213 q 106 77 101 114 q 120 8 111 40 q 143 -46 129 -24 q 175 -68 157 -68 q 252 -55 219 -68 q 308 -27 285 -42 q 345 -3 331 -12 q 367 -1 360 6 q 362 -30 375 -10 q 324 -71 349 -50 q 267 -108 299 -92 q 206 -124 235 -124 q 124 -99 161 -124 q 59 -31 86 -74 q 16 68 32 13 q 0 185 0 124 q 47 392 0 289 q 171 577 94 494 q 343 710 247 660 q 538 761 439 761 q 685 737 621 761 q 791 670 749 713 q 856 569 833 628 q 878 440 878 510 q 848 304 878 369 q 771 188 818 239 q 666 108 724 138 q 554 78 608 78 q 528 82 542 78 q 502 98 514 86 q 482 129 490 110 q 474 179 474 149 q 482 247 474 211 q 440 188 463 218 q 394 134 417 158 q 350 94 371 110 q 313 78 329 78 q 238 113 267 78 q 208 203 208 149 q 235 311 208 253 q 305 419 261 369 q 405 503 349 469 q 522 536 461 536 q 564 520 549 536 q 586 485 579 504 q 617 522 603 508 q 638 536 631 536 q 672 531 654 536 q 703 517 689 525 q 725 498 717 508 q 733 478 733 488 q 714 443 733 471 q 668 376 694 415 q 615 290 642 336 q 575 197 589 243 q 622 219 588 197 q 694 282 657 242 q 760 381 731 322 q 789 511 789 439 m 339 201 q 358 212 344 201 q 388 240 371 222 q 424 281 404 258 q 464 326 444 303 q 565 453 510 382 q 569 458 568 456 q 553 460 564 460 q 493 440 524 460 q 434 392 463 421 q 383 331 406 364 q 345 269 360 297 q 328 221 331 240 q 339 201 325 201 z "},"[":{"ha":622,"x_min":-1,"x_max":868,"o":"m 763 975 q 800 965 781 975 q 834 940 819 954 q 858 909 849 925 q 868 882 868 893 q 838 868 868 868 l 651 868 q 603 796 635 843 q 528 684 571 749 q 438 541 486 619 q 340 378 389 463 q 242 204 290 293 q 153 31 193 115 l 242 31 q 279 20 260 31 q 313 -5 299 10 q 338 -35 328 -19 q 347 -62 347 -51 q 315 -76 347 -76 l 79 -76 q 48 -67 63 -76 q 22 -45 33 -58 q 5 -17 11 -32 q -1 10 -1 -3 q 3 23 -1 17 q 18 31 7 29 q 76 167 39 89 q 160 331 114 244 q 256 505 206 417 q 356 672 307 593 q 445 813 404 750 q 514 910 486 875 q 493 932 501 921 q 485 954 485 943 q 490 969 485 963 q 511 975 496 975 l 763 975 l 763 975 z "},"]":{"ha":851,"x_min":-1,"x_max":901,"o":"m 863 975 q 895 958 889 975 q 901 933 901 942 q 874 882 901 924 q 802 774 847 840 q 699 619 757 707 q 579 428 642 531 q 454 215 517 326 q 339 -10 392 104 q 325 -47 329 -33 q 318 -67 321 -61 q 313 -75 315 -74 q 303 -76 310 -76 q 280 -76 300 -76 q 231 -76 260 -76 q 167 -76 201 -76 q 104 -75 133 -75 q 54 -75 75 -75 q 29 -75 33 -75 q -1 -61 -1 -75 q 8 -35 -1 -50 q 33 -5 18 -19 q 66 20 47 10 q 103 31 85 31 l 225 31 q 279 155 244 83 q 357 307 314 226 q 449 470 400 388 q 543 628 497 553 q 630 767 589 704 q 699 868 671 829 l 539 868 q 508 882 508 868 q 518 909 508 893 q 542 940 528 925 q 576 965 557 954 q 613 975 594 975 l 863 975 l 863 975 z "},"\\":{"ha":1157,"x_min":0,"x_max":858,"o":"m 108 878 q 153 851 118 878 q 242 774 188 824 q 367 653 297 724 q 516 496 436 583 q 681 306 596 408 q 850 92 765 204 q 854 60 858 76 q 838 30 850 43 q 806 8 825 17 q 767 0 788 0 q 753 7 754 0 q 740 29 751 14 q 567 256 654 153 q 397 442 479 358 q 242 590 314 525 q 116 699 169 654 q 31 771 63 744 q 0 807 0 797 q 14 829 0 817 q 47 852 28 842 q 83 870 65 863 q 108 878 101 878 z "},"~":{"ha":647,"x_min":68,"x_max":592,"o":"m 201 344 q 267 330 239 344 q 321 299 294 315 q 374 267 347 282 q 435 253 400 253 q 487 265 467 253 q 521 291 507 276 q 544 318 535 306 q 567 331 554 331 q 586 300 581 331 q 578 233 592 269 q 524 167 564 197 q 410 136 485 136 q 333 151 368 136 q 267 183 297 165 q 212 216 238 201 q 164 231 186 231 q 133 222 144 231 q 113 204 121 214 q 100 186 106 194 q 88 178 94 178 q 70 203 72 178 q 81 260 68 229 q 123 318 93 292 q 201 344 153 344 z "},"{":{"ha":542,"x_min":0,"x_max":550,"o":"m 458 985 q 508 969 488 985 q 540 934 529 953 q 549 899 550 915 q 533 883 547 883 q 529 888 531 883 q 527 899 528 893 q 524 911 526 906 q 518 917 522 917 q 435 844 471 917 q 371 636 399 771 q 323 526 356 565 q 258 464 290 486 q 176 429 219 439 q 197 378 189 406 q 210 319 204 353 q 213 240 215 285 q 224 42 203 103 q 275 -19 246 -19 q 293 -12 285 -19 q 309 3 301 -6 q 325 18 317 11 q 342 25 333 25 q 347 9 350 25 q 334 -26 344 -7 q 305 -60 324 -44 q 263 -75 286 -75 q 163 -56 200 -75 q 105 3 125 -37 q 79 108 85 44 q 74 260 74 171 q 62 351 74 313 q 36 418 50 390 q 0 472 21 450 q 79 497 42 479 q 147 542 111 513 q 206 622 182 571 q 254 756 238 690 q 292 872 271 821 q 351 953 314 922 q 458 985 388 985 z "},"":{"ha":289,"x_min":-104,"x_max":363,"o":"m 110 654 q 118 687 103 676 q 139 699 133 697 q 160 684 146 700 q 189 649 174 668 q 226 594 206 625 q 274 633 251 617 q 308 661 292 649 q 326 675 324 674 q 345 677 336 681 q 358 665 354 674 q 362 647 363 657 q 351 628 361 636 q 333 609 350 626 q 294 572 315 592 q 254 537 274 553 q 228 521 235 521 q 198 540 217 521 q 160 584 179 560 q 126 629 140 608 q 110 654 111 650 m 325 247 q 355 261 347 267 q 360 239 363 256 q 345 201 357 222 q 319 165 333 179 q 274 124 300 146 q 219 79 249 101 q 215 -12 219 32 q 195 -92 210 -57 q 154 -147 181 -126 q 83 -168 128 -168 q 28 -142 54 -168 q -18 -84 3 -115 q -56 -26 -39 -53 q -85 0 -72 0 q -100 7 -96 0 q -102 22 -104 14 q -92 39 -100 31 q -71 50 -85 47 q -68 78 -74 65 q -58 92 -62 92 q -51 88 -54 92 q -41 81 -47 85 q -25 74 -35 78 q 1 71 -15 71 q 47 78 24 71 q 97 96 71 85 q 98 188 99 140 q 96 275 97 235 q 35 208 68 242 q -36 140 1 175 q -56 135 -47 129 q -67 153 -64 140 q -67 183 -71 167 q -49 211 -64 200 q 30 289 -12 239 q 108 392 72 339 q 132 431 118 414 q 160 459 146 447 q 190 476 175 471 q 214 482 204 482 q 254 477 232 482 q 287 458 276 472 q 290 419 297 444 q 243 356 282 394 q 219 283 222 335 q 218 165 215 231 q 278 210 251 189 q 325 247 306 232 m 74 -46 q 92 13 85 -35 q 14 0 54 0 l 1 0 q 21 -24 11 -12 q 40 -42 31 -35 q 58 -51 50 -50 q 74 -46 67 -53 z "},"":{"ha":696,"x_min":18,"x_max":706,"o":"m 565 914 q 619 903 592 914 q 666 869 646 893 q 696 806 686 844 q 699 708 706 767 q 689 677 697 692 q 669 654 681 663 q 642 644 657 646 q 613 650 626 642 q 601 666 604 657 q 601 686 597 675 q 611 739 610 713 q 607 786 613 765 q 589 820 601 807 q 557 833 576 833 q 515 818 540 833 q 461 774 490 803 q 401 707 432 746 q 340 621 369 668 l 468 621 q 499 612 482 621 q 532 589 517 603 q 558 559 547 575 q 568 529 568 543 q 563 514 568 521 q 544 507 557 507 l 282 507 q 263 463 271 485 q 247 417 254 440 l 419 417 q 452 406 436 417 q 482 380 468 396 q 504 347 496 364 q 513 318 513 331 q 485 303 513 303 l 224 303 q 222 272 222 288 q 221 240 221 257 q 238 150 221 181 q 278 118 254 119 q 338 131 300 118 q 411 194 376 144 q 442 208 422 210 q 468 188 461 206 q 472 152 474 171 q 457 115 469 133 q 436 95 451 108 q 398 69 421 82 q 344 47 375 57 q 279 36 314 38 q 209 52 242 36 q 152 100 176 68 q 115 178 128 132 q 103 283 101 224 q 103 295 103 290 q 104 307 104 300 q 75 321 90 311 q 47 343 60 331 q 26 369 35 356 q 18 396 18 383 q 24 410 18 404 q 42 417 29 417 l 124 417 q 137 463 131 440 q 153 511 143 486 q 124 526 138 515 q 100 551 111 538 q 83 580 89 565 q 76 606 76 594 q 101 621 76 621 l 201 621 q 272 733 232 681 q 358 826 313 786 q 456 890 404 867 q 565 914 508 914 z "},"":{"ha":182,"x_min":22,"x_max":206,"o":"m 118 108 q 183 92 161 108 q 206 58 206 75 q 190 8 206 35 q 152 -40 174 -18 q 109 -78 131 -62 q 76 -93 88 -93 q 51 -89 61 -93 q 35 -79 42 -85 q 22 -65 28 -74 q 93 31 79 -10 q 99 88 107 71 q 97 102 94 96 q 118 108 99 108 z "},"":{"ha":289,"x_min":0,"x_max":342,"o":"m 96 99 q 161 82 139 99 q 183 49 183 65 q 167 -1 183 25 q 130 -50 151 -28 q 87 -87 108 -72 q 54 -103 65 -103 q 29 -99 39 -103 q 13 -89 19 -94 q 0 -75 6 -83 q 71 21 57 -19 q 76 78 85 61 q 74 92 72 86 q 96 99 76 99 m 254 99 q 319 82 297 99 q 342 49 342 65 q 326 -1 342 25 q 288 -50 310 -28 q 245 -87 267 -72 q 213 -103 224 -103 q 188 -99 197 -103 q 171 -89 178 -94 q 158 -75 164 -83 q 229 21 215 -19 q 235 78 243 61 q 233 92 231 86 q 254 99 235 99 z "},"":{"ha":542,"x_min":0,"x_max":510,"o":"m 54 96 q 91 91 74 96 q 121 78 108 86 q 141 63 133 71 q 149 50 149 56 q 142 35 149 43 q 126 14 136 28 q 103 -22 115 0 q 78 -79 90 -44 q 39 -75 56 -81 q 12 -60 24 -71 q 0 -28 0 -50 q 5 8 0 -14 q 17 49 10 29 q 35 82 25 68 q 54 96 44 96 m 235 96 q 272 91 254 96 q 301 78 289 86 q 322 63 314 71 q 329 50 329 56 q 323 35 329 43 q 306 14 317 28 q 283 -22 296 0 q 258 -79 271 -44 q 219 -75 236 -81 q 192 -60 204 -71 q 181 -28 181 -50 q 185 8 181 -14 q 198 49 190 29 q 215 82 206 68 q 235 96 225 96 m 415 96 q 452 91 435 96 q 482 78 469 86 q 502 63 494 71 q 510 50 510 56 q 503 35 510 43 q 487 14 497 28 q 464 -22 476 0 q 439 -79 451 -44 q 400 -75 417 -81 q 373 -60 385 -71 q 361 -28 361 -50 q 366 8 361 -14 q 378 49 371 29 q 396 82 386 68 q 415 96 406 96 z "},"":{"ha":285,"x_min":32,"x_max":319,"o":"m 315 828 q 316 807 319 815 q 306 792 313 799 q 292 783 300 786 q 282 779 285 779 q 259 794 275 776 q 226 835 243 813 q 185 894 207 860 q 131 851 156 871 q 92 821 110 835 q 72 806 75 807 q 51 803 61 799 q 37 816 42 807 q 33 837 32 825 q 44 858 33 849 q 66 878 46 860 q 110 919 86 897 q 158 959 135 942 q 188 976 181 976 q 221 953 200 975 q 263 906 242 932 q 299 856 283 879 q 315 828 314 832 z "},"":{"ha":1028,"x_min":-3,"x_max":993,"o":"m 747 874 q 773 866 756 874 q 809 848 790 858 q 842 825 828 838 q 856 803 856 813 q 824 767 856 793 q 740 695 793 740 q 614 585 686 650 q 459 438 542 521 q 288 251 376 354 q 115 25 200 149 q 103 3 104 10 q 89 -4 101 -4 q 49 4 68 -4 q 18 26 31 13 q 1 56 6 39 q 6 88 -3 72 q 258 401 132 257 q 489 650 385 544 q 663 815 593 756 q 747 874 733 874 m 314 838 q 361 817 340 831 q 394 788 379 806 q 410 743 410 769 q 390 674 410 707 q 342 617 371 642 q 281 576 314 592 q 221 561 247 561 q 185 567 206 561 q 147 588 165 574 q 116 628 129 603 q 103 694 103 654 q 121 767 103 733 q 165 826 139 801 q 217 866 190 851 q 261 881 244 881 q 285 874 276 881 q 301 858 294 867 q 314 838 308 849 m 199 628 q 262 656 233 628 q 307 717 290 683 q 324 779 324 751 q 306 807 325 807 q 251 779 279 807 q 203 717 222 751 q 181 656 185 683 q 199 628 178 628 m 557 279 q 606 258 583 272 q 639 229 624 247 q 654 185 654 211 q 635 116 654 149 q 587 58 615 83 q 525 18 558 33 q 464 3 492 3 q 430 9 450 3 q 392 30 410 15 q 360 70 374 44 q 347 136 347 96 q 365 209 347 175 q 409 268 383 243 q 462 308 435 293 q 506 322 489 322 q 530 315 521 322 q 546 300 539 308 q 557 279 553 290 m 443 69 q 506 97 478 69 q 551 159 535 125 q 568 221 567 193 q 550 249 569 249 q 495 221 524 249 q 448 159 467 193 q 426 97 429 125 q 443 69 422 69 m 896 279 q 944 258 922 272 q 978 229 963 247 q 993 185 993 211 q 974 116 993 149 q 926 58 954 83 q 864 18 897 33 q 803 3 831 3 q 769 9 789 3 q 731 30 749 15 q 699 70 713 44 q 686 136 686 96 q 704 209 686 175 q 748 268 722 243 q 801 308 774 293 q 844 322 828 322 q 869 315 860 322 q 885 300 878 308 q 896 279 892 290 m 782 69 q 845 97 817 69 q 890 159 874 125 q 907 221 906 193 q 889 249 908 249 q 834 221 863 249 q 787 159 806 193 q 765 97 768 125 q 782 69 761 69 z "},"":{"ha":178,"x_min":15,"x_max":199,"o":"m 103 833 q 38 850 60 833 q 15 883 15 867 q 31 933 15 906 q 69 982 47 960 q 112 1019 90 1004 q 144 1035 133 1035 q 169 1031 160 1035 q 186 1021 179 1026 q 199 1007 193 1015 q 128 911 142 951 q 122 854 114 871 q 124 840 126 846 q 103 833 122 833 z "},"":{"ha":186,"x_min":22,"x_max":206,"o":"m 118 967 q 183 950 161 967 q 206 917 206 933 q 190 867 206 893 q 152 818 174 840 q 109 781 131 796 q 76 765 88 765 q 51 769 61 765 q 35 779 42 774 q 22 793 28 785 q 93 889 79 849 q 99 946 107 929 q 97 960 94 954 q 118 967 99 967 z "},"":{"ha":289,"x_min":1,"x_max":343,"o":"m 247 774 q 182 790 204 774 q 160 824 160 807 q 176 873 160 846 q 213 922 192 900 q 256 960 235 944 q 289 975 278 975 q 314 971 304 975 q 331 961 324 967 q 343 947 338 956 q 272 851 286 892 q 267 794 258 811 q 269 780 271 786 q 247 774 267 774 m 89 774 q 24 790 46 774 q 1 824 1 807 q 17 873 1 846 q 55 922 33 900 q 98 960 76 944 q 131 975 119 975 q 156 971 146 975 q 172 961 165 967 q 185 947 179 956 q 114 851 128 892 q 108 794 100 811 q 110 780 113 786 q 89 774 108 774 z "},"":{"ha":297,"x_min":0,"x_max":342,"o":"m 96 967 q 161 950 139 967 q 183 917 183 933 q 167 867 183 893 q 130 818 151 840 q 87 781 108 796 q 54 765 65 765 q 29 769 39 765 q 13 779 19 774 q 0 793 6 785 q 71 889 57 849 q 76 946 85 929 q 74 960 72 954 q 96 967 76 967 m 254 967 q 319 950 297 967 q 342 917 342 933 q 326 867 342 893 q 288 818 310 840 q 245 781 267 796 q 213 765 224 765 q 188 769 197 765 q 171 779 178 774 q 158 793 164 785 q 229 889 215 849 q 235 946 243 929 q 233 960 231 954 q 254 967 235 967 z "},"":{"ha":297,"x_min":47,"x_max":238,"o":"m 122 389 q 167 383 146 389 q 203 367 188 376 q 228 349 219 358 q 238 332 238 339 q 238 303 238 324 q 231 260 238 283 q 206 215 224 236 q 156 182 189 193 q 115 185 135 179 q 81 201 99 189 q 54 238 64 213 q 53 283 47 257 q 69 332 58 308 q 96 372 81 356 q 122 389 111 389 z "},"":{"ha":532,"x_min":26,"x_max":510,"o":"m 456 285 q 483 276 472 285 q 499 253 493 267 q 508 225 506 240 q 510 199 510 210 q 483 185 510 185 l 65 185 q 44 192 51 185 q 32 212 36 200 q 27 238 28 224 q 26 264 26 251 q 31 278 26 272 q 49 285 36 285 l 456 285 l 456 285 z "},"":{"ha":726,"x_min":26,"x_max":688,"o":"m 633 285 q 660 276 650 285 q 677 253 671 267 q 685 225 683 240 q 688 199 688 210 q 661 185 688 185 l 65 185 q 44 192 51 185 q 32 212 36 200 q 27 238 28 224 q 26 264 26 251 q 31 278 26 272 q 49 285 36 285 l 633 285 l 633 285 z "},"":{"ha":390,"x_min":35,"x_max":490,"o":"m 403 407 q 424 444 422 425 q 396 463 425 463 q 381 462 389 463 q 364 460 372 461 q 316 301 340 385 q 269 132 292 217 q 330 169 301 147 q 374 210 358 190 q 399 225 388 225 q 417 215 410 225 q 424 188 424 204 q 414 154 424 171 q 356 89 399 122 q 249 40 314 56 q 238 -12 243 14 q 229 -61 232 -37 q 225 -94 225 -89 q 217 -101 225 -100 q 169 -99 193 -108 q 144 -65 146 -89 q 149 -21 146 -46 q 158 33 153 4 q 68 88 101 40 q 35 201 35 136 q 59 314 35 258 q 122 417 83 369 q 207 501 161 464 q 297 557 253 538 q 338 679 321 632 q 361 728 356 726 q 377 728 365 729 q 401 723 389 726 q 424 715 414 719 q 438 704 435 710 q 428 667 439 701 q 400 576 418 633 q 465 547 439 571 q 490 478 490 522 q 470 402 490 433 q 419 356 450 371 q 399 356 407 350 q 389 368 390 363 q 388 388 385 376 q 403 407 392 399 m 176 121 q 209 253 192 185 q 246 390 226 322 q 176 303 206 354 q 149 190 147 253 q 156 145 149 161 q 176 121 164 129 z "},"":{"ha":204,"x_min":36,"x_max":181,"o":"m 93 404 q 155 388 129 404 q 181 361 181 372 q 181 339 181 354 q 175 306 181 324 q 156 272 169 289 q 118 247 143 256 q 88 249 103 244 q 62 260 75 251 q 42 289 49 269 q 40 323 36 303 q 53 361 44 343 q 73 392 61 379 q 93 404 85 404 z "},"^":{"ha":565,"x_min":42,"x_max":528,"o":"m 521 726 q 525 695 528 713 q 513 663 522 678 q 489 641 503 649 q 460 639 475 633 q 431 671 456 640 q 378 738 406 701 q 304 832 344 779 q 206 756 250 789 q 168 728 186 742 q 135 703 150 714 q 110 686 121 693 q 99 679 100 679 q 75 686 88 679 q 54 707 63 693 q 44 739 46 721 q 51 778 42 757 q 69 795 53 779 q 112 833 86 811 q 168 879 138 854 q 226 925 199 904 q 277 960 254 946 q 310 974 300 974 q 339 957 319 974 q 381 914 358 940 q 428 856 404 888 q 473 797 453 825 q 506 750 493 769 q 521 726 519 731 z "},"|":{"ha":407,"x_min":3,"x_max":567,"o":"m 463 1117 q 484 1114 468 1118 q 518 1103 500 1110 q 550 1087 536 1096 q 565 1069 564 1078 q 542 1001 567 1063 q 479 844 518 940 q 391 627 440 749 q 292 376 342 506 q 198 119 242 247 q 125 -115 154 -8 q 117 -148 119 -136 q 114 -165 115 -160 q 110 -172 113 -171 q 103 -175 108 -174 q 68 -174 86 -178 q 35 -162 50 -171 q 12 -139 21 -153 q 4 -107 3 -125 q 35 24 13 -56 q 90 200 58 104 q 159 400 121 296 q 237 606 197 504 q 314 799 276 707 q 383 962 351 892 q 435 1074 414 1032 q 463 1117 456 1115 z "},"":{"ha":333,"x_min":-33,"x_max":474,"o":"m 292 749 q 296 779 286 756 q 321 830 306 803 q 354 882 336 857 q 383 917 372 907 q 414 926 399 928 q 443 915 429 924 q 474 889 458 906 q 429 817 444 849 q 406 762 414 785 q 395 724 399 739 q 388 706 392 710 q 347 709 378 699 q 292 749 317 719 m -28 -46 q -29 -2 -33 -39 q -11 91 -25 35 q 26 219 3 147 q 78 367 49 290 q 145 520 108 443 q 224 665 182 597 q 251 689 235 682 q 284 695 267 696 q 317 685 301 694 q 346 661 333 676 q 351 653 350 656 q 350 644 353 650 q 340 625 347 638 q 322 590 333 613 q 199 296 240 419 q 138 91 157 172 q 112 -33 118 10 q 96 -83 106 -75 q 70 -87 89 -90 q 31 -76 51 -83 q -6 -60 11 -69 q -28 -46 -24 -51 z "},"":{"ha":781,"x_min":0,"x_max":1101,"o":"m 782 1160 q 805 1152 801 1160 q 801 1138 808 1144 q 799 1108 796 1131 q 810 1059 801 1086 q 831 1006 818 1032 q 860 964 844 979 q 839 944 850 953 q 818 932 829 938 q 794 926 807 926 q 763 946 781 926 q 731 994 746 965 q 705 1053 715 1022 q 694 1107 694 1083 q 717 1142 694 1125 q 782 1160 739 1160 m 1101 807 q 1063 747 1101 799 q 966 615 1024 694 q 842 439 908 536 q 718 242 775 342 q 750 192 744 214 q 750 154 756 169 q 734 133 744 139 q 718 133 724 128 q 719 144 714 138 q 718 156 725 150 q 682 175 704 168 q 616 24 642 96 q 592 -107 590 -49 q 595 -130 592 -124 q 603 -137 599 -136 q 611 -137 607 -137 q 617 -137 615 -136 q 619 -158 624 -144 q 586 -171 614 -171 q 532 -135 556 -171 q 508 -28 508 -100 q 522 70 508 17 q 560 185 536 124 q 447 181 504 185 q 349 178 390 178 l 331 178 q 227 47 275 113 q 144 -83 179 -19 q 88 -206 108 -146 q 68 -319 68 -267 q 73 -342 68 -335 q 83 -351 78 -349 q 92 -355 88 -354 q 97 -357 97 -356 q 94 -370 97 -360 q 76 -381 90 -381 q 48 -369 60 -381 q 28 -337 36 -357 q 18 -292 21 -317 q 15 -240 15 -267 q 67 -38 15 -150 q 199 192 118 74 q 127 213 163 200 q 64 249 92 226 q 18 302 36 271 q 0 376 0 333 q 41 510 0 446 q 147 631 82 575 q 294 732 213 686 q 456 810 375 778 q 610 861 538 843 q 731 879 682 879 q 782 870 760 879 q 819 850 804 861 q 858 872 842 864 q 883 879 874 879 q 921 865 907 879 q 942 831 935 851 q 993 879 982 879 q 1018 872 1000 879 q 1055 853 1036 864 q 1088 829 1074 842 q 1101 807 1101 817 m 64 368 q 81 347 64 358 q 126 324 99 335 q 191 303 154 313 q 267 289 228 294 q 369 416 315 353 q 475 537 422 479 q 580 646 528 594 q 679 739 632 697 q 519 714 597 735 q 374 661 442 693 q 249 590 306 629 q 151 511 192 551 q 87 433 110 471 q 64 368 64 396 m 426 285 q 523 288 479 286 q 603 286 567 289 q 701 474 647 381 q 808 647 756 567 q 629 487 731 581 q 426 285 528 393 z "},"":{"ha":781,"x_min":0,"x_max":1101,"o":"m 857 1115 q 922 1099 900 1115 q 944 1065 944 1082 q 928 1015 944 1042 q 891 967 913 989 q 848 929 869 944 q 815 914 826 914 q 790 918 800 914 q 774 928 781 922 q 761 942 767 933 q 832 1038 818 997 q 838 1094 846 1078 q 835 1109 833 1103 q 857 1115 838 1115 m 1101 807 q 1063 747 1101 799 q 966 615 1024 694 q 842 439 908 536 q 718 242 775 342 q 750 192 744 214 q 750 154 756 169 q 734 133 744 139 q 718 133 724 128 q 719 144 714 138 q 718 156 725 150 q 682 175 704 168 q 616 24 642 96 q 592 -107 590 -49 q 595 -130 592 -124 q 603 -137 599 -136 q 611 -137 607 -137 q 617 -137 615 -136 q 619 -158 624 -144 q 586 -171 614 -171 q 532 -135 556 -171 q 508 -28 508 -100 q 522 70 508 17 q 560 185 536 124 q 447 181 504 185 q 349 178 390 178 l 331 178 q 227 47 275 113 q 144 -83 179 -19 q 88 -206 108 -146 q 68 -319 68 -267 q 73 -342 68 -335 q 83 -351 78 -349 q 92 -355 88 -354 q 97 -357 97 -356 q 94 -370 97 -360 q 76 -381 90 -381 q 48 -369 60 -381 q 28 -337 36 -357 q 18 -292 21 -317 q 15 -240 15 -267 q 67 -38 15 -150 q 199 192 118 74 q 127 213 163 200 q 64 249 92 226 q 18 302 36 271 q 0 376 0 333 q 41 510 0 446 q 147 631 82 575 q 294 732 213 686 q 456 810 375 778 q 610 861 538 843 q 731 879 682 879 q 782 870 760 879 q 819 850 804 861 q 858 872 842 864 q 883 879 874 879 q 921 865 907 879 q 942 831 935 851 q 993 879 982 879 q 1018 872 1000 879 q 1055 853 1036 864 q 1088 829 1074 842 q 1101 807 1101 817 m 64 368 q 81 347 64 358 q 126 324 99 335 q 191 303 154 313 q 267 289 228 294 q 369 416 315 353 q 475 537 422 479 q 580 646 528 594 q 679 739 632 697 q 519 714 597 735 q 374 661 442 693 q 249 590 306 629 q 151 511 192 551 q 87 433 110 471 q 64 368 64 396 m 426 285 q 523 288 479 286 q 603 286 567 289 q 701 474 647 381 q 808 647 756 567 q 629 487 731 581 q 426 285 528 393 z "},"":{"ha":524,"x_min":0,"x_max":578,"o":"m 389 747 q 454 731 432 747 q 476 697 476 714 q 460 647 476 674 q 423 599 444 621 q 380 561 401 576 q 347 546 358 546 q 322 550 332 546 q 306 560 313 554 q 293 574 299 565 q 364 669 350 629 q 369 726 378 710 q 367 741 365 735 q 389 747 369 747 m 543 249 q 569 262 560 265 q 578 244 578 258 q 568 207 578 229 q 538 167 558 185 q 494 126 525 154 q 431 71 464 99 q 367 22 397 43 q 325 0 338 0 q 312 5 319 0 q 297 22 304 10 q 285 54 290 33 q 281 107 281 75 q 289 179 281 142 q 244 117 268 149 q 196 59 219 85 q 150 17 172 33 q 110 0 128 0 q 31 38 61 0 q 0 132 0 75 q 28 247 0 185 q 101 361 56 308 q 207 449 147 414 q 332 485 267 485 q 376 467 360 485 q 400 431 392 450 q 431 470 417 456 q 454 485 446 485 q 490 479 472 485 q 522 465 508 474 q 545 444 536 456 q 554 424 554 433 q 534 386 554 415 q 486 315 514 357 q 431 224 458 274 q 389 126 403 175 q 420 151 397 133 q 468 189 443 169 q 515 226 493 208 q 543 249 536 243 m 138 131 q 167 150 146 131 q 214 199 188 169 q 269 262 240 228 q 322 326 297 296 q 361 376 346 356 q 378 397 376 396 q 382 403 381 400 q 364 404 376 404 q 301 384 333 404 q 240 333 269 364 q 185 267 210 303 q 144 201 160 232 q 126 151 129 171 q 138 131 124 131 z "},"":{"ha":797,"x_min":0,"x_max":1040,"o":"m 700 1085 q 765 1068 743 1085 q 788 1035 788 1051 q 772 985 788 1011 q 734 936 756 958 q 691 899 713 914 q 658 883 669 883 q 633 888 643 883 q 617 897 624 892 q 604 911 610 903 q 675 1007 661 967 q 681 1064 689 1047 q 678 1078 676 1072 q 700 1085 681 1085 m 929 881 q 994 858 971 881 q 1028 807 1018 835 q 1040 754 1039 779 q 1036 725 1040 729 q 1030 723 1032 721 q 1024 729 1028 725 q 1013 738 1019 733 q 993 742 1006 742 q 831 725 910 742 q 683 682 753 708 q 554 624 613 656 q 453 562 496 592 q 388 508 411 532 q 364 474 364 483 q 384 460 364 467 q 436 447 404 453 q 506 435 468 440 q 581 426 544 431 q 647 420 617 422 q 690 418 676 418 q 714 399 704 418 q 728 357 724 381 q 731 313 733 333 q 719 289 729 292 q 456 201 565 254 q 276 100 347 149 q 139 -21 193 42 q 296 43 214 15 q 453 87 367 67 q 626 107 539 107 q 703 94 675 107 q 744 63 731 81 q 760 24 757 44 q 764 -8 764 4 q 760 -37 764 -28 q 754 -51 757 -47 q 744 -56 749 -57 q 726 -29 740 -42 q 691 -10 715 -18 q 625 -1 667 -1 q 373 -28 478 -1 q 199 -86 268 -54 q 95 -144 131 -118 q 51 -171 60 -171 q 17 -138 33 -171 q 0 -62 0 -106 q 23 10 0 -28 q 83 85 46 47 q 167 158 119 122 q 264 225 214 193 q 529 371 381 300 q 396 382 454 369 q 347 394 371 386 q 305 415 324 403 q 275 445 286 428 q 264 486 264 463 q 300 576 264 529 q 394 666 336 622 q 524 749 451 710 q 670 817 596 788 q 813 863 744 846 q 929 881 881 881 z "},"":{"ha":464,"x_min":0,"x_max":771,"o":"m 539 1106 q 604 1089 582 1106 q 626 1056 626 1072 q 610 1006 626 1032 q 573 957 594 979 q 530 919 551 935 q 497 904 508 904 q 472 908 482 904 q 456 918 463 913 q 443 932 449 924 q 514 1028 500 988 q 519 1085 528 1068 q 517 1099 515 1093 q 539 1106 519 1106 m 264 -101 q 267 -124 264 -118 q 275 -132 271 -131 q 283 -132 279 -133 q 289 -132 288 -131 q 292 -152 296 -139 q 260 -165 288 -165 q 206 -131 229 -165 q 182 -24 182 -96 q 200 91 182 26 q 249 227 218 156 q 319 374 279 299 q 400 519 358 449 q 483 652 442 589 q 561 764 525 715 q 369 701 457 744 q 216 605 281 658 q 115 495 151 551 q 79 396 79 439 q 83 350 79 367 q 89 332 86 340 q 44 356 64 340 q 14 393 28 369 q 0 456 0 417 q 55 599 0 525 q 201 735 110 674 q 413 837 293 797 q 663 876 533 876 q 688 869 669 876 q 724 851 706 861 q 757 828 743 840 q 771 806 771 815 q 733 744 771 796 q 639 616 696 693 q 516 443 582 539 q 394 249 450 347 q 300 60 338 151 q 264 -101 263 -32 z "},"":{"ha":806,"x_min":0,"x_max":876,"o":"m 590 1115 q 656 1099 633 1115 q 678 1065 678 1082 q 662 1015 678 1042 q 624 967 646 989 q 581 929 603 944 q 549 914 560 914 q 524 918 533 914 q 507 928 514 922 q 494 942 500 933 q 565 1038 551 997 q 571 1094 579 1078 q 569 1109 567 1103 q 590 1115 571 1115 m 646 878 q 755 849 711 878 q 826 775 799 819 q 865 678 853 731 q 876 581 876 626 q 849 403 876 493 q 778 231 822 314 q 675 74 733 147 q 554 -53 617 1 q 430 -138 492 -107 q 317 -169 368 -169 q 276 -160 301 -169 q 226 -131 250 -151 q 183 -74 201 -110 q 165 14 165 -39 q 168 58 165 36 q 175 103 171 81 q 109 144 140 119 q 53 203 78 169 q 15 278 29 236 q 0 374 0 321 q 28 491 0 431 q 106 607 57 551 q 219 712 154 663 q 356 798 283 761 q 502 856 428 835 q 646 878 576 878 m 315 -115 q 385 -83 342 -115 q 476 3 428 -51 q 573 130 524 58 q 661 281 622 201 q 725 444 700 361 q 750 604 750 528 q 744 698 750 661 q 726 756 738 735 q 698 786 714 778 q 663 794 682 794 q 556 772 615 794 q 434 714 496 750 q 313 631 372 678 q 208 536 254 585 q 134 440 163 488 q 106 354 106 392 q 129 279 106 321 q 203 201 153 238 q 251 311 224 260 q 307 401 279 363 q 358 463 335 440 q 393 486 381 486 q 429 478 410 486 q 465 460 449 471 q 491 437 481 450 q 501 414 501 424 q 483 382 501 404 q 437 326 464 360 q 378 247 410 292 q 322 149 347 203 q 447 133 379 133 q 474 146 467 133 q 478 160 478 151 q 469 108 481 131 q 434 73 460 89 q 357 57 408 57 q 326 58 343 57 q 290 64 310 60 q 277 3 282 35 q 272 -61 272 -29 q 315 -115 272 -115 z "},"":{"ha":903,"x_min":0,"x_max":1158,"o":"m 924 1054 q 989 1038 967 1054 q 1011 1004 1011 1021 q 995 954 1011 981 q 958 906 979 928 q 915 868 936 883 q 882 853 893 853 q 857 857 867 853 q 840 867 847 861 q 828 881 833 872 q 899 976 885 936 q 904 1033 913 1017 q 902 1048 900 1042 q 924 1054 904 1054 m 719 -106 q 723 -128 719 -122 q 731 -136 726 -135 q 740 -137 736 -137 q 746 -137 744 -136 q 748 -158 753 -144 q 715 -171 743 -171 q 661 -135 685 -171 q 638 -28 638 -100 q 658 104 638 32 q 713 253 679 176 q 600 117 663 190 q 474 -21 538 43 q 354 -128 411 -85 q 261 -171 297 -171 q 207 -135 231 -171 q 183 -28 183 -100 q 201 89 183 24 q 250 226 219 154 q 320 373 281 297 q 402 519 360 449 q 487 654 444 590 q 565 767 529 718 q 372 703 461 747 q 219 606 283 660 q 117 496 154 553 q 81 394 81 439 q 85 349 81 365 q 90 331 88 339 q 44 354 64 339 q 14 392 28 368 q 0 454 0 415 q 56 600 0 525 q 203 738 111 675 q 417 840 296 800 q 668 879 538 879 q 693 872 675 879 q 730 853 711 864 q 763 831 749 843 q 776 808 776 818 q 742 751 776 800 q 655 629 707 703 q 540 465 603 556 q 423 278 478 374 q 328 92 368 183 q 281 -72 289 0 q 347 -28 306 -64 q 438 59 388 7 q 544 174 488 111 q 656 301 600 236 q 932 639 783 453 l 931 638 q 1007 737 975 700 q 1050 774 1039 774 q 1075 766 1057 774 q 1112 748 1093 758 q 1144 724 1131 738 q 1158 701 1158 711 q 1140 668 1158 694 q 1090 600 1121 642 q 1019 504 1058 558 q 938 390 979 450 q 856 264 896 329 q 786 134 817 199 q 737 8 756 69 q 719 -106 718 -53 z "},"":{"ha":911,"x_min":0,"x_max":1157,"o":"m 906 1111 q 971 1094 949 1111 q 993 1061 993 1078 q 977 1011 993 1038 q 940 963 961 985 q 897 925 918 940 q 864 910 875 910 q 839 914 849 910 q 822 924 829 918 q 810 938 815 929 q 881 1033 867 993 q 886 1090 894 1074 q 884 1105 882 1099 q 906 1111 886 1111 m 1050 876 q 1075 869 1057 876 q 1111 851 1093 861 q 1143 827 1129 840 q 1157 804 1157 814 q 1139 756 1157 800 q 1088 643 1121 713 q 1010 486 1056 574 q 908 308 964 399 q 790 132 853 218 q 659 -22 726 46 q 522 -130 592 -89 q 382 -171 451 -171 q 319 -156 346 -171 q 274 -118 292 -142 q 249 -64 257 -94 q 240 -1 240 -33 q 255 65 240 40 q 290 103 269 90 q 328 116 310 115 q 356 108 347 117 q 355 94 361 101 q 339 73 349 88 q 319 34 329 58 q 310 -29 310 10 q 326 -88 310 -65 q 372 -111 342 -111 q 456 -82 413 -111 q 544 -3 500 -53 q 634 112 589 46 q 722 251 679 178 q 803 401 764 324 q 879 550 843 478 q 781 444 833 500 q 677 340 728 388 q 582 262 626 293 q 508 231 538 231 q 474 234 493 231 q 436 249 454 238 q 406 283 418 261 q 394 340 394 304 q 410 433 394 379 q 452 546 426 488 q 509 661 478 604 q 569 764 540 718 q 374 702 464 746 q 219 604 285 658 q 116 493 153 550 q 79 392 79 436 q 81 367 79 378 q 85 347 82 356 q 90 328 88 338 q 44 351 64 336 q 14 390 28 365 q 0 453 0 414 q 55 599 0 524 q 202 735 110 674 q 415 837 294 797 q 665 876 535 876 q 698 866 681 876 q 730 840 715 856 q 754 809 744 825 q 764 783 764 793 q 745 747 764 774 q 699 682 726 721 q 638 595 671 643 q 578 498 606 547 q 531 399 550 449 q 513 308 513 350 q 533 308 513 294 q 590 355 554 321 q 675 440 626 389 q 780 554 724 492 q 897 687 836 617 q 1017 829 957 757 q 1036 864 1028 851 q 1050 876 1044 876 z "},"":{"ha":379,"x_min":0,"x_max":472,"o":"m 299 740 q 364 724 342 740 q 386 690 386 707 q 370 640 386 667 q 333 592 354 614 q 290 554 311 569 q 257 539 268 539 q 232 543 242 539 q 215 553 222 547 q 203 567 208 558 q 274 663 260 622 q 279 719 288 703 q 277 734 275 728 q 299 740 279 740 m 436 247 q 465 265 458 265 q 470 254 472 264 q 461 231 468 244 q 450 213 454 218 q 397 148 431 185 q 319 78 363 111 q 226 23 276 46 q 126 0 176 0 q 34 42 68 0 q 0 149 0 85 q 33 271 0 211 q 114 377 67 331 q 213 452 161 424 q 301 481 264 481 q 372 457 342 481 q 401 381 401 433 q 386 328 401 360 q 345 267 371 297 q 285 215 319 236 q 213 193 251 193 q 173 205 189 193 q 150 231 157 217 q 136 201 143 219 q 128 163 129 182 q 134 129 126 144 q 164 110 142 114 q 242 116 203 103 q 316 152 281 129 q 382 201 351 175 q 436 247 413 228 m 318 379 q 284 370 303 379 q 245 345 265 361 q 206 308 225 329 q 169 263 186 288 q 232 285 200 267 q 288 325 264 304 q 322 363 311 346 q 318 379 332 379 z "},"":{"ha":411,"x_min":0,"x_max":499,"o":"m 299 740 q 364 724 342 740 q 386 690 386 707 q 370 640 386 667 q 333 592 354 614 q 290 554 311 569 q 257 539 268 539 q 232 543 242 539 q 215 553 222 547 q 203 567 208 558 q 274 663 260 622 q 279 719 288 703 q 277 734 275 728 q 299 740 279 740 m 474 329 q 494 333 490 343 q 494 303 499 324 q 481 258 490 282 q 460 222 471 235 q 395 164 424 185 q 343 132 367 143 q 251 37 303 74 q 146 0 199 0 q 103 7 128 0 q 55 31 78 14 q 16 75 32 47 q 0 144 0 103 q 8 203 0 174 q 27 256 15 232 q 53 294 39 279 q 79 308 67 308 q 104 307 97 308 q 131 378 113 346 q 177 433 150 410 q 238 470 204 457 q 311 483 272 483 q 357 473 336 483 q 392 445 378 463 q 415 406 407 428 q 422 360 422 383 q 417 306 422 332 q 404 251 413 279 q 440 286 422 267 q 474 329 457 306 m 294 422 q 255 410 275 422 q 219 378 235 399 q 192 330 203 357 q 182 272 182 303 q 202 219 182 236 q 250 197 222 203 q 283 274 268 235 q 304 347 297 314 q 310 401 311 379 q 294 422 308 422 m 124 90 q 163 84 142 72 q 207 126 185 96 q 131 171 156 140 q 117 122 121 144 q 124 90 114 100 z "},"":{"ha":549,"x_min":0,"x_max":606,"o":"m 386 701 q 451 685 429 701 q 474 651 474 668 q 458 601 474 628 q 420 553 442 575 q 377 515 399 531 q 344 500 356 500 q 319 504 329 500 q 303 514 310 508 q 290 528 296 519 q 361 624 347 583 q 367 681 375 664 q 365 695 363 689 q 386 701 367 701 m 569 247 q 597 260 588 264 q 606 242 606 257 q 596 205 606 226 q 565 164 586 183 q 522 124 553 151 q 458 69 492 97 q 395 20 425 42 q 351 -1 365 -1 q 339 3 346 -1 q 325 20 332 8 q 313 53 318 32 q 308 106 308 74 q 313 156 308 129 q 325 210 318 182 q 259 133 294 171 q 188 66 224 96 q 121 17 153 36 q 64 -1 89 -1 q 48 6 58 -1 q 27 28 38 14 q 8 62 17 42 q 0 107 0 82 q 10 187 0 144 q 38 271 21 229 q 74 351 54 313 q 113 418 94 389 q 147 465 132 447 q 171 482 163 482 q 209 476 189 482 q 244 458 229 469 q 270 433 260 447 q 281 404 281 419 q 267 380 281 401 q 235 328 254 358 q 194 263 215 297 q 156 199 172 228 q 133 150 140 169 q 135 131 125 131 q 177 156 149 131 q 240 222 206 182 q 313 306 275 261 q 385 391 351 351 q 445 456 419 431 q 482 482 471 482 q 518 476 500 482 q 550 462 536 471 q 573 442 564 453 q 582 421 582 431 q 562 385 582 414 q 514 314 542 356 q 458 223 486 272 q 415 125 431 174 q 447 149 424 132 q 494 187 469 167 q 541 224 519 207 q 569 247 563 242 z "},"":{"ha":515,"x_min":-40,"x_max":607,"o":"m 368 706 q 433 689 411 706 q 456 656 456 672 q 440 606 456 632 q 402 557 424 579 q 359 519 381 535 q 326 504 338 504 q 301 508 311 504 q 285 518 292 513 q 272 532 278 524 q 343 628 329 588 q 349 685 357 668 q 347 699 344 693 q 368 706 349 706 m 568 249 q 594 260 583 263 q 606 244 604 257 q 597 210 607 231 q 563 167 588 189 q 462 78 518 122 q 344 -11 406 33 q 258 -159 301 -87 q 178 -286 215 -231 q 110 -376 140 -342 q 64 -410 81 -410 q 24 -400 43 -410 q -9 -372 6 -390 q -32 -329 -24 -354 q -40 -275 -40 -304 q 22 -167 -40 -225 q 183 -37 85 -108 q 253 88 222 33 q 313 199 285 143 q 248 128 283 163 q 177 65 213 93 q 110 19 142 36 q 57 1 79 1 q 40 9 51 1 q 19 30 29 17 q 1 63 8 43 q -7 108 -7 83 q 15 230 -7 164 q 67 351 38 296 q 124 444 96 407 q 164 482 153 482 q 201 476 182 482 q 236 458 221 469 q 262 433 251 447 q 272 404 272 419 q 259 380 272 401 q 226 328 246 358 q 186 263 207 297 q 149 199 165 229 q 125 150 132 169 q 128 131 118 131 q 167 150 140 131 q 228 201 194 169 q 298 271 261 232 q 369 349 335 310 q 429 422 403 388 q 468 481 456 457 q 471 482 469 482 q 507 476 489 482 q 539 462 525 471 q 562 442 553 453 q 571 421 571 431 q 560 395 571 418 q 530 333 549 372 q 484 244 511 294 q 426 136 457 193 q 497 191 461 164 q 568 249 532 218 m 21 -293 q 56 -264 35 -293 q 106 -186 78 -235 q 50 -229 74 -210 q 14 -263 26 -249 q 3 -285 1 -278 q 21 -293 4 -293 z "},"":{"ha":524,"x_min":0,"x_max":578,"o":"m 425 569 q 425 554 428 561 q 417 543 422 547 q 407 536 413 539 q 400 533 401 533 q 383 544 394 531 q 358 574 371 557 q 328 618 343 593 q 289 586 306 600 q 260 564 274 574 q 246 553 247 554 q 231 551 238 549 q 219 560 224 554 q 216 576 215 567 q 225 592 217 585 q 241 607 226 593 q 274 637 256 621 q 308 666 292 653 q 331 679 325 679 q 355 662 339 678 q 386 626 371 646 q 413 590 401 607 q 425 569 424 572 m 543 249 q 569 262 560 265 q 578 244 578 258 q 568 207 578 229 q 538 167 558 185 q 494 126 525 154 q 431 71 464 99 q 367 22 397 43 q 325 0 338 0 q 312 5 319 0 q 297 22 304 10 q 285 54 290 33 q 281 107 281 75 q 289 179 281 142 q 244 117 268 149 q 196 59 219 85 q 150 17 172 33 q 110 0 128 0 q 31 38 61 0 q 0 132 0 75 q 28 247 0 185 q 101 361 56 308 q 207 449 147 414 q 332 485 267 485 q 376 467 360 485 q 400 431 392 450 q 431 470 417 456 q 454 485 446 485 q 490 479 472 485 q 522 465 508 474 q 545 444 536 456 q 554 424 554 433 q 534 386 554 415 q 486 315 514 357 q 431 224 458 274 q 389 126 403 175 q 420 151 397 133 q 468 189 443 169 q 515 226 493 208 q 543 249 536 243 m 138 131 q 167 150 146 131 q 214 199 188 169 q 269 262 240 228 q 322 326 297 296 q 361 376 346 356 q 378 397 376 396 q 382 403 381 400 q 364 404 376 404 q 301 384 333 404 q 240 333 269 364 q 185 267 210 303 q 144 201 160 232 q 126 151 129 171 q 138 131 124 131 z "},"":{"ha":379,"x_min":0,"x_max":472,"o":"m 408 553 q 408 538 411 544 q 401 526 406 531 q 390 519 396 522 q 383 517 385 517 q 366 527 378 514 q 342 557 354 540 q 311 601 326 576 q 272 569 289 583 q 244 547 257 557 q 229 536 231 538 q 214 535 221 532 q 203 544 207 538 q 199 559 199 550 q 208 575 200 568 q 224 590 210 576 q 257 620 239 604 q 292 649 275 636 q 314 663 308 663 q 338 645 322 661 q 369 610 354 629 q 396 573 385 590 q 408 553 407 556 m 436 247 q 465 265 458 265 q 470 254 472 264 q 461 231 468 244 q 450 213 454 218 q 397 148 431 185 q 319 78 363 111 q 226 23 276 46 q 126 0 176 0 q 34 42 68 0 q 0 149 0 85 q 33 271 0 211 q 114 377 67 331 q 213 452 161 424 q 301 481 264 481 q 372 457 342 481 q 401 381 401 433 q 386 328 401 360 q 345 267 371 297 q 285 215 319 236 q 213 193 251 193 q 173 205 189 193 q 150 231 157 217 q 136 201 143 219 q 128 163 129 182 q 134 129 126 144 q 164 110 142 114 q 242 116 203 103 q 316 152 281 129 q 382 201 351 175 q 436 247 413 228 m 318 379 q 284 370 303 379 q 245 345 265 361 q 206 308 225 329 q 169 263 186 288 q 232 285 200 267 q 288 325 264 304 q 322 363 311 346 q 318 379 332 379 z "},"":{"ha":549,"x_min":0,"x_max":606,"o":"m 453 549 q 453 533 456 540 q 445 522 450 526 q 435 515 440 518 q 428 513 429 513 q 410 523 422 510 q 386 553 399 536 q 356 597 371 572 q 317 565 333 579 q 288 543 301 553 q 274 532 275 533 q 258 531 265 528 q 247 540 251 533 q 244 555 243 546 q 253 571 244 564 q 269 586 254 572 q 301 616 283 600 q 336 645 319 632 q 358 658 353 658 q 383 641 367 657 q 414 606 399 625 q 440 569 429 586 q 453 549 451 551 m 569 247 q 597 260 588 264 q 606 242 606 257 q 596 205 606 226 q 565 164 586 183 q 522 124 553 151 q 458 69 492 97 q 395 20 425 42 q 351 -1 365 -1 q 339 3 346 -1 q 325 20 332 8 q 313 53 318 32 q 308 106 308 74 q 313 156 308 129 q 325 210 318 182 q 259 133 294 171 q 188 66 224 96 q 121 17 153 36 q 64 -1 89 -1 q 48 6 58 -1 q 27 28 38 14 q 8 62 17 42 q 0 107 0 82 q 10 187 0 144 q 38 271 21 229 q 74 351 54 313 q 113 418 94 389 q 147 465 132 447 q 171 482 163 482 q 209 476 189 482 q 244 458 229 469 q 270 433 260 447 q 281 404 281 419 q 267 380 281 401 q 235 328 254 358 q 194 263 215 297 q 156 199 172 228 q 133 150 140 169 q 135 131 125 131 q 177 156 149 131 q 240 222 206 182 q 313 306 275 261 q 385 391 351 351 q 445 456 419 431 q 482 482 471 482 q 518 476 500 482 q 550 462 536 471 q 573 442 564 453 q 582 421 582 431 q 562 385 582 414 q 514 314 542 356 q 458 223 486 272 q 415 125 431 174 q 447 149 424 132 q 494 187 469 167 q 541 224 519 207 q 569 247 563 242 z "},"":{"ha":781,"x_min":0,"x_max":1101,"o":"m 1101 807 q 1063 747 1101 799 q 966 615 1024 694 q 842 439 908 536 q 718 242 775 342 q 750 192 744 214 q 750 154 756 169 q 734 133 744 139 q 718 133 724 128 q 719 144 714 138 q 718 156 725 150 q 682 175 704 168 q 616 24 642 96 q 592 -107 590 -49 q 595 -130 592 -124 q 603 -137 599 -136 q 611 -137 607 -137 q 617 -137 615 -136 q 619 -158 624 -144 q 586 -171 614 -171 q 532 -135 556 -171 q 508 -28 508 -100 q 522 70 508 17 q 560 185 536 124 q 447 181 504 185 q 349 178 390 178 l 331 178 q 227 47 275 113 q 144 -83 179 -19 q 88 -206 108 -146 q 68 -319 68 -267 q 73 -342 68 -335 q 83 -351 78 -349 q 92 -355 88 -354 q 97 -357 97 -356 q 94 -370 97 -360 q 76 -381 90 -381 q 48 -369 60 -381 q 28 -337 36 -357 q 18 -292 21 -317 q 15 -240 15 -267 q 67 -38 15 -150 q 199 192 118 74 q 127 213 163 200 q 64 249 92 226 q 18 302 36 271 q 0 376 0 333 q 41 510 0 446 q 147 631 82 575 q 294 732 213 686 q 456 810 375 778 q 610 861 538 843 q 731 879 682 879 q 782 870 760 879 q 819 850 804 861 q 858 872 842 864 q 883 879 874 879 q 921 865 907 879 q 942 831 935 851 q 993 879 982 879 q 1018 872 1000 879 q 1055 853 1036 864 q 1088 829 1074 842 q 1101 807 1101 817 m 64 368 q 81 347 64 358 q 126 324 99 335 q 191 303 154 313 q 267 289 228 294 q 369 416 315 353 q 475 537 422 479 q 580 646 528 594 q 679 739 632 697 q 519 714 597 735 q 374 661 442 693 q 249 590 306 629 q 151 511 192 551 q 87 433 110 471 q 64 368 64 396 m 426 285 q 523 288 479 286 q 603 286 567 289 q 701 474 647 381 q 808 647 756 567 q 629 487 731 581 q 426 285 528 393 m 892 1003 q 892 982 896 990 q 883 967 889 974 q 869 958 876 961 q 858 954 861 954 q 835 969 851 951 q 803 1010 819 988 q 761 1069 783 1035 q 707 1026 732 1046 q 669 996 686 1010 q 649 981 651 982 q 628 978 638 974 q 613 991 618 982 q 609 1012 608 1000 q 621 1033 610 1024 q 642 1053 622 1035 q 687 1094 663 1072 q 734 1134 711 1117 q 764 1151 757 1151 q 797 1128 776 1150 q 839 1081 818 1107 q 875 1031 860 1054 q 892 1003 890 1007 z "},"":{"ha":797,"x_min":0,"x_max":1040,"o":"m 929 881 q 994 858 971 881 q 1028 807 1018 835 q 1040 754 1039 779 q 1036 725 1040 729 q 1030 723 1032 721 q 1024 729 1028 725 q 1013 738 1019 733 q 993 742 1006 742 q 831 725 910 742 q 683 682 753 708 q 554 624 613 656 q 453 562 496 592 q 388 508 411 532 q 364 474 364 483 q 384 460 364 467 q 436 447 404 453 q 506 435 468 440 q 581 426 544 431 q 647 420 617 422 q 690 418 676 418 q 714 399 704 418 q 728 357 724 381 q 731 313 733 333 q 719 289 729 292 q 456 201 565 254 q 276 100 347 149 q 139 -21 193 42 q 296 43 214 15 q 453 87 367 67 q 626 107 539 107 q 703 94 675 107 q 744 63 731 81 q 760 24 757 44 q 764 -8 764 4 q 760 -37 764 -28 q 754 -51 757 -47 q 744 -56 749 -57 q 726 -29 740 -42 q 691 -10 715 -18 q 625 -1 667 -1 q 373 -28 478 -1 q 199 -86 268 -54 q 95 -144 131 -118 q 51 -171 60 -171 q 17 -138 33 -171 q 0 -62 0 -106 q 23 10 0 -28 q 83 85 46 47 q 167 158 119 122 q 264 225 214 193 q 529 371 381 300 q 396 382 454 369 q 347 394 371 386 q 305 415 324 403 q 275 445 286 428 q 264 486 264 463 q 300 576 264 529 q 394 666 336 622 q 524 749 451 710 q 670 817 596 788 q 813 863 744 846 q 929 881 881 881 m 821 978 q 822 957 825 965 q 812 942 818 949 q 798 933 806 936 q 788 929 790 929 q 765 944 781 926 q 732 985 749 963 q 690 1044 713 1010 q 636 1001 661 1021 q 598 971 615 985 q 578 956 581 957 q 557 953 567 949 q 542 966 547 957 q 538 987 538 975 q 550 1008 539 999 q 572 1028 551 1010 q 616 1069 592 1047 q 663 1109 640 1092 q 693 1126 686 1126 q 726 1103 706 1125 q 768 1056 747 1082 q 804 1006 789 1029 q 821 978 819 982 z "},"":{"ha":464,"x_min":0,"x_max":771,"o":"m 264 -101 q 267 -124 264 -118 q 275 -132 271 -131 q 283 -132 279 -133 q 289 -132 288 -131 q 292 -152 296 -139 q 260 -165 288 -165 q 206 -131 229 -165 q 182 -24 182 -96 q 200 91 182 26 q 249 227 218 156 q 319 374 279 299 q 400 519 358 449 q 483 652 442 589 q 561 764 525 715 q 369 701 457 744 q 216 605 281 658 q 115 495 151 551 q 79 396 79 439 q 83 350 79 367 q 89 332 86 340 q 44 356 64 340 q 14 393 28 369 q 0 456 0 417 q 55 599 0 525 q 201 735 110 674 q 413 837 293 797 q 663 876 533 876 q 688 869 669 876 q 724 851 706 861 q 757 828 743 840 q 771 806 771 815 q 733 744 771 796 q 639 616 696 693 q 516 443 582 539 q 394 249 450 347 q 300 60 338 151 q 264 -101 263 -32 m 672 981 q 673 960 676 968 q 663 945 669 951 q 649 935 657 939 q 639 932 642 932 q 616 947 632 929 q 583 988 600 965 q 542 1047 564 1013 q 488 1004 513 1024 q 449 974 467 988 q 429 958 432 960 q 408 956 418 951 q 394 969 399 960 q 390 990 389 978 q 401 1011 390 1001 q 423 1031 403 1013 q 467 1072 443 1050 q 515 1112 492 1094 q 544 1129 538 1129 q 578 1106 557 1128 q 619 1058 599 1085 q 656 1008 640 1032 q 672 981 671 985 z "},"":{"ha":806,"x_min":0,"x_max":876,"o":"m 646 878 q 755 849 711 878 q 826 775 799 819 q 865 678 853 731 q 876 581 876 626 q 849 403 876 493 q 778 231 822 314 q 675 74 733 147 q 554 -53 617 1 q 430 -138 492 -107 q 317 -169 368 -169 q 276 -160 301 -169 q 226 -131 250 -151 q 183 -74 201 -110 q 165 14 165 -39 q 168 58 165 36 q 175 103 171 81 q 109 144 140 119 q 53 203 78 169 q 15 278 29 236 q 0 374 0 321 q 28 491 0 431 q 106 607 57 551 q 219 712 154 663 q 356 798 283 761 q 502 856 428 835 q 646 878 576 878 m 315 -115 q 385 -83 342 -115 q 476 3 428 -51 q 573 130 524 58 q 661 281 622 201 q 725 444 700 361 q 750 604 750 528 q 744 698 750 661 q 726 756 738 735 q 698 786 714 778 q 663 794 682 794 q 556 772 615 794 q 434 714 496 750 q 313 631 372 678 q 208 536 254 585 q 134 440 163 488 q 106 354 106 392 q 129 279 106 321 q 203 201 153 238 q 251 311 224 260 q 307 401 279 363 q 358 463 335 440 q 393 486 381 486 q 429 478 410 486 q 465 460 449 471 q 491 437 481 450 q 501 414 501 424 q 483 382 501 404 q 437 326 464 360 q 378 247 410 292 q 322 149 347 203 q 447 133 379 133 q 474 146 467 133 q 478 160 478 151 q 469 108 481 131 q 434 73 460 89 q 357 57 408 57 q 326 58 343 57 q 290 64 310 60 q 277 3 282 35 q 272 -61 272 -29 q 315 -115 272 -115 m 799 981 q 799 960 803 968 q 790 945 796 951 q 776 935 783 939 q 765 932 768 932 q 742 947 758 929 q 710 988 726 965 q 668 1047 690 1013 q 614 1004 639 1024 q 576 974 593 988 q 556 958 558 960 q 535 956 544 951 q 520 969 525 960 q 516 990 515 978 q 528 1011 517 1001 q 549 1031 529 1013 q 594 1072 569 1050 q 641 1112 618 1094 q 671 1129 664 1129 q 704 1106 683 1128 q 746 1058 725 1085 q 782 1008 767 1032 q 799 981 797 985 z "},"":{"ha":903,"x_min":0,"x_max":1158,"o":"m 719 -106 q 723 -128 719 -122 q 731 -136 726 -135 q 740 -137 736 -137 q 746 -137 744 -136 q 748 -158 753 -144 q 715 -171 743 -171 q 661 -135 685 -171 q 638 -28 638 -100 q 658 104 638 32 q 713 253 679 176 q 600 117 663 190 q 474 -21 538 43 q 354 -128 411 -85 q 261 -171 297 -171 q 207 -135 231 -171 q 183 -28 183 -100 q 201 89 183 24 q 250 226 219 154 q 320 373 281 297 q 402 519 360 449 q 487 654 444 590 q 565 767 529 718 q 372 703 461 747 q 219 606 283 660 q 117 496 154 553 q 81 394 81 439 q 85 349 81 365 q 90 331 88 339 q 44 354 64 339 q 14 392 28 368 q 0 454 0 415 q 56 600 0 525 q 203 738 111 675 q 417 840 296 800 q 668 879 538 879 q 693 872 675 879 q 730 853 711 864 q 763 831 749 843 q 776 808 776 818 q 742 751 776 800 q 655 629 707 703 q 540 465 603 556 q 423 278 478 374 q 328 92 368 183 q 281 -72 289 0 q 347 -28 306 -64 q 438 59 388 7 q 544 174 488 111 q 656 301 600 236 q 932 639 783 453 l 931 638 q 1007 737 975 700 q 1050 774 1039 774 q 1075 766 1057 774 q 1112 748 1093 758 q 1144 724 1131 738 q 1158 701 1158 711 q 1140 668 1158 694 q 1090 600 1121 642 q 1019 504 1058 558 q 938 390 979 450 q 856 264 896 329 q 786 134 817 199 q 737 8 756 69 q 719 -106 718 -53 m 939 978 q 940 957 943 965 q 930 942 936 949 q 916 933 924 936 q 906 929 908 929 q 883 944 899 926 q 850 985 867 963 q 808 1044 831 1010 q 754 1001 779 1021 q 716 971 733 985 q 696 956 699 957 q 675 953 685 949 q 660 966 665 957 q 656 987 656 975 q 668 1008 657 999 q 690 1028 669 1010 q 734 1069 710 1047 q 781 1109 758 1092 q 811 1126 804 1126 q 844 1103 824 1125 q 886 1056 865 1082 q 922 1006 907 1029 q 939 978 938 982 z "},"":{"ha":524,"x_min":0,"x_max":578,"o":"m 353 757 q 374 750 371 757 q 372 736 378 743 q 367 710 365 731 q 378 665 369 690 q 399 615 386 640 q 426 575 411 589 q 407 558 417 565 q 387 547 399 551 q 364 542 375 542 q 333 560 350 542 q 302 604 317 578 q 278 659 288 631 q 268 708 268 688 q 290 740 268 724 q 353 757 311 757 m 543 249 q 569 262 560 265 q 578 244 578 258 q 568 207 578 229 q 538 167 558 185 q 494 126 525 154 q 431 71 464 99 q 367 22 397 43 q 325 0 338 0 q 312 5 319 0 q 297 22 304 10 q 285 54 290 33 q 281 107 281 75 q 289 179 281 142 q 244 117 268 149 q 196 59 219 85 q 150 17 172 33 q 110 0 128 0 q 31 38 61 0 q 0 132 0 75 q 28 247 0 185 q 101 361 56 308 q 207 449 147 414 q 332 485 267 485 q 376 467 360 485 q 400 431 392 450 q 431 470 417 456 q 454 485 446 485 q 490 479 472 485 q 522 465 508 474 q 545 444 536 456 q 554 424 554 433 q 534 386 554 415 q 486 315 514 357 q 431 224 458 274 q 389 126 403 175 q 420 151 397 133 q 468 189 443 169 q 515 226 493 208 q 543 249 536 243 m 138 131 q 167 150 146 131 q 214 199 188 169 q 269 262 240 228 q 322 326 297 296 q 361 376 346 356 q 378 397 376 396 q 382 403 381 400 q 364 404 376 404 q 301 384 333 404 q 240 333 269 364 q 185 267 210 303 q 144 201 160 232 q 126 151 129 171 q 138 131 124 131 z "}}}
